G04 #@! TF.GenerationSoftware,KiCad,Pcbnew,(6.0.5-0)*
G04 #@! TF.CreationDate,2022-06-07T21:37:56+01:00*
G04 #@! TF.ProjectId,microbit_eink_feather_adaptor,6d696372-6f62-4697-945f-65696e6b5f66,rev?*
G04 #@! TF.SameCoordinates,Original*
G04 #@! TF.FileFunction,Copper,L2,Bot*
G04 #@! TF.FilePolarity,Positive*
%FSLAX46Y46*%
G04 Gerber Fmt 4.6, Leading zero omitted, Abs format (unit mm)*
G04 Created by KiCad (PCBNEW (6.0.5-0)) date 2022-06-07 21:37:56*
%MOMM*%
%LPD*%
G01*
G04 APERTURE LIST*
G04 #@! TA.AperFunction,ComponentPad*
%ADD10R,1.500000X1.500000*%
G04 #@! TD*
G04 #@! TA.AperFunction,ComponentPad*
%ADD11C,1.500000*%
G04 #@! TD*
G04 #@! TA.AperFunction,ComponentPad*
%ADD12R,1.700000X1.700000*%
G04 #@! TD*
G04 #@! TA.AperFunction,ComponentPad*
%ADD13O,1.700000X1.700000*%
G04 #@! TD*
G04 #@! TA.AperFunction,Conductor*
%ADD14C,0.250000*%
G04 #@! TD*
G04 APERTURE END LIST*
D10*
X66040000Y-72390000D03*
D11*
X66040000Y-68590000D03*
X67310000Y-70490000D03*
X67310000Y-66690000D03*
X68580000Y-72390000D03*
X68580000Y-68590000D03*
X69850000Y-70490000D03*
X69850000Y-66690000D03*
X71120000Y-72390000D03*
X71120000Y-68590000D03*
X72390000Y-70490000D03*
X72390000Y-66690000D03*
X73660000Y-72390000D03*
X73660000Y-68590000D03*
X74930000Y-70490000D03*
X74930000Y-66690000D03*
X76200000Y-72390000D03*
X76200000Y-68590000D03*
X77470000Y-70490000D03*
X77470000Y-66690000D03*
X78740000Y-72390000D03*
X78740000Y-68590000D03*
X80010000Y-70490000D03*
X80010000Y-66690000D03*
X81280000Y-72390000D03*
X81280000Y-68590000D03*
X82550000Y-70490000D03*
X82550000Y-66690000D03*
X83820000Y-72390000D03*
X83820000Y-68590000D03*
X85090000Y-70490000D03*
X85090000Y-66690000D03*
X86360000Y-72390000D03*
X86360000Y-68590000D03*
X87630000Y-70490000D03*
X87630000Y-66690000D03*
X88900000Y-72390000D03*
X88900000Y-68590000D03*
X90170000Y-70490000D03*
X90170000Y-66690000D03*
X91440000Y-72390000D03*
X91440000Y-68590000D03*
X92710000Y-70490000D03*
X92710000Y-66690000D03*
X93980000Y-72390000D03*
X93980000Y-68590000D03*
X95250000Y-70490000D03*
X95250000Y-66690000D03*
X96520000Y-72390000D03*
X96520000Y-68590000D03*
X97790000Y-70490000D03*
X97790000Y-66690000D03*
X99060000Y-72390000D03*
X99060000Y-68590000D03*
X100330000Y-70490000D03*
X100330000Y-66690000D03*
X101600000Y-72390000D03*
X101600000Y-68590000D03*
X102870000Y-70490000D03*
X102870000Y-66690000D03*
X104140000Y-72390000D03*
X104140000Y-68590000D03*
X105410000Y-70490000D03*
X105410000Y-66690000D03*
X106680000Y-72390000D03*
X106680000Y-68590000D03*
X107950000Y-70490000D03*
X107950000Y-66690000D03*
X109220000Y-72390000D03*
X109220000Y-68590000D03*
X110490000Y-70490000D03*
X110490000Y-66690000D03*
X111760000Y-72390000D03*
X111760000Y-68590000D03*
X113030000Y-70490000D03*
X113030000Y-66690000D03*
X114300000Y-72390000D03*
X114300000Y-68590000D03*
X115570000Y-70490000D03*
X115570000Y-66690000D03*
D12*
X95250000Y-97790000D03*
D13*
X92710000Y-97790000D03*
X90170000Y-97790000D03*
X87630000Y-97790000D03*
X85090000Y-97790000D03*
X82550000Y-97790000D03*
X80010000Y-97790000D03*
X77470000Y-97790000D03*
X74930000Y-97790000D03*
X72390000Y-97790000D03*
X69850000Y-97790000D03*
X67310000Y-97790000D03*
X64770000Y-97790000D03*
X62230000Y-97790000D03*
X59690000Y-97790000D03*
X57150000Y-97790000D03*
X67310000Y-77470000D03*
X69850000Y-77470000D03*
X72390000Y-77470000D03*
X74930000Y-77470000D03*
X77470000Y-77470000D03*
X80010000Y-77470000D03*
X82550000Y-77470000D03*
X85090000Y-77470000D03*
X87630000Y-77470000D03*
X90170000Y-77470000D03*
X92710000Y-77470000D03*
D12*
X95250000Y-77470000D03*
D14*
X111760000Y-72390000D02*
X111760000Y-79375000D01*
X111760000Y-79375000D02*
X106680000Y-84455000D01*
X106680000Y-84455000D02*
X80010000Y-84455000D01*
X80010000Y-84455000D02*
X77470000Y-81915000D01*
X77470000Y-81915000D02*
X77470000Y-77470000D01*
X101600000Y-72390000D02*
X101600000Y-78740000D01*
X101600000Y-78740000D02*
X97790000Y-82550000D01*
X97790000Y-82550000D02*
X82550000Y-82550000D01*
X82550000Y-82550000D02*
X80010000Y-80010000D01*
X80010000Y-80010000D02*
X80010000Y-77470000D01*
X93980000Y-72390000D02*
X90805000Y-75565000D01*
X82550000Y-76200000D02*
X82550000Y-77470000D01*
X90805000Y-75565000D02*
X83185000Y-75565000D01*
X83185000Y-75565000D02*
X82550000Y-76200000D01*
X91440000Y-72390000D02*
X88900000Y-74930000D01*
X75565000Y-74930000D02*
X74930000Y-75565000D01*
X88900000Y-74930000D02*
X75565000Y-74930000D01*
X74930000Y-75565000D02*
X74930000Y-77470000D01*
X99060000Y-72390000D02*
X99060000Y-78740000D01*
X99060000Y-78740000D02*
X97155000Y-80645000D01*
X97155000Y-80645000D02*
X89217500Y-80645000D01*
X89217500Y-80645000D02*
X87630000Y-79057500D01*
X87630000Y-79057500D02*
X87630000Y-77470000D01*
X97790000Y-70490000D02*
X97790000Y-73025000D01*
X97790000Y-73025000D02*
X95250000Y-75565000D01*
X95250000Y-75565000D02*
X93345000Y-75565000D01*
X93345000Y-75565000D02*
X92710000Y-76200000D01*
X92710000Y-76200000D02*
X86360000Y-76200000D01*
X86360000Y-76200000D02*
X85090000Y-77470000D01*
X78740000Y-72390000D02*
X77470000Y-73660000D01*
X61912500Y-73660000D02*
X59690000Y-75882500D01*
X77470000Y-73660000D02*
X61912500Y-73660000D01*
X59690000Y-75882500D02*
X59690000Y-97790000D01*
X82550000Y-97790000D02*
X82550000Y-94615000D01*
X82550000Y-94615000D02*
X81915000Y-93980000D01*
X87630000Y-73660000D02*
X87630000Y-70490000D01*
X81915000Y-93980000D02*
X62865000Y-93980000D01*
X62865000Y-93980000D02*
X60960000Y-92075000D01*
X60960000Y-92075000D02*
X60960000Y-76200000D01*
X60960000Y-76200000D02*
X62865000Y-74295000D01*
X62865000Y-74295000D02*
X86995000Y-74295000D01*
X86995000Y-74295000D02*
X87630000Y-73660000D01*
X113030000Y-70490000D02*
X113030000Y-71120000D01*
X113030000Y-71120000D02*
X111760000Y-72390000D01*
X102870000Y-70490000D02*
X102870000Y-71120000D01*
X102870000Y-71120000D02*
X101600000Y-72390000D01*
X90170000Y-70490000D02*
X90170000Y-71120000D01*
X90170000Y-71120000D02*
X91440000Y-72390000D01*
X81280000Y-72390000D02*
X81280000Y-71760000D01*
X81280000Y-71760000D02*
X80010000Y-70490000D01*
X80010000Y-70490000D02*
X80010000Y-71120000D01*
X80010000Y-71120000D02*
X78740000Y-72390000D01*
X77470000Y-70490000D02*
X77470000Y-71120000D01*
X77470000Y-71120000D02*
X78740000Y-72390000D01*
M02*
