G04 #@! TF.GenerationSoftware,KiCad,Pcbnew,(6.0.5-0)*
G04 #@! TF.CreationDate,2022-06-07T21:37:56+01:00*
G04 #@! TF.ProjectId,microbit_eink_feather_adaptor,6d696372-6f62-4697-945f-65696e6b5f66,rev?*
G04 #@! TF.SameCoordinates,Original*
G04 #@! TF.FileFunction,Legend,Top*
G04 #@! TF.FilePolarity,Positive*
%FSLAX46Y46*%
G04 Gerber Fmt 4.6, Leading zero omitted, Abs format (unit mm)*
G04 Created by KiCad (PCBNEW (6.0.5-0)) date 2022-06-07 21:37:56*
%MOMM*%
%LPD*%
G01*
G04 APERTURE LIST*
%ADD10C,0.150000*%
%ADD11C,0.100000*%
%ADD12C,2.700000*%
%ADD13R,1.500000X1.500000*%
%ADD14C,1.500000*%
%ADD15R,1.700000X1.700000*%
%ADD16O,1.700000X1.700000*%
G04 APERTURE END LIST*
D10*
X56815254Y-94020052D02*
X56922397Y-94055766D01*
X56958111Y-94091481D01*
X56993825Y-94162909D01*
X56993825Y-94270052D01*
X56958111Y-94341481D01*
X56922397Y-94377195D01*
X56850968Y-94412909D01*
X56565254Y-94412909D01*
X56565254Y-93662909D01*
X56815254Y-93662909D01*
X56886683Y-93698624D01*
X56922397Y-93734338D01*
X56958111Y-93805766D01*
X56958111Y-93877195D01*
X56922397Y-93948624D01*
X56886683Y-93984338D01*
X56815254Y-94020052D01*
X56565254Y-94020052D01*
X57743825Y-94412909D02*
X57493825Y-94055766D01*
X57315254Y-94412909D02*
X57315254Y-93662909D01*
X57600968Y-93662909D01*
X57672397Y-93698624D01*
X57708111Y-93734338D01*
X57743825Y-93805766D01*
X57743825Y-93912909D01*
X57708111Y-93984338D01*
X57672397Y-94020052D01*
X57600968Y-94055766D01*
X57315254Y-94055766D01*
X59118571Y-91791285D02*
X59582857Y-91791285D01*
X59332857Y-92077000D01*
X59440000Y-92077000D01*
X59511428Y-92112714D01*
X59547142Y-92148428D01*
X59582857Y-92219857D01*
X59582857Y-92398428D01*
X59547142Y-92469857D01*
X59511428Y-92505571D01*
X59440000Y-92541285D01*
X59225714Y-92541285D01*
X59154285Y-92505571D01*
X59118571Y-92469857D01*
X59797142Y-91791285D02*
X60047142Y-92541285D01*
X60297142Y-91791285D01*
X58748111Y-93662909D02*
X59212397Y-93662909D01*
X58962397Y-93948624D01*
X59069540Y-93948624D01*
X59140968Y-93984338D01*
X59176683Y-94020052D01*
X59212397Y-94091481D01*
X59212397Y-94270052D01*
X59176683Y-94341481D01*
X59140968Y-94377195D01*
X59069540Y-94412909D01*
X58855254Y-94412909D01*
X58783825Y-94377195D01*
X58748111Y-94341481D01*
X59426683Y-93662909D02*
X59676683Y-94412909D01*
X59926683Y-93662909D01*
X60105254Y-93662909D02*
X60569540Y-93662909D01*
X60319540Y-93948624D01*
X60426683Y-93948624D01*
X60498111Y-93984338D01*
X60533825Y-94020052D01*
X60569540Y-94091481D01*
X60569540Y-94270052D01*
X60533825Y-94341481D01*
X60498111Y-94377195D01*
X60426683Y-94412909D01*
X60212397Y-94412909D01*
X60140968Y-94377195D01*
X60105254Y-94341481D01*
X64198571Y-91827000D02*
X64127142Y-91791285D01*
X64020000Y-91791285D01*
X63912857Y-91827000D01*
X63841428Y-91898428D01*
X63805714Y-91969857D01*
X63770000Y-92112714D01*
X63770000Y-92219857D01*
X63805714Y-92362714D01*
X63841428Y-92434142D01*
X63912857Y-92505571D01*
X64020000Y-92541285D01*
X64091428Y-92541285D01*
X64198571Y-92505571D01*
X64234285Y-92469857D01*
X64234285Y-92219857D01*
X64091428Y-92219857D01*
X64555714Y-92541285D02*
X64555714Y-91791285D01*
X64984285Y-92541285D01*
X64984285Y-91791285D01*
X65341428Y-92541285D02*
X65341428Y-91791285D01*
X65520000Y-91791285D01*
X65627142Y-91827000D01*
X65698571Y-91898428D01*
X65734285Y-91969857D01*
X65770000Y-92112714D01*
X65770000Y-92219857D01*
X65734285Y-92362714D01*
X65698571Y-92434142D01*
X65627142Y-92505571D01*
X65520000Y-92541285D01*
X65341428Y-92541285D01*
X64185254Y-93698624D02*
X64113825Y-93662909D01*
X64006683Y-93662909D01*
X63899540Y-93698624D01*
X63828111Y-93770052D01*
X63792397Y-93841481D01*
X63756683Y-93984338D01*
X63756683Y-94091481D01*
X63792397Y-94234338D01*
X63828111Y-94305766D01*
X63899540Y-94377195D01*
X64006683Y-94412909D01*
X64078111Y-94412909D01*
X64185254Y-94377195D01*
X64220968Y-94341481D01*
X64220968Y-94091481D01*
X64078111Y-94091481D01*
X64542397Y-94412909D02*
X64542397Y-93662909D01*
X64970968Y-94412909D01*
X64970968Y-93662909D01*
X65328111Y-94412909D02*
X65328111Y-93662909D01*
X65506683Y-93662909D01*
X65613825Y-93698624D01*
X65685254Y-93770052D01*
X65720968Y-93841481D01*
X65756683Y-93984338D01*
X65756683Y-94091481D01*
X65720968Y-94234338D01*
X65685254Y-94305766D01*
X65613825Y-94377195D01*
X65506683Y-94412909D01*
X65328111Y-94412909D01*
X81639285Y-92541285D02*
X81639285Y-91791285D01*
X81925000Y-91791285D01*
X81996428Y-91827000D01*
X82032142Y-91862714D01*
X82067857Y-91934142D01*
X82067857Y-92041285D01*
X82032142Y-92112714D01*
X81996428Y-92148428D01*
X81925000Y-92184142D01*
X81639285Y-92184142D01*
X82782142Y-92541285D02*
X82353571Y-92541285D01*
X82567857Y-92541285D02*
X82567857Y-91791285D01*
X82496428Y-91898428D01*
X82425000Y-91969857D01*
X82353571Y-92005571D01*
X83032142Y-91791285D02*
X83496428Y-91791285D01*
X83246428Y-92077000D01*
X83353571Y-92077000D01*
X83425000Y-92112714D01*
X83460714Y-92148428D01*
X83496428Y-92219857D01*
X83496428Y-92398428D01*
X83460714Y-92469857D01*
X83425000Y-92505571D01*
X83353571Y-92541285D01*
X83139285Y-92541285D01*
X83067857Y-92505571D01*
X83032142Y-92469857D01*
X81572397Y-94377195D02*
X81679540Y-94412909D01*
X81858111Y-94412909D01*
X81929540Y-94377195D01*
X81965254Y-94341481D01*
X82000968Y-94270052D01*
X82000968Y-94198624D01*
X81965254Y-94127195D01*
X81929540Y-94091481D01*
X81858111Y-94055766D01*
X81715254Y-94020052D01*
X81643825Y-93984338D01*
X81608111Y-93948624D01*
X81572397Y-93877195D01*
X81572397Y-93805766D01*
X81608111Y-93734338D01*
X81643825Y-93698624D01*
X81715254Y-93662909D01*
X81893825Y-93662909D01*
X82000968Y-93698624D01*
X82750968Y-94341481D02*
X82715254Y-94377195D01*
X82608111Y-94412909D01*
X82536683Y-94412909D01*
X82429540Y-94377195D01*
X82358111Y-94305766D01*
X82322397Y-94234338D01*
X82286683Y-94091481D01*
X82286683Y-93984338D01*
X82322397Y-93841481D01*
X82358111Y-93770052D01*
X82429540Y-93698624D01*
X82536683Y-93662909D01*
X82608111Y-93662909D01*
X82715254Y-93698624D01*
X82750968Y-93734338D01*
X83072397Y-94412909D02*
X83072397Y-93662909D01*
X83500968Y-94412909D02*
X83179540Y-93984338D01*
X83500968Y-93662909D02*
X83072397Y-94091481D01*
X84179285Y-92541285D02*
X84179285Y-91791285D01*
X84465000Y-91791285D01*
X84536428Y-91827000D01*
X84572142Y-91862714D01*
X84607857Y-91934142D01*
X84607857Y-92041285D01*
X84572142Y-92112714D01*
X84536428Y-92148428D01*
X84465000Y-92184142D01*
X84179285Y-92184142D01*
X85322142Y-92541285D02*
X84893571Y-92541285D01*
X85107857Y-92541285D02*
X85107857Y-91791285D01*
X85036428Y-91898428D01*
X84965000Y-91969857D01*
X84893571Y-92005571D01*
X86000714Y-91791285D02*
X85643571Y-91791285D01*
X85607857Y-92148428D01*
X85643571Y-92112714D01*
X85715000Y-92077000D01*
X85893571Y-92077000D01*
X85965000Y-92112714D01*
X86000714Y-92148428D01*
X86036428Y-92219857D01*
X86036428Y-92398428D01*
X86000714Y-92469857D01*
X85965000Y-92505571D01*
X85893571Y-92541285D01*
X85715000Y-92541285D01*
X85643571Y-92505571D01*
X85607857Y-92469857D01*
D11*
X84290968Y-94299814D02*
X84290968Y-93799814D01*
X84457635Y-94156957D01*
X84624302Y-93799814D01*
X84624302Y-94299814D01*
X84957635Y-93799814D02*
X85052873Y-93799814D01*
X85100492Y-93823624D01*
X85148111Y-93871243D01*
X85171921Y-93966481D01*
X85171921Y-94133147D01*
X85148111Y-94228385D01*
X85100492Y-94276004D01*
X85052873Y-94299814D01*
X84957635Y-94299814D01*
X84910016Y-94276004D01*
X84862397Y-94228385D01*
X84838587Y-94133147D01*
X84838587Y-93966481D01*
X84862397Y-93871243D01*
X84910016Y-93823624D01*
X84957635Y-93799814D01*
X85362397Y-94276004D02*
X85433825Y-94299814D01*
X85552873Y-94299814D01*
X85600492Y-94276004D01*
X85624302Y-94252195D01*
X85648111Y-94204576D01*
X85648111Y-94156957D01*
X85624302Y-94109338D01*
X85600492Y-94085528D01*
X85552873Y-94061719D01*
X85457635Y-94037909D01*
X85410016Y-94014100D01*
X85386206Y-93990290D01*
X85362397Y-93942671D01*
X85362397Y-93895052D01*
X85386206Y-93847433D01*
X85410016Y-93823624D01*
X85457635Y-93799814D01*
X85576683Y-93799814D01*
X85648111Y-93823624D01*
X85862397Y-94299814D02*
X85862397Y-93799814D01*
D10*
X86719285Y-92541285D02*
X86719285Y-91791285D01*
X87005000Y-91791285D01*
X87076428Y-91827000D01*
X87112142Y-91862714D01*
X87147857Y-91934142D01*
X87147857Y-92041285D01*
X87112142Y-92112714D01*
X87076428Y-92148428D01*
X87005000Y-92184142D01*
X86719285Y-92184142D01*
X87862142Y-92541285D02*
X87433571Y-92541285D01*
X87647857Y-92541285D02*
X87647857Y-91791285D01*
X87576428Y-91898428D01*
X87505000Y-91969857D01*
X87433571Y-92005571D01*
X88505000Y-92041285D02*
X88505000Y-92541285D01*
X88326428Y-91755571D02*
X88147857Y-92291285D01*
X88612142Y-92291285D01*
X104112934Y-93034003D02*
X55880000Y-93218000D01*
X104181154Y-94987128D02*
X55880000Y-94909596D01*
X99464016Y-94284494D02*
X99392588Y-94320208D01*
X99249730Y-94320208D01*
X99178302Y-94284494D01*
X99142588Y-94213065D01*
X99142588Y-93927351D01*
X99178302Y-93855923D01*
X99249730Y-93820208D01*
X99392588Y-93820208D01*
X99464016Y-93855923D01*
X99499730Y-93927351D01*
X99499730Y-93998780D01*
X99142588Y-94070208D01*
X99821159Y-94320208D02*
X99821159Y-93570208D01*
X100178302Y-93820208D02*
X100178302Y-94320208D01*
X100178302Y-93891637D02*
X100214016Y-93855923D01*
X100285445Y-93820208D01*
X100392588Y-93820208D01*
X100464016Y-93855923D01*
X100499730Y-93927351D01*
X100499730Y-94320208D01*
X100856873Y-94320208D02*
X100856873Y-93570208D01*
X100928302Y-94034494D02*
X101142588Y-94320208D01*
X101142588Y-93820208D02*
X100856873Y-94105923D01*
X99152332Y-92514399D02*
X99152332Y-92014399D01*
X99152332Y-92085828D02*
X99188046Y-92050114D01*
X99259475Y-92014399D01*
X99366618Y-92014399D01*
X99438046Y-92050114D01*
X99473761Y-92121542D01*
X99473761Y-92514399D01*
X99473761Y-92121542D02*
X99509475Y-92050114D01*
X99580904Y-92014399D01*
X99688046Y-92014399D01*
X99759475Y-92050114D01*
X99795189Y-92121542D01*
X99795189Y-92514399D01*
X100152332Y-92514399D02*
X100152332Y-92014399D01*
X100152332Y-91764399D02*
X100116618Y-91800114D01*
X100152332Y-91835828D01*
X100188046Y-91800114D01*
X100152332Y-91764399D01*
X100152332Y-91835828D01*
X100830904Y-92478685D02*
X100759475Y-92514399D01*
X100616618Y-92514399D01*
X100545189Y-92478685D01*
X100509475Y-92442971D01*
X100473761Y-92371542D01*
X100473761Y-92157256D01*
X100509475Y-92085828D01*
X100545189Y-92050114D01*
X100616618Y-92014399D01*
X100759475Y-92014399D01*
X100830904Y-92050114D01*
X101152332Y-92514399D02*
X101152332Y-92014399D01*
X101152332Y-92157256D02*
X101188046Y-92085828D01*
X101223761Y-92050114D01*
X101295189Y-92014399D01*
X101366618Y-92014399D01*
X101723761Y-92514399D02*
X101652332Y-92478685D01*
X101616618Y-92442971D01*
X101580904Y-92371542D01*
X101580904Y-92157256D01*
X101616618Y-92085828D01*
X101652332Y-92050114D01*
X101723761Y-92014399D01*
X101830904Y-92014399D01*
X101902332Y-92050114D01*
X101938046Y-92085828D01*
X101973761Y-92157256D01*
X101973761Y-92371542D01*
X101938046Y-92442971D01*
X101902332Y-92478685D01*
X101830904Y-92514399D01*
X101723761Y-92514399D01*
X102295189Y-92442971D02*
X102330904Y-92478685D01*
X102295189Y-92514399D01*
X102259475Y-92478685D01*
X102295189Y-92442971D01*
X102295189Y-92514399D01*
X102295189Y-92050114D02*
X102330904Y-92085828D01*
X102295189Y-92121542D01*
X102259475Y-92085828D01*
X102295189Y-92050114D01*
X102295189Y-92121542D01*
X102652332Y-92514399D02*
X102652332Y-91764399D01*
X102652332Y-92050114D02*
X102723761Y-92014399D01*
X102866618Y-92014399D01*
X102938046Y-92050114D01*
X102973761Y-92085828D01*
X103009475Y-92157256D01*
X103009475Y-92371542D01*
X102973761Y-92442971D01*
X102938046Y-92478685D01*
X102866618Y-92514399D01*
X102723761Y-92514399D01*
X102652332Y-92478685D01*
X103330904Y-92514399D02*
X103330904Y-92014399D01*
X103330904Y-91764399D02*
X103295189Y-91800114D01*
X103330904Y-91835828D01*
X103366618Y-91800114D01*
X103330904Y-91764399D01*
X103330904Y-91835828D01*
X103580904Y-92014399D02*
X103866618Y-92014399D01*
X103688046Y-91764399D02*
X103688046Y-92407256D01*
X103723761Y-92478685D01*
X103795189Y-92514399D01*
X103866618Y-92514399D01*
X99401194Y-95831658D02*
X99151194Y-95831658D01*
X99151194Y-96224515D02*
X99151194Y-95474515D01*
X99508337Y-95474515D01*
X100079766Y-96188801D02*
X100008337Y-96224515D01*
X99865480Y-96224515D01*
X99794051Y-96188801D01*
X99758337Y-96117372D01*
X99758337Y-95831658D01*
X99794051Y-95760230D01*
X99865480Y-95724515D01*
X100008337Y-95724515D01*
X100079766Y-95760230D01*
X100115480Y-95831658D01*
X100115480Y-95903087D01*
X99758337Y-95974515D01*
X100758337Y-96224515D02*
X100758337Y-95831658D01*
X100722623Y-95760230D01*
X100651194Y-95724515D01*
X100508337Y-95724515D01*
X100436909Y-95760230D01*
X100758337Y-96188801D02*
X100686909Y-96224515D01*
X100508337Y-96224515D01*
X100436909Y-96188801D01*
X100401194Y-96117372D01*
X100401194Y-96045944D01*
X100436909Y-95974515D01*
X100508337Y-95938801D01*
X100686909Y-95938801D01*
X100758337Y-95903087D01*
X101008337Y-95724515D02*
X101294051Y-95724515D01*
X101115480Y-95474515D02*
X101115480Y-96117372D01*
X101151194Y-96188801D01*
X101222623Y-96224515D01*
X101294051Y-96224515D01*
X101544051Y-96224515D02*
X101544051Y-95474515D01*
X101865480Y-96224515D02*
X101865480Y-95831658D01*
X101829766Y-95760230D01*
X101758337Y-95724515D01*
X101651194Y-95724515D01*
X101579766Y-95760230D01*
X101544051Y-95795944D01*
X102508337Y-96188801D02*
X102436909Y-96224515D01*
X102294051Y-96224515D01*
X102222623Y-96188801D01*
X102186909Y-96117372D01*
X102186909Y-95831658D01*
X102222623Y-95760230D01*
X102294051Y-95724515D01*
X102436909Y-95724515D01*
X102508337Y-95760230D01*
X102544051Y-95831658D01*
X102544051Y-95903087D01*
X102186909Y-95974515D01*
X102865480Y-96224515D02*
X102865480Y-95724515D01*
X102865480Y-95867372D02*
X102901194Y-95795944D01*
X102936909Y-95760230D01*
X103008337Y-95724515D01*
X103079766Y-95724515D01*
D11*
X86830968Y-94299814D02*
X86830968Y-93799814D01*
X86997635Y-94156957D01*
X87164302Y-93799814D01*
X87164302Y-94299814D01*
X87402397Y-94299814D02*
X87402397Y-93799814D01*
X87616683Y-94276004D02*
X87688111Y-94299814D01*
X87807159Y-94299814D01*
X87854778Y-94276004D01*
X87878587Y-94252195D01*
X87902397Y-94204576D01*
X87902397Y-94156957D01*
X87878587Y-94109338D01*
X87854778Y-94085528D01*
X87807159Y-94061719D01*
X87711921Y-94037909D01*
X87664302Y-94014100D01*
X87640492Y-93990290D01*
X87616683Y-93942671D01*
X87616683Y-93895052D01*
X87640492Y-93847433D01*
X87664302Y-93823624D01*
X87711921Y-93799814D01*
X87830968Y-93799814D01*
X87902397Y-93823624D01*
X88211921Y-93799814D02*
X88307159Y-93799814D01*
X88354778Y-93823624D01*
X88402397Y-93871243D01*
X88426206Y-93966481D01*
X88426206Y-94133147D01*
X88402397Y-94228385D01*
X88354778Y-94276004D01*
X88307159Y-94299814D01*
X88211921Y-94299814D01*
X88164302Y-94276004D01*
X88116683Y-94228385D01*
X88092873Y-94133147D01*
X88092873Y-93966481D01*
X88116683Y-93871243D01*
X88164302Y-93823624D01*
X88211921Y-93799814D01*
D10*
X99390131Y-79333146D02*
X99140131Y-79333146D01*
X99140131Y-79726003D02*
X99140131Y-78976003D01*
X99497274Y-78976003D01*
X100068703Y-79690289D02*
X99997274Y-79726003D01*
X99854417Y-79726003D01*
X99782988Y-79690289D01*
X99747274Y-79618860D01*
X99747274Y-79333146D01*
X99782988Y-79261718D01*
X99854417Y-79226003D01*
X99997274Y-79226003D01*
X100068703Y-79261718D01*
X100104417Y-79333146D01*
X100104417Y-79404575D01*
X99747274Y-79476003D01*
X100747274Y-79726003D02*
X100747274Y-79333146D01*
X100711560Y-79261718D01*
X100640131Y-79226003D01*
X100497274Y-79226003D01*
X100425846Y-79261718D01*
X100747274Y-79690289D02*
X100675846Y-79726003D01*
X100497274Y-79726003D01*
X100425846Y-79690289D01*
X100390131Y-79618860D01*
X100390131Y-79547432D01*
X100425846Y-79476003D01*
X100497274Y-79440289D01*
X100675846Y-79440289D01*
X100747274Y-79404575D01*
X100997274Y-79226003D02*
X101282988Y-79226003D01*
X101104417Y-78976003D02*
X101104417Y-79618860D01*
X101140131Y-79690289D01*
X101211560Y-79726003D01*
X101282988Y-79726003D01*
X101532988Y-79726003D02*
X101532988Y-78976003D01*
X101854417Y-79726003D02*
X101854417Y-79333146D01*
X101818703Y-79261718D01*
X101747274Y-79226003D01*
X101640131Y-79226003D01*
X101568703Y-79261718D01*
X101532988Y-79297432D01*
X102497274Y-79690289D02*
X102425846Y-79726003D01*
X102282988Y-79726003D01*
X102211560Y-79690289D01*
X102175846Y-79618860D01*
X102175846Y-79333146D01*
X102211560Y-79261718D01*
X102282988Y-79226003D01*
X102425846Y-79226003D01*
X102497274Y-79261718D01*
X102532988Y-79333146D01*
X102532988Y-79404575D01*
X102175846Y-79476003D01*
X102854417Y-79726003D02*
X102854417Y-79226003D01*
X102854417Y-79368860D02*
X102890131Y-79297432D01*
X102925846Y-79261718D01*
X102997274Y-79226003D01*
X103068703Y-79226003D01*
X104071780Y-80342875D02*
X66040000Y-80342875D01*
X99101472Y-83498515D02*
X99101472Y-82998515D01*
X99101472Y-83069944D02*
X99137186Y-83034230D01*
X99208615Y-82998515D01*
X99315758Y-82998515D01*
X99387186Y-83034230D01*
X99422901Y-83105658D01*
X99422901Y-83498515D01*
X99422901Y-83105658D02*
X99458615Y-83034230D01*
X99530044Y-82998515D01*
X99637186Y-82998515D01*
X99708615Y-83034230D01*
X99744329Y-83105658D01*
X99744329Y-83498515D01*
X100101472Y-83498515D02*
X100101472Y-82998515D01*
X100101472Y-82748515D02*
X100065758Y-82784230D01*
X100101472Y-82819944D01*
X100137186Y-82784230D01*
X100101472Y-82748515D01*
X100101472Y-82819944D01*
X100780044Y-83462801D02*
X100708615Y-83498515D01*
X100565758Y-83498515D01*
X100494329Y-83462801D01*
X100458615Y-83427087D01*
X100422901Y-83355658D01*
X100422901Y-83141372D01*
X100458615Y-83069944D01*
X100494329Y-83034230D01*
X100565758Y-82998515D01*
X100708615Y-82998515D01*
X100780044Y-83034230D01*
X101101472Y-83498515D02*
X101101472Y-82998515D01*
X101101472Y-83141372D02*
X101137186Y-83069944D01*
X101172901Y-83034230D01*
X101244329Y-82998515D01*
X101315758Y-82998515D01*
X101672901Y-83498515D02*
X101601472Y-83462801D01*
X101565758Y-83427087D01*
X101530044Y-83355658D01*
X101530044Y-83141372D01*
X101565758Y-83069944D01*
X101601472Y-83034230D01*
X101672901Y-82998515D01*
X101780044Y-82998515D01*
X101851472Y-83034230D01*
X101887186Y-83069944D01*
X101922901Y-83141372D01*
X101922901Y-83355658D01*
X101887186Y-83427087D01*
X101851472Y-83462801D01*
X101780044Y-83498515D01*
X101672901Y-83498515D01*
X102244329Y-83427087D02*
X102280044Y-83462801D01*
X102244329Y-83498515D01*
X102208615Y-83462801D01*
X102244329Y-83427087D01*
X102244329Y-83498515D01*
X102244329Y-83034230D02*
X102280044Y-83069944D01*
X102244329Y-83105658D01*
X102208615Y-83069944D01*
X102244329Y-83034230D01*
X102244329Y-83105658D01*
X102601472Y-83498515D02*
X102601472Y-82748515D01*
X102601472Y-83034230D02*
X102672901Y-82998515D01*
X102815758Y-82998515D01*
X102887186Y-83034230D01*
X102922901Y-83069944D01*
X102958615Y-83141372D01*
X102958615Y-83355658D01*
X102922901Y-83427087D01*
X102887186Y-83462801D01*
X102815758Y-83498515D01*
X102672901Y-83498515D01*
X102601472Y-83462801D01*
X103280044Y-83498515D02*
X103280044Y-82998515D01*
X103280044Y-82748515D02*
X103244329Y-82784230D01*
X103280044Y-82819944D01*
X103315758Y-82784230D01*
X103280044Y-82748515D01*
X103280044Y-82819944D01*
X103530044Y-82998515D02*
X103815758Y-82998515D01*
X103637186Y-82748515D02*
X103637186Y-83391372D01*
X103672901Y-83462801D01*
X103744329Y-83498515D01*
X103815758Y-83498515D01*
X99453970Y-81592443D02*
X99382542Y-81628157D01*
X99239684Y-81628157D01*
X99168256Y-81592443D01*
X99132542Y-81521014D01*
X99132542Y-81235300D01*
X99168256Y-81163872D01*
X99239684Y-81128157D01*
X99382542Y-81128157D01*
X99453970Y-81163872D01*
X99489684Y-81235300D01*
X99489684Y-81306729D01*
X99132542Y-81378157D01*
X99811113Y-81628157D02*
X99811113Y-80878157D01*
X100168256Y-81128157D02*
X100168256Y-81628157D01*
X100168256Y-81199586D02*
X100203970Y-81163872D01*
X100275399Y-81128157D01*
X100382542Y-81128157D01*
X100453970Y-81163872D01*
X100489684Y-81235300D01*
X100489684Y-81628157D01*
X100846827Y-81628157D02*
X100846827Y-80878157D01*
X100918256Y-81342443D02*
X101132542Y-81628157D01*
X101132542Y-81128157D02*
X100846827Y-81413872D01*
X104140000Y-82296000D02*
X66040000Y-82218468D01*
X74376428Y-83524285D02*
X74376428Y-82774285D01*
X74662142Y-82774285D01*
X74733571Y-82810000D01*
X74769285Y-82845714D01*
X74805000Y-82917142D01*
X74805000Y-83024285D01*
X74769285Y-83095714D01*
X74733571Y-83131428D01*
X74662142Y-83167142D01*
X74376428Y-83167142D01*
X75090714Y-82845714D02*
X75126428Y-82810000D01*
X75197857Y-82774285D01*
X75376428Y-82774285D01*
X75447857Y-82810000D01*
X75483571Y-82845714D01*
X75519285Y-82917142D01*
X75519285Y-82988571D01*
X75483571Y-83095714D01*
X75055000Y-83524285D01*
X75519285Y-83524285D01*
X74608571Y-81226428D02*
X74715714Y-81262142D01*
X74751428Y-81297857D01*
X74787142Y-81369285D01*
X74787142Y-81476428D01*
X74751428Y-81547857D01*
X74715714Y-81583571D01*
X74644285Y-81619285D01*
X74358571Y-81619285D01*
X74358571Y-80869285D01*
X74608571Y-80869285D01*
X74680000Y-80905000D01*
X74715714Y-80940714D01*
X74751428Y-81012142D01*
X74751428Y-81083571D01*
X74715714Y-81155000D01*
X74680000Y-81190714D01*
X74608571Y-81226428D01*
X74358571Y-81226428D01*
X75537142Y-81547857D02*
X75501428Y-81583571D01*
X75394285Y-81619285D01*
X75322857Y-81619285D01*
X75215714Y-81583571D01*
X75144285Y-81512142D01*
X75108571Y-81440714D01*
X75072857Y-81297857D01*
X75072857Y-81190714D01*
X75108571Y-81047857D01*
X75144285Y-80976428D01*
X75215714Y-80905000D01*
X75322857Y-80869285D01*
X75394285Y-80869285D01*
X75501428Y-80905000D01*
X75537142Y-80940714D01*
X76916428Y-83524285D02*
X76916428Y-82774285D01*
X77202142Y-82774285D01*
X77273571Y-82810000D01*
X77309285Y-82845714D01*
X77345000Y-82917142D01*
X77345000Y-83024285D01*
X77309285Y-83095714D01*
X77273571Y-83131428D01*
X77202142Y-83167142D01*
X76916428Y-83167142D01*
X77809285Y-82774285D02*
X77880714Y-82774285D01*
X77952142Y-82810000D01*
X77987857Y-82845714D01*
X78023571Y-82917142D01*
X78059285Y-83060000D01*
X78059285Y-83238571D01*
X78023571Y-83381428D01*
X77987857Y-83452857D01*
X77952142Y-83488571D01*
X77880714Y-83524285D01*
X77809285Y-83524285D01*
X77737857Y-83488571D01*
X77702142Y-83452857D01*
X77666428Y-83381428D01*
X77630714Y-83238571D01*
X77630714Y-83060000D01*
X77666428Y-82917142D01*
X77702142Y-82845714D01*
X77737857Y-82810000D01*
X77809285Y-82774285D01*
X77148571Y-81226428D02*
X77255714Y-81262142D01*
X77291428Y-81297857D01*
X77327142Y-81369285D01*
X77327142Y-81476428D01*
X77291428Y-81547857D01*
X77255714Y-81583571D01*
X77184285Y-81619285D01*
X76898571Y-81619285D01*
X76898571Y-80869285D01*
X77148571Y-80869285D01*
X77220000Y-80905000D01*
X77255714Y-80940714D01*
X77291428Y-81012142D01*
X77291428Y-81083571D01*
X77255714Y-81155000D01*
X77220000Y-81190714D01*
X77148571Y-81226428D01*
X76898571Y-81226428D01*
X77898571Y-81226428D02*
X78005714Y-81262142D01*
X78041428Y-81297857D01*
X78077142Y-81369285D01*
X78077142Y-81476428D01*
X78041428Y-81547857D01*
X78005714Y-81583571D01*
X77934285Y-81619285D01*
X77648571Y-81619285D01*
X77648571Y-80869285D01*
X77898571Y-80869285D01*
X77970000Y-80905000D01*
X78005714Y-80940714D01*
X78041428Y-81012142D01*
X78041428Y-81083571D01*
X78005714Y-81155000D01*
X77970000Y-81190714D01*
X77898571Y-81226428D01*
X77648571Y-81226428D01*
X79456428Y-83524285D02*
X79456428Y-82774285D01*
X79742142Y-82774285D01*
X79813571Y-82810000D01*
X79849285Y-82845714D01*
X79885000Y-82917142D01*
X79885000Y-83024285D01*
X79849285Y-83095714D01*
X79813571Y-83131428D01*
X79742142Y-83167142D01*
X79456428Y-83167142D01*
X80599285Y-83524285D02*
X80170714Y-83524285D01*
X80385000Y-83524285D02*
X80385000Y-82774285D01*
X80313571Y-82881428D01*
X80242142Y-82952857D01*
X80170714Y-82988571D01*
X79742142Y-81226428D02*
X79849285Y-81262142D01*
X79885000Y-81297857D01*
X79920714Y-81369285D01*
X79920714Y-81476428D01*
X79885000Y-81547857D01*
X79849285Y-81583571D01*
X79777857Y-81619285D01*
X79492142Y-81619285D01*
X79492142Y-80869285D01*
X79742142Y-80869285D01*
X79813571Y-80905000D01*
X79849285Y-80940714D01*
X79885000Y-81012142D01*
X79885000Y-81083571D01*
X79849285Y-81155000D01*
X79813571Y-81190714D01*
X79742142Y-81226428D01*
X79492142Y-81226428D01*
X80206428Y-81405000D02*
X80563571Y-81405000D01*
X80135000Y-81619285D02*
X80385000Y-80869285D01*
X80635000Y-81619285D01*
X81632824Y-83484395D02*
X81632824Y-82734395D01*
X81918539Y-82734395D01*
X81989967Y-82770110D01*
X82025681Y-82805824D01*
X82061396Y-82877252D01*
X82061396Y-82984395D01*
X82025681Y-83055824D01*
X81989967Y-83091538D01*
X81918539Y-83127252D01*
X81632824Y-83127252D01*
X82775681Y-83484395D02*
X82347110Y-83484395D01*
X82561396Y-83484395D02*
X82561396Y-82734395D01*
X82489967Y-82841538D01*
X82418539Y-82912967D01*
X82347110Y-82948681D01*
X83061396Y-82805824D02*
X83097110Y-82770110D01*
X83168539Y-82734395D01*
X83347110Y-82734395D01*
X83418539Y-82770110D01*
X83454253Y-82805824D01*
X83489967Y-82877252D01*
X83489967Y-82948681D01*
X83454253Y-83055824D01*
X83025681Y-83484395D01*
X83489967Y-83484395D01*
X81585714Y-81619285D02*
X81585714Y-80869285D01*
X81764285Y-80869285D01*
X81871428Y-80905000D01*
X81942857Y-80976428D01*
X81978571Y-81047857D01*
X82014285Y-81190714D01*
X82014285Y-81297857D01*
X81978571Y-81440714D01*
X81942857Y-81512142D01*
X81871428Y-81583571D01*
X81764285Y-81619285D01*
X81585714Y-81619285D01*
X82871428Y-80833571D02*
X82228571Y-81797857D01*
X83550000Y-81547857D02*
X83514285Y-81583571D01*
X83407142Y-81619285D01*
X83335714Y-81619285D01*
X83228571Y-81583571D01*
X83157142Y-81512142D01*
X83121428Y-81440714D01*
X83085714Y-81297857D01*
X83085714Y-81190714D01*
X83121428Y-81047857D01*
X83157142Y-80976428D01*
X83228571Y-80905000D01*
X83335714Y-80869285D01*
X83407142Y-80869285D01*
X83514285Y-80905000D01*
X83550000Y-80940714D01*
X84536428Y-83524285D02*
X84536428Y-82774285D01*
X84822142Y-82774285D01*
X84893571Y-82810000D01*
X84929285Y-82845714D01*
X84965000Y-82917142D01*
X84965000Y-83024285D01*
X84929285Y-83095714D01*
X84893571Y-83131428D01*
X84822142Y-83167142D01*
X84536428Y-83167142D01*
X85322142Y-83524285D02*
X85465000Y-83524285D01*
X85536428Y-83488571D01*
X85572142Y-83452857D01*
X85643571Y-83345714D01*
X85679285Y-83202857D01*
X85679285Y-82917142D01*
X85643571Y-82845714D01*
X85607857Y-82810000D01*
X85536428Y-82774285D01*
X85393571Y-82774285D01*
X85322142Y-82810000D01*
X85286428Y-82845714D01*
X85250714Y-82917142D01*
X85250714Y-83095714D01*
X85286428Y-83167142D01*
X85322142Y-83202857D01*
X85393571Y-83238571D01*
X85536428Y-83238571D01*
X85607857Y-83202857D01*
X85643571Y-83167142D01*
X85679285Y-83095714D01*
X84197142Y-81226428D02*
X84447142Y-81226428D01*
X84554285Y-81619285D02*
X84197142Y-81619285D01*
X84197142Y-80869285D01*
X84554285Y-80869285D01*
X85304285Y-81547857D02*
X85268571Y-81583571D01*
X85161428Y-81619285D01*
X85090000Y-81619285D01*
X84982857Y-81583571D01*
X84911428Y-81512142D01*
X84875714Y-81440714D01*
X84840000Y-81297857D01*
X84840000Y-81190714D01*
X84875714Y-81047857D01*
X84911428Y-80976428D01*
X84982857Y-80905000D01*
X85090000Y-80869285D01*
X85161428Y-80869285D01*
X85268571Y-80905000D01*
X85304285Y-80940714D01*
X85590000Y-81583571D02*
X85697142Y-81619285D01*
X85875714Y-81619285D01*
X85947142Y-81583571D01*
X85982857Y-81547857D01*
X86018571Y-81476428D01*
X86018571Y-81405000D01*
X85982857Y-81333571D01*
X85947142Y-81297857D01*
X85875714Y-81262142D01*
X85732857Y-81226428D01*
X85661428Y-81190714D01*
X85625714Y-81155000D01*
X85590000Y-81083571D01*
X85590000Y-81012142D01*
X85625714Y-80940714D01*
X85661428Y-80905000D01*
X85732857Y-80869285D01*
X85911428Y-80869285D01*
X86018571Y-80905000D01*
X87076428Y-83524285D02*
X87076428Y-82774285D01*
X87362142Y-82774285D01*
X87433571Y-82810000D01*
X87469285Y-82845714D01*
X87505000Y-82917142D01*
X87505000Y-83024285D01*
X87469285Y-83095714D01*
X87433571Y-83131428D01*
X87362142Y-83167142D01*
X87076428Y-83167142D01*
X87933571Y-83095714D02*
X87862142Y-83060000D01*
X87826428Y-83024285D01*
X87790714Y-82952857D01*
X87790714Y-82917142D01*
X87826428Y-82845714D01*
X87862142Y-82810000D01*
X87933571Y-82774285D01*
X88076428Y-82774285D01*
X88147857Y-82810000D01*
X88183571Y-82845714D01*
X88219285Y-82917142D01*
X88219285Y-82952857D01*
X88183571Y-83024285D01*
X88147857Y-83060000D01*
X88076428Y-83095714D01*
X87933571Y-83095714D01*
X87862142Y-83131428D01*
X87826428Y-83167142D01*
X87790714Y-83238571D01*
X87790714Y-83381428D01*
X87826428Y-83452857D01*
X87862142Y-83488571D01*
X87933571Y-83524285D01*
X88076428Y-83524285D01*
X88147857Y-83488571D01*
X88183571Y-83452857D01*
X88219285Y-83381428D01*
X88219285Y-83238571D01*
X88183571Y-83167142D01*
X88147857Y-83131428D01*
X88076428Y-83095714D01*
D11*
X86749047Y-81482380D02*
X86820476Y-81506190D01*
X86939523Y-81506190D01*
X86987142Y-81482380D01*
X87010952Y-81458571D01*
X87034761Y-81410952D01*
X87034761Y-81363333D01*
X87010952Y-81315714D01*
X86987142Y-81291904D01*
X86939523Y-81268095D01*
X86844285Y-81244285D01*
X86796666Y-81220476D01*
X86772857Y-81196666D01*
X86749047Y-81149047D01*
X86749047Y-81101428D01*
X86772857Y-81053809D01*
X86796666Y-81030000D01*
X86844285Y-81006190D01*
X86963333Y-81006190D01*
X87034761Y-81030000D01*
X87534761Y-81506190D02*
X87368095Y-81268095D01*
X87249047Y-81506190D02*
X87249047Y-81006190D01*
X87439523Y-81006190D01*
X87487142Y-81030000D01*
X87510952Y-81053809D01*
X87534761Y-81101428D01*
X87534761Y-81172857D01*
X87510952Y-81220476D01*
X87487142Y-81244285D01*
X87439523Y-81268095D01*
X87249047Y-81268095D01*
X88034761Y-81458571D02*
X88010952Y-81482380D01*
X87939523Y-81506190D01*
X87891904Y-81506190D01*
X87820476Y-81482380D01*
X87772857Y-81434761D01*
X87749047Y-81387142D01*
X87725238Y-81291904D01*
X87725238Y-81220476D01*
X87749047Y-81125238D01*
X87772857Y-81077619D01*
X87820476Y-81030000D01*
X87891904Y-81006190D01*
X87939523Y-81006190D01*
X88010952Y-81030000D01*
X88034761Y-81053809D01*
X88225238Y-81482380D02*
X88296666Y-81506190D01*
X88415714Y-81506190D01*
X88463333Y-81482380D01*
X88487142Y-81458571D01*
X88510952Y-81410952D01*
X88510952Y-81363333D01*
X88487142Y-81315714D01*
X88463333Y-81291904D01*
X88415714Y-81268095D01*
X88320476Y-81244285D01*
X88272857Y-81220476D01*
X88249047Y-81196666D01*
X88225238Y-81149047D01*
X88225238Y-81101428D01*
X88249047Y-81053809D01*
X88272857Y-81030000D01*
X88320476Y-81006190D01*
X88439523Y-81006190D01*
X88510952Y-81030000D01*
D10*
X89259285Y-83524285D02*
X89259285Y-82774285D01*
X89545000Y-82774285D01*
X89616428Y-82810000D01*
X89652142Y-82845714D01*
X89687857Y-82917142D01*
X89687857Y-83024285D01*
X89652142Y-83095714D01*
X89616428Y-83131428D01*
X89545000Y-83167142D01*
X89259285Y-83167142D01*
X90402142Y-83524285D02*
X89973571Y-83524285D01*
X90187857Y-83524285D02*
X90187857Y-82774285D01*
X90116428Y-82881428D01*
X90045000Y-82952857D01*
X89973571Y-82988571D01*
X91045000Y-82774285D02*
X90902142Y-82774285D01*
X90830714Y-82810000D01*
X90795000Y-82845714D01*
X90723571Y-82952857D01*
X90687857Y-83095714D01*
X90687857Y-83381428D01*
X90723571Y-83452857D01*
X90759285Y-83488571D01*
X90830714Y-83524285D01*
X90973571Y-83524285D01*
X91045000Y-83488571D01*
X91080714Y-83452857D01*
X91116428Y-83381428D01*
X91116428Y-83202857D01*
X91080714Y-83131428D01*
X91045000Y-83095714D01*
X90973571Y-83060000D01*
X90830714Y-83060000D01*
X90759285Y-83095714D01*
X90723571Y-83131428D01*
X90687857Y-83202857D01*
D11*
X89289047Y-81482380D02*
X89360476Y-81506190D01*
X89479523Y-81506190D01*
X89527142Y-81482380D01*
X89550952Y-81458571D01*
X89574761Y-81410952D01*
X89574761Y-81363333D01*
X89550952Y-81315714D01*
X89527142Y-81291904D01*
X89479523Y-81268095D01*
X89384285Y-81244285D01*
X89336666Y-81220476D01*
X89312857Y-81196666D01*
X89289047Y-81149047D01*
X89289047Y-81101428D01*
X89312857Y-81053809D01*
X89336666Y-81030000D01*
X89384285Y-81006190D01*
X89503333Y-81006190D01*
X89574761Y-81030000D01*
X89789047Y-81506190D02*
X89789047Y-81006190D01*
X89908095Y-81006190D01*
X89979523Y-81030000D01*
X90027142Y-81077619D01*
X90050952Y-81125238D01*
X90074761Y-81220476D01*
X90074761Y-81291904D01*
X90050952Y-81387142D01*
X90027142Y-81434761D01*
X89979523Y-81482380D01*
X89908095Y-81506190D01*
X89789047Y-81506190D01*
X90574761Y-81458571D02*
X90550952Y-81482380D01*
X90479523Y-81506190D01*
X90431904Y-81506190D01*
X90360476Y-81482380D01*
X90312857Y-81434761D01*
X90289047Y-81387142D01*
X90265238Y-81291904D01*
X90265238Y-81220476D01*
X90289047Y-81125238D01*
X90312857Y-81077619D01*
X90360476Y-81030000D01*
X90431904Y-81006190D01*
X90479523Y-81006190D01*
X90550952Y-81030000D01*
X90574761Y-81053809D01*
X90765238Y-81482380D02*
X90836666Y-81506190D01*
X90955714Y-81506190D01*
X91003333Y-81482380D01*
X91027142Y-81458571D01*
X91050952Y-81410952D01*
X91050952Y-81363333D01*
X91027142Y-81315714D01*
X91003333Y-81291904D01*
X90955714Y-81268095D01*
X90860476Y-81244285D01*
X90812857Y-81220476D01*
X90789047Y-81196666D01*
X90765238Y-81149047D01*
X90765238Y-81101428D01*
X90789047Y-81053809D01*
X90812857Y-81030000D01*
X90860476Y-81006190D01*
X90979523Y-81006190D01*
X91050952Y-81030000D01*
D10*
X124206190Y-97242380D02*
X124539523Y-98242380D01*
X124872857Y-97242380D01*
X125730000Y-98242380D02*
X125158571Y-98242380D01*
X125444285Y-98242380D02*
X125444285Y-97242380D01*
X125349047Y-97385238D01*
X125253809Y-97480476D01*
X125158571Y-97528095D01*
X126158571Y-98147142D02*
X126206190Y-98194761D01*
X126158571Y-98242380D01*
X126110952Y-98194761D01*
X126158571Y-98147142D01*
X126158571Y-98242380D01*
X126825238Y-97242380D02*
X126920476Y-97242380D01*
X127015714Y-97290000D01*
X127063333Y-97337619D01*
X127110952Y-97432857D01*
X127158571Y-97623333D01*
X127158571Y-97861428D01*
X127110952Y-98051904D01*
X127063333Y-98147142D01*
X127015714Y-98194761D01*
X126920476Y-98242380D01*
X126825238Y-98242380D01*
X126730000Y-98194761D01*
X126682380Y-98147142D01*
X126634761Y-98051904D01*
X126587142Y-97861428D01*
X126587142Y-97623333D01*
X126634761Y-97432857D01*
X126682380Y-97337619D01*
X126730000Y-97290000D01*
X126825238Y-97242380D01*
X58761428Y-95474285D02*
X59225714Y-95474285D01*
X58975714Y-95760000D01*
X59082857Y-95760000D01*
X59154285Y-95795714D01*
X59190000Y-95831428D01*
X59225714Y-95902857D01*
X59225714Y-96081428D01*
X59190000Y-96152857D01*
X59154285Y-96188571D01*
X59082857Y-96224285D01*
X58868571Y-96224285D01*
X58797142Y-96188571D01*
X58761428Y-96152857D01*
X59440000Y-95474285D02*
X59690000Y-96224285D01*
X59940000Y-95474285D01*
X60118571Y-95474285D02*
X60582857Y-95474285D01*
X60332857Y-95760000D01*
X60440000Y-95760000D01*
X60511428Y-95795714D01*
X60547142Y-95831428D01*
X60582857Y-95902857D01*
X60582857Y-96081428D01*
X60547142Y-96152857D01*
X60511428Y-96188571D01*
X60440000Y-96224285D01*
X60225714Y-96224285D01*
X60154285Y-96188571D01*
X60118571Y-96152857D01*
D11*
X61420476Y-95968333D02*
X61658571Y-95968333D01*
X61372857Y-96111190D02*
X61539523Y-95611190D01*
X61706190Y-96111190D01*
X62158571Y-96111190D02*
X61991904Y-95873095D01*
X61872857Y-96111190D02*
X61872857Y-95611190D01*
X62063333Y-95611190D01*
X62110952Y-95635000D01*
X62134761Y-95658809D01*
X62158571Y-95706428D01*
X62158571Y-95777857D01*
X62134761Y-95825476D01*
X62110952Y-95849285D01*
X62063333Y-95873095D01*
X61872857Y-95873095D01*
X62372857Y-95849285D02*
X62539523Y-95849285D01*
X62610952Y-96111190D02*
X62372857Y-96111190D01*
X62372857Y-95611190D01*
X62610952Y-95611190D01*
X62991904Y-95849285D02*
X62825238Y-95849285D01*
X62825238Y-96111190D02*
X62825238Y-95611190D01*
X63063333Y-95611190D01*
D10*
X64198571Y-95510000D02*
X64127142Y-95474285D01*
X64020000Y-95474285D01*
X63912857Y-95510000D01*
X63841428Y-95581428D01*
X63805714Y-95652857D01*
X63770000Y-95795714D01*
X63770000Y-95902857D01*
X63805714Y-96045714D01*
X63841428Y-96117142D01*
X63912857Y-96188571D01*
X64020000Y-96224285D01*
X64091428Y-96224285D01*
X64198571Y-96188571D01*
X64234285Y-96152857D01*
X64234285Y-95902857D01*
X64091428Y-95902857D01*
X64555714Y-96224285D02*
X64555714Y-95474285D01*
X64984285Y-96224285D01*
X64984285Y-95474285D01*
X65341428Y-96224285D02*
X65341428Y-95474285D01*
X65520000Y-95474285D01*
X65627142Y-95510000D01*
X65698571Y-95581428D01*
X65734285Y-95652857D01*
X65770000Y-95795714D01*
X65770000Y-95902857D01*
X65734285Y-96045714D01*
X65698571Y-96117142D01*
X65627142Y-96188571D01*
X65520000Y-96224285D01*
X65341428Y-96224285D01*
X66774285Y-96010000D02*
X67131428Y-96010000D01*
X66702857Y-96224285D02*
X66952857Y-95474285D01*
X67202857Y-96224285D01*
X67595714Y-95474285D02*
X67667142Y-95474285D01*
X67738571Y-95510000D01*
X67774285Y-95545714D01*
X67810000Y-95617142D01*
X67845714Y-95760000D01*
X67845714Y-95938571D01*
X67810000Y-96081428D01*
X67774285Y-96152857D01*
X67738571Y-96188571D01*
X67667142Y-96224285D01*
X67595714Y-96224285D01*
X67524285Y-96188571D01*
X67488571Y-96152857D01*
X67452857Y-96081428D01*
X67417142Y-95938571D01*
X67417142Y-95760000D01*
X67452857Y-95617142D01*
X67488571Y-95545714D01*
X67524285Y-95510000D01*
X67595714Y-95474285D01*
X69314285Y-96010000D02*
X69671428Y-96010000D01*
X69242857Y-96224285D02*
X69492857Y-95474285D01*
X69742857Y-96224285D01*
X70385714Y-96224285D02*
X69957142Y-96224285D01*
X70171428Y-96224285D02*
X70171428Y-95474285D01*
X70100000Y-95581428D01*
X70028571Y-95652857D01*
X69957142Y-95688571D01*
X71854285Y-96010000D02*
X72211428Y-96010000D01*
X71782857Y-96224285D02*
X72032857Y-95474285D01*
X72282857Y-96224285D01*
X72497142Y-95545714D02*
X72532857Y-95510000D01*
X72604285Y-95474285D01*
X72782857Y-95474285D01*
X72854285Y-95510000D01*
X72890000Y-95545714D01*
X72925714Y-95617142D01*
X72925714Y-95688571D01*
X72890000Y-95795714D01*
X72461428Y-96224285D01*
X72925714Y-96224285D01*
X74394285Y-96010000D02*
X74751428Y-96010000D01*
X74322857Y-96224285D02*
X74572857Y-95474285D01*
X74822857Y-96224285D01*
X75001428Y-95474285D02*
X75465714Y-95474285D01*
X75215714Y-95760000D01*
X75322857Y-95760000D01*
X75394285Y-95795714D01*
X75430000Y-95831428D01*
X75465714Y-95902857D01*
X75465714Y-96081428D01*
X75430000Y-96152857D01*
X75394285Y-96188571D01*
X75322857Y-96224285D01*
X75108571Y-96224285D01*
X75037142Y-96188571D01*
X75001428Y-96152857D01*
X76934285Y-96010000D02*
X77291428Y-96010000D01*
X76862857Y-96224285D02*
X77112857Y-95474285D01*
X77362857Y-96224285D01*
X77934285Y-95724285D02*
X77934285Y-96224285D01*
X77755714Y-95438571D02*
X77577142Y-95974285D01*
X78041428Y-95974285D01*
X79474285Y-96010000D02*
X79831428Y-96010000D01*
X79402857Y-96224285D02*
X79652857Y-95474285D01*
X79902857Y-96224285D01*
X80510000Y-95474285D02*
X80152857Y-95474285D01*
X80117142Y-95831428D01*
X80152857Y-95795714D01*
X80224285Y-95760000D01*
X80402857Y-95760000D01*
X80474285Y-95795714D01*
X80510000Y-95831428D01*
X80545714Y-95902857D01*
X80545714Y-96081428D01*
X80510000Y-96152857D01*
X80474285Y-96188571D01*
X80402857Y-96224285D01*
X80224285Y-96224285D01*
X80152857Y-96188571D01*
X80117142Y-96152857D01*
X81585714Y-96188571D02*
X81692857Y-96224285D01*
X81871428Y-96224285D01*
X81942857Y-96188571D01*
X81978571Y-96152857D01*
X82014285Y-96081428D01*
X82014285Y-96010000D01*
X81978571Y-95938571D01*
X81942857Y-95902857D01*
X81871428Y-95867142D01*
X81728571Y-95831428D01*
X81657142Y-95795714D01*
X81621428Y-95760000D01*
X81585714Y-95688571D01*
X81585714Y-95617142D01*
X81621428Y-95545714D01*
X81657142Y-95510000D01*
X81728571Y-95474285D01*
X81907142Y-95474285D01*
X82014285Y-95510000D01*
X82764285Y-96152857D02*
X82728571Y-96188571D01*
X82621428Y-96224285D01*
X82550000Y-96224285D01*
X82442857Y-96188571D01*
X82371428Y-96117142D01*
X82335714Y-96045714D01*
X82300000Y-95902857D01*
X82300000Y-95795714D01*
X82335714Y-95652857D01*
X82371428Y-95581428D01*
X82442857Y-95510000D01*
X82550000Y-95474285D01*
X82621428Y-95474285D01*
X82728571Y-95510000D01*
X82764285Y-95545714D01*
X83085714Y-96224285D02*
X83085714Y-95474285D01*
X83514285Y-96224285D02*
X83192857Y-95795714D01*
X83514285Y-95474285D02*
X83085714Y-95902857D01*
X84447142Y-96224285D02*
X84447142Y-95474285D01*
X84697142Y-96010000D01*
X84947142Y-95474285D01*
X84947142Y-96224285D01*
X85447142Y-95474285D02*
X85590000Y-95474285D01*
X85661428Y-95510000D01*
X85732857Y-95581428D01*
X85768571Y-95724285D01*
X85768571Y-95974285D01*
X85732857Y-96117142D01*
X85661428Y-96188571D01*
X85590000Y-96224285D01*
X85447142Y-96224285D01*
X85375714Y-96188571D01*
X85304285Y-96117142D01*
X85268571Y-95974285D01*
X85268571Y-95724285D01*
X85304285Y-95581428D01*
X85375714Y-95510000D01*
X85447142Y-95474285D01*
X87201428Y-96224285D02*
X87201428Y-95474285D01*
X87451428Y-96010000D01*
X87701428Y-95474285D01*
X87701428Y-96224285D01*
X88058571Y-96224285D02*
X88058571Y-95474285D01*
X90045000Y-96224285D02*
X89795000Y-95867142D01*
X89616428Y-96224285D02*
X89616428Y-95474285D01*
X89902142Y-95474285D01*
X89973571Y-95510000D01*
X90009285Y-95545714D01*
X90045000Y-95617142D01*
X90045000Y-95724285D01*
X90009285Y-95795714D01*
X89973571Y-95831428D01*
X89902142Y-95867142D01*
X89616428Y-95867142D01*
X90295000Y-95474285D02*
X90795000Y-96224285D01*
X90795000Y-95474285D02*
X90295000Y-96224285D01*
X92138571Y-95474285D02*
X92567142Y-95474285D01*
X92352857Y-96224285D02*
X92352857Y-95474285D01*
X92745714Y-95474285D02*
X93245714Y-96224285D01*
X93245714Y-95474285D02*
X92745714Y-96224285D01*
D11*
X94619047Y-95849285D02*
X94452380Y-95849285D01*
X94452380Y-96111190D02*
X94452380Y-95611190D01*
X94690476Y-95611190D01*
X95166666Y-96111190D02*
X95000000Y-95873095D01*
X94880952Y-96111190D02*
X94880952Y-95611190D01*
X95071428Y-95611190D01*
X95119047Y-95635000D01*
X95142857Y-95658809D01*
X95166666Y-95706428D01*
X95166666Y-95777857D01*
X95142857Y-95825476D01*
X95119047Y-95849285D01*
X95071428Y-95873095D01*
X94880952Y-95873095D01*
X95380952Y-95849285D02*
X95547619Y-95849285D01*
X95619047Y-96111190D02*
X95380952Y-96111190D01*
X95380952Y-95611190D01*
X95619047Y-95611190D01*
X95833333Y-95849285D02*
X96000000Y-95849285D01*
X96071428Y-96111190D02*
X95833333Y-96111190D01*
X95833333Y-95611190D01*
X96071428Y-95611190D01*
D10*
X94339285Y-79678571D02*
X94446428Y-79714285D01*
X94625000Y-79714285D01*
X94696428Y-79678571D01*
X94732142Y-79642857D01*
X94767857Y-79571428D01*
X94767857Y-79500000D01*
X94732142Y-79428571D01*
X94696428Y-79392857D01*
X94625000Y-79357142D01*
X94482142Y-79321428D01*
X94410714Y-79285714D01*
X94375000Y-79250000D01*
X94339285Y-79178571D01*
X94339285Y-79107142D01*
X94375000Y-79035714D01*
X94410714Y-79000000D01*
X94482142Y-78964285D01*
X94660714Y-78964285D01*
X94767857Y-79000000D01*
X95089285Y-79714285D02*
X95089285Y-78964285D01*
X95267857Y-78964285D01*
X95375000Y-79000000D01*
X95446428Y-79071428D01*
X95482142Y-79142857D01*
X95517857Y-79285714D01*
X95517857Y-79392857D01*
X95482142Y-79535714D01*
X95446428Y-79607142D01*
X95375000Y-79678571D01*
X95267857Y-79714285D01*
X95089285Y-79714285D01*
X95803571Y-79500000D02*
X96160714Y-79500000D01*
X95732142Y-79714285D02*
X95982142Y-78964285D01*
X96232142Y-79714285D01*
X91817142Y-79678571D02*
X91924285Y-79714285D01*
X92102857Y-79714285D01*
X92174285Y-79678571D01*
X92210000Y-79642857D01*
X92245714Y-79571428D01*
X92245714Y-79500000D01*
X92210000Y-79428571D01*
X92174285Y-79392857D01*
X92102857Y-79357142D01*
X91960000Y-79321428D01*
X91888571Y-79285714D01*
X91852857Y-79250000D01*
X91817142Y-79178571D01*
X91817142Y-79107142D01*
X91852857Y-79035714D01*
X91888571Y-79000000D01*
X91960000Y-78964285D01*
X92138571Y-78964285D01*
X92245714Y-79000000D01*
X92995714Y-79642857D02*
X92960000Y-79678571D01*
X92852857Y-79714285D01*
X92781428Y-79714285D01*
X92674285Y-79678571D01*
X92602857Y-79607142D01*
X92567142Y-79535714D01*
X92531428Y-79392857D01*
X92531428Y-79285714D01*
X92567142Y-79142857D01*
X92602857Y-79071428D01*
X92674285Y-79000000D01*
X92781428Y-78964285D01*
X92852857Y-78964285D01*
X92960000Y-79000000D01*
X92995714Y-79035714D01*
X93674285Y-79714285D02*
X93317142Y-79714285D01*
X93317142Y-78964285D01*
X89616428Y-79714285D02*
X89616428Y-78964285D01*
X89795000Y-78964285D01*
X89902142Y-79000000D01*
X89973571Y-79071428D01*
X90009285Y-79142857D01*
X90045000Y-79285714D01*
X90045000Y-79392857D01*
X90009285Y-79535714D01*
X89973571Y-79607142D01*
X89902142Y-79678571D01*
X89795000Y-79714285D01*
X89616428Y-79714285D01*
X90723571Y-78964285D02*
X90366428Y-78964285D01*
X90330714Y-79321428D01*
X90366428Y-79285714D01*
X90437857Y-79250000D01*
X90616428Y-79250000D01*
X90687857Y-79285714D01*
X90723571Y-79321428D01*
X90759285Y-79392857D01*
X90759285Y-79571428D01*
X90723571Y-79642857D01*
X90687857Y-79678571D01*
X90616428Y-79714285D01*
X90437857Y-79714285D01*
X90366428Y-79678571D01*
X90330714Y-79642857D01*
X87076428Y-79714285D02*
X87076428Y-78964285D01*
X87255000Y-78964285D01*
X87362142Y-79000000D01*
X87433571Y-79071428D01*
X87469285Y-79142857D01*
X87505000Y-79285714D01*
X87505000Y-79392857D01*
X87469285Y-79535714D01*
X87433571Y-79607142D01*
X87362142Y-79678571D01*
X87255000Y-79714285D01*
X87076428Y-79714285D01*
X88147857Y-78964285D02*
X88005000Y-78964285D01*
X87933571Y-79000000D01*
X87897857Y-79035714D01*
X87826428Y-79142857D01*
X87790714Y-79285714D01*
X87790714Y-79571428D01*
X87826428Y-79642857D01*
X87862142Y-79678571D01*
X87933571Y-79714285D01*
X88076428Y-79714285D01*
X88147857Y-79678571D01*
X88183571Y-79642857D01*
X88219285Y-79571428D01*
X88219285Y-79392857D01*
X88183571Y-79321428D01*
X88147857Y-79285714D01*
X88076428Y-79250000D01*
X87933571Y-79250000D01*
X87862142Y-79285714D01*
X87826428Y-79321428D01*
X87790714Y-79392857D01*
X84536428Y-79714285D02*
X84536428Y-78964285D01*
X84715000Y-78964285D01*
X84822142Y-79000000D01*
X84893571Y-79071428D01*
X84929285Y-79142857D01*
X84965000Y-79285714D01*
X84965000Y-79392857D01*
X84929285Y-79535714D01*
X84893571Y-79607142D01*
X84822142Y-79678571D01*
X84715000Y-79714285D01*
X84536428Y-79714285D01*
X85322142Y-79714285D02*
X85465000Y-79714285D01*
X85536428Y-79678571D01*
X85572142Y-79642857D01*
X85643571Y-79535714D01*
X85679285Y-79392857D01*
X85679285Y-79107142D01*
X85643571Y-79035714D01*
X85607857Y-79000000D01*
X85536428Y-78964285D01*
X85393571Y-78964285D01*
X85322142Y-79000000D01*
X85286428Y-79035714D01*
X85250714Y-79107142D01*
X85250714Y-79285714D01*
X85286428Y-79357142D01*
X85322142Y-79392857D01*
X85393571Y-79428571D01*
X85536428Y-79428571D01*
X85607857Y-79392857D01*
X85643571Y-79357142D01*
X85679285Y-79285714D01*
X81639285Y-79714285D02*
X81639285Y-78964285D01*
X81817857Y-78964285D01*
X81925000Y-79000000D01*
X81996428Y-79071428D01*
X82032142Y-79142857D01*
X82067857Y-79285714D01*
X82067857Y-79392857D01*
X82032142Y-79535714D01*
X81996428Y-79607142D01*
X81925000Y-79678571D01*
X81817857Y-79714285D01*
X81639285Y-79714285D01*
X82782142Y-79714285D02*
X82353571Y-79714285D01*
X82567857Y-79714285D02*
X82567857Y-78964285D01*
X82496428Y-79071428D01*
X82425000Y-79142857D01*
X82353571Y-79178571D01*
X83246428Y-78964285D02*
X83317857Y-78964285D01*
X83389285Y-79000000D01*
X83425000Y-79035714D01*
X83460714Y-79107142D01*
X83496428Y-79250000D01*
X83496428Y-79428571D01*
X83460714Y-79571428D01*
X83425000Y-79642857D01*
X83389285Y-79678571D01*
X83317857Y-79714285D01*
X83246428Y-79714285D01*
X83175000Y-79678571D01*
X83139285Y-79642857D01*
X83103571Y-79571428D01*
X83067857Y-79428571D01*
X83067857Y-79250000D01*
X83103571Y-79107142D01*
X83139285Y-79035714D01*
X83175000Y-79000000D01*
X83246428Y-78964285D01*
X79099285Y-79714285D02*
X79099285Y-78964285D01*
X79277857Y-78964285D01*
X79385000Y-79000000D01*
X79456428Y-79071428D01*
X79492142Y-79142857D01*
X79527857Y-79285714D01*
X79527857Y-79392857D01*
X79492142Y-79535714D01*
X79456428Y-79607142D01*
X79385000Y-79678571D01*
X79277857Y-79714285D01*
X79099285Y-79714285D01*
X80242142Y-79714285D02*
X79813571Y-79714285D01*
X80027857Y-79714285D02*
X80027857Y-78964285D01*
X79956428Y-79071428D01*
X79885000Y-79142857D01*
X79813571Y-79178571D01*
X80956428Y-79714285D02*
X80527857Y-79714285D01*
X80742142Y-79714285D02*
X80742142Y-78964285D01*
X80670714Y-79071428D01*
X80599285Y-79142857D01*
X80527857Y-79178571D01*
X76559285Y-79714285D02*
X76559285Y-78964285D01*
X76737857Y-78964285D01*
X76845000Y-79000000D01*
X76916428Y-79071428D01*
X76952142Y-79142857D01*
X76987857Y-79285714D01*
X76987857Y-79392857D01*
X76952142Y-79535714D01*
X76916428Y-79607142D01*
X76845000Y-79678571D01*
X76737857Y-79714285D01*
X76559285Y-79714285D01*
X77702142Y-79714285D02*
X77273571Y-79714285D01*
X77487857Y-79714285D02*
X77487857Y-78964285D01*
X77416428Y-79071428D01*
X77345000Y-79142857D01*
X77273571Y-79178571D01*
X77987857Y-79035714D02*
X78023571Y-79000000D01*
X78095000Y-78964285D01*
X78273571Y-78964285D01*
X78345000Y-79000000D01*
X78380714Y-79035714D01*
X78416428Y-79107142D01*
X78416428Y-79178571D01*
X78380714Y-79285714D01*
X77952142Y-79714285D01*
X78416428Y-79714285D01*
X74019285Y-79714285D02*
X74019285Y-78964285D01*
X74197857Y-78964285D01*
X74305000Y-79000000D01*
X74376428Y-79071428D01*
X74412142Y-79142857D01*
X74447857Y-79285714D01*
X74447857Y-79392857D01*
X74412142Y-79535714D01*
X74376428Y-79607142D01*
X74305000Y-79678571D01*
X74197857Y-79714285D01*
X74019285Y-79714285D01*
X75162142Y-79714285D02*
X74733571Y-79714285D01*
X74947857Y-79714285D02*
X74947857Y-78964285D01*
X74876428Y-79071428D01*
X74805000Y-79142857D01*
X74733571Y-79178571D01*
X75412142Y-78964285D02*
X75876428Y-78964285D01*
X75626428Y-79250000D01*
X75733571Y-79250000D01*
X75805000Y-79285714D01*
X75840714Y-79321428D01*
X75876428Y-79392857D01*
X75876428Y-79571428D01*
X75840714Y-79642857D01*
X75805000Y-79678571D01*
X75733571Y-79714285D01*
X75519285Y-79714285D01*
X75447857Y-79678571D01*
X75412142Y-79642857D01*
X69296428Y-79321428D02*
X69546428Y-79321428D01*
X69653571Y-79714285D02*
X69296428Y-79714285D01*
X69296428Y-78964285D01*
X69653571Y-78964285D01*
X69975000Y-79714285D02*
X69975000Y-78964285D01*
X70403571Y-79714285D01*
X70403571Y-78964285D01*
D11*
X66488571Y-79101190D02*
X66655238Y-79601190D01*
X66821904Y-79101190D01*
X67155238Y-79339285D02*
X67226666Y-79363095D01*
X67250476Y-79386904D01*
X67274285Y-79434523D01*
X67274285Y-79505952D01*
X67250476Y-79553571D01*
X67226666Y-79577380D01*
X67179047Y-79601190D01*
X66988571Y-79601190D01*
X66988571Y-79101190D01*
X67155238Y-79101190D01*
X67202857Y-79125000D01*
X67226666Y-79148809D01*
X67250476Y-79196428D01*
X67250476Y-79244047D01*
X67226666Y-79291666D01*
X67202857Y-79315476D01*
X67155238Y-79339285D01*
X66988571Y-79339285D01*
X67464761Y-79458333D02*
X67702857Y-79458333D01*
X67417142Y-79601190D02*
X67583809Y-79101190D01*
X67750476Y-79601190D01*
X67845714Y-79101190D02*
X68131428Y-79101190D01*
X67988571Y-79601190D02*
X67988571Y-79101190D01*
X71473333Y-79101190D02*
X71640000Y-79601190D01*
X71806666Y-79101190D01*
X71973333Y-79101190D02*
X71973333Y-79505952D01*
X71997142Y-79553571D01*
X72020952Y-79577380D01*
X72068571Y-79601190D01*
X72163809Y-79601190D01*
X72211428Y-79577380D01*
X72235238Y-79553571D01*
X72259047Y-79505952D01*
X72259047Y-79101190D01*
X72473333Y-79577380D02*
X72544761Y-79601190D01*
X72663809Y-79601190D01*
X72711428Y-79577380D01*
X72735238Y-79553571D01*
X72759047Y-79505952D01*
X72759047Y-79458333D01*
X72735238Y-79410714D01*
X72711428Y-79386904D01*
X72663809Y-79363095D01*
X72568571Y-79339285D01*
X72520952Y-79315476D01*
X72497142Y-79291666D01*
X72473333Y-79244047D01*
X72473333Y-79196428D01*
X72497142Y-79148809D01*
X72520952Y-79125000D01*
X72568571Y-79101190D01*
X72687619Y-79101190D01*
X72759047Y-79125000D01*
X73140000Y-79339285D02*
X73211428Y-79363095D01*
X73235238Y-79386904D01*
X73259047Y-79434523D01*
X73259047Y-79505952D01*
X73235238Y-79553571D01*
X73211428Y-79577380D01*
X73163809Y-79601190D01*
X72973333Y-79601190D01*
X72973333Y-79101190D01*
X73140000Y-79101190D01*
X73187619Y-79125000D01*
X73211428Y-79148809D01*
X73235238Y-79196428D01*
X73235238Y-79244047D01*
X73211428Y-79291666D01*
X73187619Y-79315476D01*
X73140000Y-79339285D01*
X72973333Y-79339285D01*
D10*
X56132142Y-95262500D02*
X56882142Y-95262500D01*
X56739285Y-96224285D02*
X56489285Y-95867142D01*
X56310714Y-96224285D02*
X56310714Y-95474285D01*
X56596428Y-95474285D01*
X56667857Y-95510000D01*
X56703571Y-95545714D01*
X56739285Y-95617142D01*
X56739285Y-95724285D01*
X56703571Y-95795714D01*
X56667857Y-95831428D01*
X56596428Y-95867142D01*
X56310714Y-95867142D01*
X56882142Y-95262500D02*
X57596428Y-95262500D01*
X57025000Y-96188571D02*
X57132142Y-96224285D01*
X57310714Y-96224285D01*
X57382142Y-96188571D01*
X57417857Y-96152857D01*
X57453571Y-96081428D01*
X57453571Y-96010000D01*
X57417857Y-95938571D01*
X57382142Y-95902857D01*
X57310714Y-95867142D01*
X57167857Y-95831428D01*
X57096428Y-95795714D01*
X57060714Y-95760000D01*
X57025000Y-95688571D01*
X57025000Y-95617142D01*
X57060714Y-95545714D01*
X57096428Y-95510000D01*
X57167857Y-95474285D01*
X57346428Y-95474285D01*
X57453571Y-95510000D01*
X57596428Y-95262500D02*
X58167857Y-95262500D01*
X57667857Y-95474285D02*
X58096428Y-95474285D01*
X57882142Y-96224285D02*
X57882142Y-95474285D01*
%LPC*%
D12*
X53975000Y-66675000D03*
X127635000Y-66675000D03*
D13*
X66040000Y-72390000D03*
D14*
X66040000Y-68590000D03*
X67310000Y-70490000D03*
X67310000Y-66690000D03*
X68580000Y-72390000D03*
X68580000Y-68590000D03*
X69850000Y-70490000D03*
X69850000Y-66690000D03*
X71120000Y-72390000D03*
X71120000Y-68590000D03*
X72390000Y-70490000D03*
X72390000Y-66690000D03*
X73660000Y-72390000D03*
X73660000Y-68590000D03*
X74930000Y-70490000D03*
X74930000Y-66690000D03*
X76200000Y-72390000D03*
X76200000Y-68590000D03*
X77470000Y-70490000D03*
X77470000Y-66690000D03*
X78740000Y-72390000D03*
X78740000Y-68590000D03*
X80010000Y-70490000D03*
X80010000Y-66690000D03*
X81280000Y-72390000D03*
X81280000Y-68590000D03*
X82550000Y-70490000D03*
X82550000Y-66690000D03*
X83820000Y-72390000D03*
X83820000Y-68590000D03*
X85090000Y-70490000D03*
X85090000Y-66690000D03*
X86360000Y-72390000D03*
X86360000Y-68590000D03*
X87630000Y-70490000D03*
X87630000Y-66690000D03*
X88900000Y-72390000D03*
X88900000Y-68590000D03*
X90170000Y-70490000D03*
X90170000Y-66690000D03*
X91440000Y-72390000D03*
X91440000Y-68590000D03*
X92710000Y-70490000D03*
X92710000Y-66690000D03*
X93980000Y-72390000D03*
X93980000Y-68590000D03*
X95250000Y-70490000D03*
X95250000Y-66690000D03*
X96520000Y-72390000D03*
X96520000Y-68590000D03*
X97790000Y-70490000D03*
X97790000Y-66690000D03*
X99060000Y-72390000D03*
X99060000Y-68590000D03*
X100330000Y-70490000D03*
X100330000Y-66690000D03*
X101600000Y-72390000D03*
X101600000Y-68590000D03*
X102870000Y-70490000D03*
X102870000Y-66690000D03*
X104140000Y-72390000D03*
X104140000Y-68590000D03*
X105410000Y-70490000D03*
X105410000Y-66690000D03*
X106680000Y-72390000D03*
X106680000Y-68590000D03*
X107950000Y-70490000D03*
X107950000Y-66690000D03*
X109220000Y-72390000D03*
X109220000Y-68590000D03*
X110490000Y-70490000D03*
X110490000Y-66690000D03*
X111760000Y-72390000D03*
X111760000Y-68590000D03*
X113030000Y-70490000D03*
X113030000Y-66690000D03*
X114300000Y-72390000D03*
X114300000Y-68590000D03*
X115570000Y-70490000D03*
X115570000Y-66690000D03*
D15*
X95250000Y-97790000D03*
D16*
X92710000Y-97790000D03*
X90170000Y-97790000D03*
X87630000Y-97790000D03*
X85090000Y-97790000D03*
X82550000Y-97790000D03*
X80010000Y-97790000D03*
X77470000Y-97790000D03*
X74930000Y-97790000D03*
X72390000Y-97790000D03*
X69850000Y-97790000D03*
X67310000Y-97790000D03*
X64770000Y-97790000D03*
X62230000Y-97790000D03*
X59690000Y-97790000D03*
X57150000Y-97790000D03*
X67310000Y-77470000D03*
X69850000Y-77470000D03*
X72390000Y-77470000D03*
X74930000Y-77470000D03*
X77470000Y-77470000D03*
X80010000Y-77470000D03*
X82550000Y-77470000D03*
X85090000Y-77470000D03*
X87630000Y-77470000D03*
X90170000Y-77470000D03*
X92710000Y-77470000D03*
D15*
X95250000Y-77470000D03*
M02*
