%FSLAX45Y45*%
G04 Gerber Fmt 4.5, Leading zero omitted, Abs format (unit mm)*
G04 Created by KiCad (PCBNEW (6.0.5-0)) date 2022-06-07 21:39:39*
%MOMM*%
%LPD*%
G01*
G04 APERTURE LIST*
%TA.AperFunction,Profile*%
%ADD10C,0.150000*%
%TD*%
%TA.AperFunction,Profile*%
%ADD11C,0.200000*%
%TD*%
%ADD12C,0.200000*%
%ADD13C,0.270000*%
G04 APERTURE END LIST*
D10*
X12763500Y-9969500D02*
G75*
G03*
X13017500Y-9726395I10661J243105D01*
G01*
X5397500Y-6413500D02*
G75*
G03*
X5143500Y-6667500I0J-254000D01*
G01*
D11*
X13017500Y-6667500D02*
X13017500Y-9726395D01*
D10*
X13017500Y-6667500D02*
G75*
G03*
X12763500Y-6413500I-254000J0D01*
G01*
D11*
X12763500Y-9969500D02*
X5386605Y-9969500D01*
D10*
X5143500Y-9715500D02*
G75*
G03*
X5386605Y-9969500I243105J-10661D01*
G01*
D11*
X5397500Y-6413500D02*
X12763500Y-6413500D01*
X5143500Y-9715500D02*
X5143500Y-6667500D01*
D12*
D13*
X5262500Y-6532500D02*
X5532500Y-6802500D01*
X5532500Y-6532500D02*
X5262500Y-6802500D01*
X12628500Y-6532500D02*
X12898500Y-6802500D01*
X12898500Y-6532500D02*
X12628500Y-6802500D01*
D12*
X5391119Y-10289976D02*
X5391119Y-10089976D01*
X5438738Y-10089976D01*
X5467310Y-10099500D01*
X5486357Y-10118548D01*
X5495881Y-10137595D01*
X5505405Y-10175690D01*
X5505405Y-10204262D01*
X5495881Y-10242357D01*
X5486357Y-10261405D01*
X5467310Y-10280452D01*
X5438738Y-10289976D01*
X5391119Y-10289976D01*
X5591119Y-10289976D02*
X5591119Y-10156643D01*
X5591119Y-10194738D02*
X5600643Y-10175690D01*
X5610167Y-10166167D01*
X5629214Y-10156643D01*
X5648262Y-10156643D01*
X5714928Y-10289976D02*
X5714928Y-10156643D01*
X5714928Y-10089976D02*
X5705405Y-10099500D01*
X5714928Y-10109024D01*
X5724452Y-10099500D01*
X5714928Y-10089976D01*
X5714928Y-10109024D01*
X5838738Y-10289976D02*
X5819690Y-10280452D01*
X5810167Y-10261405D01*
X5810167Y-10089976D01*
X5943500Y-10289976D02*
X5924452Y-10280452D01*
X5914928Y-10261405D01*
X5914928Y-10089976D01*
X6172071Y-10289976D02*
X6172071Y-10089976D01*
X6238738Y-10232833D01*
X6305405Y-10089976D01*
X6305405Y-10289976D01*
X6486357Y-10289976D02*
X6486357Y-10185214D01*
X6476833Y-10166167D01*
X6457786Y-10156643D01*
X6419690Y-10156643D01*
X6400643Y-10166167D01*
X6486357Y-10280452D02*
X6467309Y-10289976D01*
X6419690Y-10289976D01*
X6400643Y-10280452D01*
X6391119Y-10261405D01*
X6391119Y-10242357D01*
X6400643Y-10223310D01*
X6419690Y-10213786D01*
X6467309Y-10213786D01*
X6486357Y-10204262D01*
X6581595Y-10156643D02*
X6581595Y-10356643D01*
X6581595Y-10166167D02*
X6600643Y-10156643D01*
X6638738Y-10156643D01*
X6657786Y-10166167D01*
X6667309Y-10175690D01*
X6676833Y-10194738D01*
X6676833Y-10251881D01*
X6667309Y-10270929D01*
X6657786Y-10280452D01*
X6638738Y-10289976D01*
X6600643Y-10289976D01*
X6581595Y-10280452D01*
X6762548Y-10270929D02*
X6772071Y-10280452D01*
X6762548Y-10289976D01*
X6753024Y-10280452D01*
X6762548Y-10270929D01*
X6762548Y-10289976D01*
X6762548Y-10166167D02*
X6772071Y-10175690D01*
X6762548Y-10185214D01*
X6753024Y-10175690D01*
X6762548Y-10166167D01*
X6762548Y-10185214D01*
X4933500Y-10519500D02*
X5133500Y-10719500D01*
X5133500Y-10519500D02*
X4933500Y-10719500D01*
X5381595Y-10529024D02*
X5391119Y-10519500D01*
X5410167Y-10509976D01*
X5457786Y-10509976D01*
X5476833Y-10519500D01*
X5486357Y-10529024D01*
X5495881Y-10548071D01*
X5495881Y-10567119D01*
X5486357Y-10595690D01*
X5372071Y-10709976D01*
X5495881Y-10709976D01*
X5581595Y-10690929D02*
X5591119Y-10700452D01*
X5581595Y-10709976D01*
X5572071Y-10700452D01*
X5581595Y-10690929D01*
X5581595Y-10709976D01*
X5657786Y-10509976D02*
X5791119Y-10509976D01*
X5705405Y-10709976D01*
X5905405Y-10509976D02*
X5924452Y-10509976D01*
X5943500Y-10519500D01*
X5953024Y-10529024D01*
X5962548Y-10548071D01*
X5972071Y-10586167D01*
X5972071Y-10633786D01*
X5962548Y-10671881D01*
X5953024Y-10690929D01*
X5943500Y-10700452D01*
X5924452Y-10709976D01*
X5905405Y-10709976D01*
X5886357Y-10700452D01*
X5876833Y-10690929D01*
X5867309Y-10671881D01*
X5857786Y-10633786D01*
X5857786Y-10586167D01*
X5867309Y-10548071D01*
X5876833Y-10529024D01*
X5886357Y-10519500D01*
X5905405Y-10509976D01*
X6095881Y-10509976D02*
X6114928Y-10509976D01*
X6133976Y-10519500D01*
X6143500Y-10529024D01*
X6153024Y-10548071D01*
X6162548Y-10586167D01*
X6162548Y-10633786D01*
X6153024Y-10671881D01*
X6143500Y-10690929D01*
X6133976Y-10700452D01*
X6114928Y-10709976D01*
X6095881Y-10709976D01*
X6076833Y-10700452D01*
X6067309Y-10690929D01*
X6057786Y-10671881D01*
X6048262Y-10633786D01*
X6048262Y-10586167D01*
X6057786Y-10548071D01*
X6067309Y-10529024D01*
X6076833Y-10519500D01*
X6095881Y-10509976D01*
X6248262Y-10709976D02*
X6248262Y-10576643D01*
X6248262Y-10595690D02*
X6257786Y-10586167D01*
X6276833Y-10576643D01*
X6305405Y-10576643D01*
X6324452Y-10586167D01*
X6333976Y-10605214D01*
X6333976Y-10709976D01*
X6333976Y-10605214D02*
X6343500Y-10586167D01*
X6362548Y-10576643D01*
X6391119Y-10576643D01*
X6410167Y-10586167D01*
X6419690Y-10605214D01*
X6419690Y-10709976D01*
X6514928Y-10709976D02*
X6514928Y-10576643D01*
X6514928Y-10595690D02*
X6524452Y-10586167D01*
X6543500Y-10576643D01*
X6572071Y-10576643D01*
X6591119Y-10586167D01*
X6600643Y-10605214D01*
X6600643Y-10709976D01*
X6600643Y-10605214D02*
X6610167Y-10586167D01*
X6629214Y-10576643D01*
X6657786Y-10576643D01*
X6676833Y-10586167D01*
X6686357Y-10605214D01*
X6686357Y-10709976D01*
X7076833Y-10500452D02*
X6905405Y-10757595D01*
X7333976Y-10509976D02*
X7353024Y-10509976D01*
X7372071Y-10519500D01*
X7381595Y-10529024D01*
X7391119Y-10548071D01*
X7400643Y-10586167D01*
X7400643Y-10633786D01*
X7391119Y-10671881D01*
X7381595Y-10690929D01*
X7372071Y-10700452D01*
X7353024Y-10709976D01*
X7333976Y-10709976D01*
X7314928Y-10700452D01*
X7305405Y-10690929D01*
X7295881Y-10671881D01*
X7286357Y-10633786D01*
X7286357Y-10586167D01*
X7295881Y-10548071D01*
X7305405Y-10529024D01*
X7314928Y-10519500D01*
X7333976Y-10509976D01*
X7486357Y-10690929D02*
X7495881Y-10700452D01*
X7486357Y-10709976D01*
X7476833Y-10700452D01*
X7486357Y-10690929D01*
X7486357Y-10709976D01*
X7686357Y-10709976D02*
X7572071Y-10709976D01*
X7629214Y-10709976D02*
X7629214Y-10509976D01*
X7610167Y-10538548D01*
X7591119Y-10557595D01*
X7572071Y-10567119D01*
X7810167Y-10509976D02*
X7829214Y-10509976D01*
X7848262Y-10519500D01*
X7857786Y-10529024D01*
X7867309Y-10548071D01*
X7876833Y-10586167D01*
X7876833Y-10633786D01*
X7867309Y-10671881D01*
X7857786Y-10690929D01*
X7848262Y-10700452D01*
X7829214Y-10709976D01*
X7810167Y-10709976D01*
X7791119Y-10700452D01*
X7781595Y-10690929D01*
X7772071Y-10671881D01*
X7762548Y-10633786D01*
X7762548Y-10586167D01*
X7772071Y-10548071D01*
X7781595Y-10529024D01*
X7791119Y-10519500D01*
X7810167Y-10509976D01*
X8048262Y-10509976D02*
X8010167Y-10509976D01*
X7991119Y-10519500D01*
X7981595Y-10529024D01*
X7962548Y-10557595D01*
X7953024Y-10595690D01*
X7953024Y-10671881D01*
X7962548Y-10690929D01*
X7972071Y-10700452D01*
X7991119Y-10709976D01*
X8029214Y-10709976D01*
X8048262Y-10700452D01*
X8057786Y-10690929D01*
X8067309Y-10671881D01*
X8067309Y-10624262D01*
X8057786Y-10605214D01*
X8048262Y-10595690D01*
X8029214Y-10586167D01*
X7991119Y-10586167D01*
X7972071Y-10595690D01*
X7962548Y-10605214D01*
X7953024Y-10624262D01*
X8133976Y-10509976D02*
X8257786Y-10509976D01*
X8191119Y-10586167D01*
X8219690Y-10586167D01*
X8238738Y-10595690D01*
X8248262Y-10605214D01*
X8257786Y-10624262D01*
X8257786Y-10671881D01*
X8248262Y-10690929D01*
X8238738Y-10700452D01*
X8219690Y-10709976D01*
X8162548Y-10709976D01*
X8143500Y-10700452D01*
X8133976Y-10690929D01*
X8333976Y-10509976D02*
X8333976Y-10548071D01*
X8410167Y-10509976D02*
X8410167Y-10548071D01*
X8705405Y-10786167D02*
X8695881Y-10776643D01*
X8676833Y-10748071D01*
X8667310Y-10729024D01*
X8657786Y-10700452D01*
X8648262Y-10652833D01*
X8648262Y-10614738D01*
X8657786Y-10567119D01*
X8667310Y-10538548D01*
X8676833Y-10519500D01*
X8695881Y-10490929D01*
X8705405Y-10481405D01*
X8772071Y-10529024D02*
X8781595Y-10519500D01*
X8800643Y-10509976D01*
X8848262Y-10509976D01*
X8867310Y-10519500D01*
X8876833Y-10529024D01*
X8886357Y-10548071D01*
X8886357Y-10567119D01*
X8876833Y-10595690D01*
X8762548Y-10709976D01*
X8886357Y-10709976D01*
X9124452Y-10709976D02*
X9124452Y-10509976D01*
X9210167Y-10709976D02*
X9210167Y-10605214D01*
X9200643Y-10586167D01*
X9181595Y-10576643D01*
X9153024Y-10576643D01*
X9133976Y-10586167D01*
X9124452Y-10595690D01*
X9333976Y-10709976D02*
X9314929Y-10700452D01*
X9305405Y-10690929D01*
X9295881Y-10671881D01*
X9295881Y-10614738D01*
X9305405Y-10595690D01*
X9314929Y-10586167D01*
X9333976Y-10576643D01*
X9362548Y-10576643D01*
X9381595Y-10586167D01*
X9391119Y-10595690D01*
X9400643Y-10614738D01*
X9400643Y-10671881D01*
X9391119Y-10690929D01*
X9381595Y-10700452D01*
X9362548Y-10709976D01*
X9333976Y-10709976D01*
X9514929Y-10709976D02*
X9495881Y-10700452D01*
X9486357Y-10681405D01*
X9486357Y-10509976D01*
X9667310Y-10700452D02*
X9648262Y-10709976D01*
X9610167Y-10709976D01*
X9591119Y-10700452D01*
X9581595Y-10681405D01*
X9581595Y-10605214D01*
X9591119Y-10586167D01*
X9610167Y-10576643D01*
X9648262Y-10576643D01*
X9667310Y-10586167D01*
X9676833Y-10605214D01*
X9676833Y-10624262D01*
X9581595Y-10643310D01*
X9753024Y-10700452D02*
X9772071Y-10709976D01*
X9810167Y-10709976D01*
X9829214Y-10700452D01*
X9838738Y-10681405D01*
X9838738Y-10671881D01*
X9829214Y-10652833D01*
X9810167Y-10643310D01*
X9781595Y-10643310D01*
X9762548Y-10633786D01*
X9753024Y-10614738D01*
X9753024Y-10605214D01*
X9762548Y-10586167D01*
X9781595Y-10576643D01*
X9810167Y-10576643D01*
X9829214Y-10586167D01*
X9905405Y-10786167D02*
X9914929Y-10776643D01*
X9933976Y-10748071D01*
X9943500Y-10729024D01*
X9953024Y-10700452D01*
X9962548Y-10652833D01*
X9962548Y-10614738D01*
X9953024Y-10567119D01*
X9943500Y-10538548D01*
X9933976Y-10519500D01*
X9914929Y-10490929D01*
X9905405Y-10481405D01*
X10267310Y-10786167D02*
X10257786Y-10776643D01*
X10238738Y-10748071D01*
X10229214Y-10729024D01*
X10219690Y-10700452D01*
X10210167Y-10652833D01*
X10210167Y-10614738D01*
X10219690Y-10567119D01*
X10229214Y-10538548D01*
X10238738Y-10519500D01*
X10257786Y-10490929D01*
X10267310Y-10481405D01*
X10343500Y-10576643D02*
X10343500Y-10709976D01*
X10343500Y-10595690D02*
X10353024Y-10586167D01*
X10372071Y-10576643D01*
X10400643Y-10576643D01*
X10419690Y-10586167D01*
X10429214Y-10605214D01*
X10429214Y-10709976D01*
X10553024Y-10709976D02*
X10533976Y-10700452D01*
X10524452Y-10690929D01*
X10514929Y-10671881D01*
X10514929Y-10614738D01*
X10524452Y-10595690D01*
X10533976Y-10586167D01*
X10553024Y-10576643D01*
X10581595Y-10576643D01*
X10600643Y-10586167D01*
X10610167Y-10595690D01*
X10619690Y-10614738D01*
X10619690Y-10671881D01*
X10610167Y-10690929D01*
X10600643Y-10700452D01*
X10581595Y-10709976D01*
X10553024Y-10709976D01*
X10676833Y-10576643D02*
X10753024Y-10576643D01*
X10705405Y-10509976D02*
X10705405Y-10681405D01*
X10714929Y-10700452D01*
X10733976Y-10709976D01*
X10753024Y-10709976D01*
X10972071Y-10576643D02*
X10972071Y-10776643D01*
X10972071Y-10586167D02*
X10991119Y-10576643D01*
X11029214Y-10576643D01*
X11048262Y-10586167D01*
X11057786Y-10595690D01*
X11067310Y-10614738D01*
X11067310Y-10671881D01*
X11057786Y-10690929D01*
X11048262Y-10700452D01*
X11029214Y-10709976D01*
X10991119Y-10709976D01*
X10972071Y-10700452D01*
X11181595Y-10709976D02*
X11162548Y-10700452D01*
X11153024Y-10681405D01*
X11153024Y-10509976D01*
X11343500Y-10709976D02*
X11343500Y-10605214D01*
X11333976Y-10586167D01*
X11314928Y-10576643D01*
X11276833Y-10576643D01*
X11257786Y-10586167D01*
X11343500Y-10700452D02*
X11324452Y-10709976D01*
X11276833Y-10709976D01*
X11257786Y-10700452D01*
X11248262Y-10681405D01*
X11248262Y-10662357D01*
X11257786Y-10643310D01*
X11276833Y-10633786D01*
X11324452Y-10633786D01*
X11343500Y-10624262D01*
X11410167Y-10576643D02*
X11486357Y-10576643D01*
X11438738Y-10509976D02*
X11438738Y-10681405D01*
X11448262Y-10700452D01*
X11467309Y-10709976D01*
X11486357Y-10709976D01*
X11629214Y-10700452D02*
X11610167Y-10709976D01*
X11572071Y-10709976D01*
X11553024Y-10700452D01*
X11543500Y-10681405D01*
X11543500Y-10605214D01*
X11553024Y-10586167D01*
X11572071Y-10576643D01*
X11610167Y-10576643D01*
X11629214Y-10586167D01*
X11638738Y-10605214D01*
X11638738Y-10624262D01*
X11543500Y-10643310D01*
X11810167Y-10709976D02*
X11810167Y-10509976D01*
X11810167Y-10700452D02*
X11791119Y-10709976D01*
X11753024Y-10709976D01*
X11733976Y-10700452D01*
X11724452Y-10690929D01*
X11714928Y-10671881D01*
X11714928Y-10614738D01*
X11724452Y-10595690D01*
X11733976Y-10586167D01*
X11753024Y-10576643D01*
X11791119Y-10576643D01*
X11810167Y-10586167D01*
X11886357Y-10786167D02*
X11895881Y-10776643D01*
X11914928Y-10748071D01*
X11924452Y-10729024D01*
X11933976Y-10700452D01*
X11943500Y-10652833D01*
X11943500Y-10614738D01*
X11933976Y-10567119D01*
X11924452Y-10538548D01*
X11914928Y-10519500D01*
X11895881Y-10490929D01*
X11886357Y-10481405D01*
M02*
