M48
; DRILL file {KiCad (6.0.5-0)} date Tuesday, 07 June 2022 at 21:39:11
; FORMAT={-:-/ absolute / metric / decimal}
; #@! TF.CreationDate,2022-06-07T21:39:11+01:00
; #@! TF.GenerationSoftware,Kicad,Pcbnew,(6.0.5-0)
; #@! TF.FileFunction,Plated,1,2,PTH
FMAT,2
METRIC
; #@! TA.AperFunction,Plated,PTH,ComponentDrill
T1C1.000
%
G90
G05
T1
X57.15Y-97.79
X59.69Y-97.79
X62.23Y-97.79
X64.77Y-97.79
X66.04Y-68.59
X66.04Y-72.39
X67.31Y-66.69
X67.31Y-70.49
X67.31Y-77.47
X67.31Y-97.79
X68.58Y-68.59
X68.58Y-72.39
X69.85Y-66.69
X69.85Y-70.49
X69.85Y-77.47
X69.85Y-97.79
X71.12Y-68.59
X71.12Y-72.39
X72.39Y-66.69
X72.39Y-70.49
X72.39Y-77.47
X72.39Y-97.79
X73.66Y-68.59
X73.66Y-72.39
X74.93Y-66.69
X74.93Y-70.49
X74.93Y-77.47
X74.93Y-97.79
X76.2Y-68.59
X76.2Y-72.39
X77.47Y-66.69
X77.47Y-70.49
X77.47Y-77.47
X77.47Y-97.79
X78.74Y-68.59
X78.74Y-72.39
X80.01Y-66.69
X80.01Y-70.49
X80.01Y-77.47
X80.01Y-97.79
X81.28Y-68.59
X81.28Y-72.39
X82.55Y-66.69
X82.55Y-70.49
X82.55Y-77.47
X82.55Y-97.79
X83.82Y-68.59
X83.82Y-72.39
X85.09Y-66.69
X85.09Y-70.49
X85.09Y-77.47
X85.09Y-97.79
X86.36Y-68.59
X86.36Y-72.39
X87.63Y-66.69
X87.63Y-70.49
X87.63Y-77.47
X87.63Y-97.79
X88.9Y-68.59
X88.9Y-72.39
X90.17Y-66.69
X90.17Y-70.49
X90.17Y-77.47
X90.17Y-97.79
X91.44Y-68.59
X91.44Y-72.39
X92.71Y-66.69
X92.71Y-70.49
X92.71Y-77.47
X92.71Y-97.79
X93.98Y-68.59
X93.98Y-72.39
X95.25Y-66.69
X95.25Y-70.49
X95.25Y-77.47
X95.25Y-97.79
X96.52Y-68.59
X96.52Y-72.39
X97.79Y-66.69
X97.79Y-70.49
X99.06Y-68.59
X99.06Y-72.39
X100.33Y-66.69
X100.33Y-70.49
X101.6Y-68.59
X101.6Y-72.39
X102.87Y-66.69
X102.87Y-70.49
X104.14Y-68.59
X104.14Y-72.39
X105.41Y-66.69
X105.41Y-70.49
X106.68Y-68.59
X106.68Y-72.39
X107.95Y-66.69
X107.95Y-70.49
X109.22Y-68.59
X109.22Y-72.39
X110.49Y-66.69
X110.49Y-70.49
X111.76Y-68.59
X111.76Y-72.39
X113.03Y-66.69
X113.03Y-70.49
X114.3Y-68.59
X114.3Y-72.39
X115.57Y-66.69
X115.57Y-70.49
T0
M30
