G04 #@! TF.GenerationSoftware,KiCad,Pcbnew,(6.0.5-0)*
G04 #@! TF.CreationDate,2022-06-27T15:48:44+01:00*
G04 #@! TF.ProjectId,microbit_eink_feather_adaptor,6d696372-6f62-4697-945f-65696e6b5f66,rev?*
G04 #@! TF.SameCoordinates,Original*
G04 #@! TF.FileFunction,Legend,Top*
G04 #@! TF.FilePolarity,Positive*
%FSLAX46Y46*%
G04 Gerber Fmt 4.6, Leading zero omitted, Abs format (unit mm)*
G04 Created by KiCad (PCBNEW (6.0.5-0)) date 2022-06-27 15:48:44*
%MOMM*%
%LPD*%
G01*
G04 APERTURE LIST*
%ADD10C,0.150000*%
%ADD11C,0.100000*%
%ADD12O,1.700000X1.700000*%
%ADD13R,1.700000X1.700000*%
%ADD14O,17.600000X5.100000*%
%ADD15C,6.600000*%
%ADD16C,2.700000*%
%ADD17R,1.500000X1.500000*%
%ADD18C,1.500000*%
G04 APERTURE END LIST*
D10*
X104181154Y-94987128D02*
X55880000Y-94909596D01*
X104140000Y-82296000D02*
X66040000Y-82218468D01*
X104071780Y-80342875D02*
X66040000Y-80342875D01*
X104112934Y-93034003D02*
X55880000Y-93218000D01*
X58761428Y-95474285D02*
X59225714Y-95474285D01*
X58975714Y-95760000D01*
X59082857Y-95760000D01*
X59154285Y-95795714D01*
X59190000Y-95831428D01*
X59225714Y-95902857D01*
X59225714Y-96081428D01*
X59190000Y-96152857D01*
X59154285Y-96188571D01*
X59082857Y-96224285D01*
X58868571Y-96224285D01*
X58797142Y-96188571D01*
X58761428Y-96152857D01*
X59440000Y-95474285D02*
X59690000Y-96224285D01*
X59940000Y-95474285D01*
X60118571Y-95474285D02*
X60582857Y-95474285D01*
X60332857Y-95760000D01*
X60440000Y-95760000D01*
X60511428Y-95795714D01*
X60547142Y-95831428D01*
X60582857Y-95902857D01*
X60582857Y-96081428D01*
X60547142Y-96152857D01*
X60511428Y-96188571D01*
X60440000Y-96224285D01*
X60225714Y-96224285D01*
X60154285Y-96188571D01*
X60118571Y-96152857D01*
D11*
X61420476Y-95968333D02*
X61658571Y-95968333D01*
X61372857Y-96111190D02*
X61539523Y-95611190D01*
X61706190Y-96111190D01*
X62158571Y-96111190D02*
X61991904Y-95873095D01*
X61872857Y-96111190D02*
X61872857Y-95611190D01*
X62063333Y-95611190D01*
X62110952Y-95635000D01*
X62134761Y-95658809D01*
X62158571Y-95706428D01*
X62158571Y-95777857D01*
X62134761Y-95825476D01*
X62110952Y-95849285D01*
X62063333Y-95873095D01*
X61872857Y-95873095D01*
X62372857Y-95849285D02*
X62539523Y-95849285D01*
X62610952Y-96111190D02*
X62372857Y-96111190D01*
X62372857Y-95611190D01*
X62610952Y-95611190D01*
X62991904Y-95849285D02*
X62825238Y-95849285D01*
X62825238Y-96111190D02*
X62825238Y-95611190D01*
X63063333Y-95611190D01*
D10*
X64198571Y-95510000D02*
X64127142Y-95474285D01*
X64020000Y-95474285D01*
X63912857Y-95510000D01*
X63841428Y-95581428D01*
X63805714Y-95652857D01*
X63770000Y-95795714D01*
X63770000Y-95902857D01*
X63805714Y-96045714D01*
X63841428Y-96117142D01*
X63912857Y-96188571D01*
X64020000Y-96224285D01*
X64091428Y-96224285D01*
X64198571Y-96188571D01*
X64234285Y-96152857D01*
X64234285Y-95902857D01*
X64091428Y-95902857D01*
X64555714Y-96224285D02*
X64555714Y-95474285D01*
X64984285Y-96224285D01*
X64984285Y-95474285D01*
X65341428Y-96224285D02*
X65341428Y-95474285D01*
X65520000Y-95474285D01*
X65627142Y-95510000D01*
X65698571Y-95581428D01*
X65734285Y-95652857D01*
X65770000Y-95795714D01*
X65770000Y-95902857D01*
X65734285Y-96045714D01*
X65698571Y-96117142D01*
X65627142Y-96188571D01*
X65520000Y-96224285D01*
X65341428Y-96224285D01*
X66774285Y-96010000D02*
X67131428Y-96010000D01*
X66702857Y-96224285D02*
X66952857Y-95474285D01*
X67202857Y-96224285D01*
X67595714Y-95474285D02*
X67667142Y-95474285D01*
X67738571Y-95510000D01*
X67774285Y-95545714D01*
X67810000Y-95617142D01*
X67845714Y-95760000D01*
X67845714Y-95938571D01*
X67810000Y-96081428D01*
X67774285Y-96152857D01*
X67738571Y-96188571D01*
X67667142Y-96224285D01*
X67595714Y-96224285D01*
X67524285Y-96188571D01*
X67488571Y-96152857D01*
X67452857Y-96081428D01*
X67417142Y-95938571D01*
X67417142Y-95760000D01*
X67452857Y-95617142D01*
X67488571Y-95545714D01*
X67524285Y-95510000D01*
X67595714Y-95474285D01*
X69314285Y-96010000D02*
X69671428Y-96010000D01*
X69242857Y-96224285D02*
X69492857Y-95474285D01*
X69742857Y-96224285D01*
X70385714Y-96224285D02*
X69957142Y-96224285D01*
X70171428Y-96224285D02*
X70171428Y-95474285D01*
X70100000Y-95581428D01*
X70028571Y-95652857D01*
X69957142Y-95688571D01*
X71854285Y-96010000D02*
X72211428Y-96010000D01*
X71782857Y-96224285D02*
X72032857Y-95474285D01*
X72282857Y-96224285D01*
X72497142Y-95545714D02*
X72532857Y-95510000D01*
X72604285Y-95474285D01*
X72782857Y-95474285D01*
X72854285Y-95510000D01*
X72890000Y-95545714D01*
X72925714Y-95617142D01*
X72925714Y-95688571D01*
X72890000Y-95795714D01*
X72461428Y-96224285D01*
X72925714Y-96224285D01*
X74394285Y-96010000D02*
X74751428Y-96010000D01*
X74322857Y-96224285D02*
X74572857Y-95474285D01*
X74822857Y-96224285D01*
X75001428Y-95474285D02*
X75465714Y-95474285D01*
X75215714Y-95760000D01*
X75322857Y-95760000D01*
X75394285Y-95795714D01*
X75430000Y-95831428D01*
X75465714Y-95902857D01*
X75465714Y-96081428D01*
X75430000Y-96152857D01*
X75394285Y-96188571D01*
X75322857Y-96224285D01*
X75108571Y-96224285D01*
X75037142Y-96188571D01*
X75001428Y-96152857D01*
X76934285Y-96010000D02*
X77291428Y-96010000D01*
X76862857Y-96224285D02*
X77112857Y-95474285D01*
X77362857Y-96224285D01*
X77934285Y-95724285D02*
X77934285Y-96224285D01*
X77755714Y-95438571D02*
X77577142Y-95974285D01*
X78041428Y-95974285D01*
X79474285Y-96010000D02*
X79831428Y-96010000D01*
X79402857Y-96224285D02*
X79652857Y-95474285D01*
X79902857Y-96224285D01*
X80510000Y-95474285D02*
X80152857Y-95474285D01*
X80117142Y-95831428D01*
X80152857Y-95795714D01*
X80224285Y-95760000D01*
X80402857Y-95760000D01*
X80474285Y-95795714D01*
X80510000Y-95831428D01*
X80545714Y-95902857D01*
X80545714Y-96081428D01*
X80510000Y-96152857D01*
X80474285Y-96188571D01*
X80402857Y-96224285D01*
X80224285Y-96224285D01*
X80152857Y-96188571D01*
X80117142Y-96152857D01*
X81585714Y-96188571D02*
X81692857Y-96224285D01*
X81871428Y-96224285D01*
X81942857Y-96188571D01*
X81978571Y-96152857D01*
X82014285Y-96081428D01*
X82014285Y-96010000D01*
X81978571Y-95938571D01*
X81942857Y-95902857D01*
X81871428Y-95867142D01*
X81728571Y-95831428D01*
X81657142Y-95795714D01*
X81621428Y-95760000D01*
X81585714Y-95688571D01*
X81585714Y-95617142D01*
X81621428Y-95545714D01*
X81657142Y-95510000D01*
X81728571Y-95474285D01*
X81907142Y-95474285D01*
X82014285Y-95510000D01*
X82764285Y-96152857D02*
X82728571Y-96188571D01*
X82621428Y-96224285D01*
X82550000Y-96224285D01*
X82442857Y-96188571D01*
X82371428Y-96117142D01*
X82335714Y-96045714D01*
X82300000Y-95902857D01*
X82300000Y-95795714D01*
X82335714Y-95652857D01*
X82371428Y-95581428D01*
X82442857Y-95510000D01*
X82550000Y-95474285D01*
X82621428Y-95474285D01*
X82728571Y-95510000D01*
X82764285Y-95545714D01*
X83085714Y-96224285D02*
X83085714Y-95474285D01*
X83514285Y-96224285D02*
X83192857Y-95795714D01*
X83514285Y-95474285D02*
X83085714Y-95902857D01*
X84447142Y-96224285D02*
X84447142Y-95474285D01*
X84697142Y-96010000D01*
X84947142Y-95474285D01*
X84947142Y-96224285D01*
X85447142Y-95474285D02*
X85590000Y-95474285D01*
X85661428Y-95510000D01*
X85732857Y-95581428D01*
X85768571Y-95724285D01*
X85768571Y-95974285D01*
X85732857Y-96117142D01*
X85661428Y-96188571D01*
X85590000Y-96224285D01*
X85447142Y-96224285D01*
X85375714Y-96188571D01*
X85304285Y-96117142D01*
X85268571Y-95974285D01*
X85268571Y-95724285D01*
X85304285Y-95581428D01*
X85375714Y-95510000D01*
X85447142Y-95474285D01*
X87201428Y-96224285D02*
X87201428Y-95474285D01*
X87451428Y-96010000D01*
X87701428Y-95474285D01*
X87701428Y-96224285D01*
X88058571Y-96224285D02*
X88058571Y-95474285D01*
X90045000Y-96224285D02*
X89795000Y-95867142D01*
X89616428Y-96224285D02*
X89616428Y-95474285D01*
X89902142Y-95474285D01*
X89973571Y-95510000D01*
X90009285Y-95545714D01*
X90045000Y-95617142D01*
X90045000Y-95724285D01*
X90009285Y-95795714D01*
X89973571Y-95831428D01*
X89902142Y-95867142D01*
X89616428Y-95867142D01*
X90295000Y-95474285D02*
X90795000Y-96224285D01*
X90795000Y-95474285D02*
X90295000Y-96224285D01*
X92138571Y-95474285D02*
X92567142Y-95474285D01*
X92352857Y-96224285D02*
X92352857Y-95474285D01*
X92745714Y-95474285D02*
X93245714Y-96224285D01*
X93245714Y-95474285D02*
X92745714Y-96224285D01*
D11*
X94619047Y-95849285D02*
X94452380Y-95849285D01*
X94452380Y-96111190D02*
X94452380Y-95611190D01*
X94690476Y-95611190D01*
X95166666Y-96111190D02*
X95000000Y-95873095D01*
X94880952Y-96111190D02*
X94880952Y-95611190D01*
X95071428Y-95611190D01*
X95119047Y-95635000D01*
X95142857Y-95658809D01*
X95166666Y-95706428D01*
X95166666Y-95777857D01*
X95142857Y-95825476D01*
X95119047Y-95849285D01*
X95071428Y-95873095D01*
X94880952Y-95873095D01*
X95380952Y-95849285D02*
X95547619Y-95849285D01*
X95619047Y-96111190D02*
X95380952Y-96111190D01*
X95380952Y-95611190D01*
X95619047Y-95611190D01*
X95833333Y-95849285D02*
X96000000Y-95849285D01*
X96071428Y-96111190D02*
X95833333Y-96111190D01*
X95833333Y-95611190D01*
X96071428Y-95611190D01*
D10*
X94339285Y-79678571D02*
X94446428Y-79714285D01*
X94625000Y-79714285D01*
X94696428Y-79678571D01*
X94732142Y-79642857D01*
X94767857Y-79571428D01*
X94767857Y-79500000D01*
X94732142Y-79428571D01*
X94696428Y-79392857D01*
X94625000Y-79357142D01*
X94482142Y-79321428D01*
X94410714Y-79285714D01*
X94375000Y-79250000D01*
X94339285Y-79178571D01*
X94339285Y-79107142D01*
X94375000Y-79035714D01*
X94410714Y-79000000D01*
X94482142Y-78964285D01*
X94660714Y-78964285D01*
X94767857Y-79000000D01*
X95089285Y-79714285D02*
X95089285Y-78964285D01*
X95267857Y-78964285D01*
X95375000Y-79000000D01*
X95446428Y-79071428D01*
X95482142Y-79142857D01*
X95517857Y-79285714D01*
X95517857Y-79392857D01*
X95482142Y-79535714D01*
X95446428Y-79607142D01*
X95375000Y-79678571D01*
X95267857Y-79714285D01*
X95089285Y-79714285D01*
X95803571Y-79500000D02*
X96160714Y-79500000D01*
X95732142Y-79714285D02*
X95982142Y-78964285D01*
X96232142Y-79714285D01*
X91817142Y-79678571D02*
X91924285Y-79714285D01*
X92102857Y-79714285D01*
X92174285Y-79678571D01*
X92210000Y-79642857D01*
X92245714Y-79571428D01*
X92245714Y-79500000D01*
X92210000Y-79428571D01*
X92174285Y-79392857D01*
X92102857Y-79357142D01*
X91960000Y-79321428D01*
X91888571Y-79285714D01*
X91852857Y-79250000D01*
X91817142Y-79178571D01*
X91817142Y-79107142D01*
X91852857Y-79035714D01*
X91888571Y-79000000D01*
X91960000Y-78964285D01*
X92138571Y-78964285D01*
X92245714Y-79000000D01*
X92995714Y-79642857D02*
X92960000Y-79678571D01*
X92852857Y-79714285D01*
X92781428Y-79714285D01*
X92674285Y-79678571D01*
X92602857Y-79607142D01*
X92567142Y-79535714D01*
X92531428Y-79392857D01*
X92531428Y-79285714D01*
X92567142Y-79142857D01*
X92602857Y-79071428D01*
X92674285Y-79000000D01*
X92781428Y-78964285D01*
X92852857Y-78964285D01*
X92960000Y-79000000D01*
X92995714Y-79035714D01*
X93674285Y-79714285D02*
X93317142Y-79714285D01*
X93317142Y-78964285D01*
X89616428Y-79714285D02*
X89616428Y-78964285D01*
X89795000Y-78964285D01*
X89902142Y-79000000D01*
X89973571Y-79071428D01*
X90009285Y-79142857D01*
X90045000Y-79285714D01*
X90045000Y-79392857D01*
X90009285Y-79535714D01*
X89973571Y-79607142D01*
X89902142Y-79678571D01*
X89795000Y-79714285D01*
X89616428Y-79714285D01*
X90723571Y-78964285D02*
X90366428Y-78964285D01*
X90330714Y-79321428D01*
X90366428Y-79285714D01*
X90437857Y-79250000D01*
X90616428Y-79250000D01*
X90687857Y-79285714D01*
X90723571Y-79321428D01*
X90759285Y-79392857D01*
X90759285Y-79571428D01*
X90723571Y-79642857D01*
X90687857Y-79678571D01*
X90616428Y-79714285D01*
X90437857Y-79714285D01*
X90366428Y-79678571D01*
X90330714Y-79642857D01*
X87076428Y-79714285D02*
X87076428Y-78964285D01*
X87255000Y-78964285D01*
X87362142Y-79000000D01*
X87433571Y-79071428D01*
X87469285Y-79142857D01*
X87505000Y-79285714D01*
X87505000Y-79392857D01*
X87469285Y-79535714D01*
X87433571Y-79607142D01*
X87362142Y-79678571D01*
X87255000Y-79714285D01*
X87076428Y-79714285D01*
X88147857Y-78964285D02*
X88005000Y-78964285D01*
X87933571Y-79000000D01*
X87897857Y-79035714D01*
X87826428Y-79142857D01*
X87790714Y-79285714D01*
X87790714Y-79571428D01*
X87826428Y-79642857D01*
X87862142Y-79678571D01*
X87933571Y-79714285D01*
X88076428Y-79714285D01*
X88147857Y-79678571D01*
X88183571Y-79642857D01*
X88219285Y-79571428D01*
X88219285Y-79392857D01*
X88183571Y-79321428D01*
X88147857Y-79285714D01*
X88076428Y-79250000D01*
X87933571Y-79250000D01*
X87862142Y-79285714D01*
X87826428Y-79321428D01*
X87790714Y-79392857D01*
X84536428Y-79714285D02*
X84536428Y-78964285D01*
X84715000Y-78964285D01*
X84822142Y-79000000D01*
X84893571Y-79071428D01*
X84929285Y-79142857D01*
X84965000Y-79285714D01*
X84965000Y-79392857D01*
X84929285Y-79535714D01*
X84893571Y-79607142D01*
X84822142Y-79678571D01*
X84715000Y-79714285D01*
X84536428Y-79714285D01*
X85322142Y-79714285D02*
X85465000Y-79714285D01*
X85536428Y-79678571D01*
X85572142Y-79642857D01*
X85643571Y-79535714D01*
X85679285Y-79392857D01*
X85679285Y-79107142D01*
X85643571Y-79035714D01*
X85607857Y-79000000D01*
X85536428Y-78964285D01*
X85393571Y-78964285D01*
X85322142Y-79000000D01*
X85286428Y-79035714D01*
X85250714Y-79107142D01*
X85250714Y-79285714D01*
X85286428Y-79357142D01*
X85322142Y-79392857D01*
X85393571Y-79428571D01*
X85536428Y-79428571D01*
X85607857Y-79392857D01*
X85643571Y-79357142D01*
X85679285Y-79285714D01*
X81639285Y-79714285D02*
X81639285Y-78964285D01*
X81817857Y-78964285D01*
X81925000Y-79000000D01*
X81996428Y-79071428D01*
X82032142Y-79142857D01*
X82067857Y-79285714D01*
X82067857Y-79392857D01*
X82032142Y-79535714D01*
X81996428Y-79607142D01*
X81925000Y-79678571D01*
X81817857Y-79714285D01*
X81639285Y-79714285D01*
X82782142Y-79714285D02*
X82353571Y-79714285D01*
X82567857Y-79714285D02*
X82567857Y-78964285D01*
X82496428Y-79071428D01*
X82425000Y-79142857D01*
X82353571Y-79178571D01*
X83246428Y-78964285D02*
X83317857Y-78964285D01*
X83389285Y-79000000D01*
X83425000Y-79035714D01*
X83460714Y-79107142D01*
X83496428Y-79250000D01*
X83496428Y-79428571D01*
X83460714Y-79571428D01*
X83425000Y-79642857D01*
X83389285Y-79678571D01*
X83317857Y-79714285D01*
X83246428Y-79714285D01*
X83175000Y-79678571D01*
X83139285Y-79642857D01*
X83103571Y-79571428D01*
X83067857Y-79428571D01*
X83067857Y-79250000D01*
X83103571Y-79107142D01*
X83139285Y-79035714D01*
X83175000Y-79000000D01*
X83246428Y-78964285D01*
X79099285Y-79714285D02*
X79099285Y-78964285D01*
X79277857Y-78964285D01*
X79385000Y-79000000D01*
X79456428Y-79071428D01*
X79492142Y-79142857D01*
X79527857Y-79285714D01*
X79527857Y-79392857D01*
X79492142Y-79535714D01*
X79456428Y-79607142D01*
X79385000Y-79678571D01*
X79277857Y-79714285D01*
X79099285Y-79714285D01*
X80242142Y-79714285D02*
X79813571Y-79714285D01*
X80027857Y-79714285D02*
X80027857Y-78964285D01*
X79956428Y-79071428D01*
X79885000Y-79142857D01*
X79813571Y-79178571D01*
X80956428Y-79714285D02*
X80527857Y-79714285D01*
X80742142Y-79714285D02*
X80742142Y-78964285D01*
X80670714Y-79071428D01*
X80599285Y-79142857D01*
X80527857Y-79178571D01*
X76559285Y-79714285D02*
X76559285Y-78964285D01*
X76737857Y-78964285D01*
X76845000Y-79000000D01*
X76916428Y-79071428D01*
X76952142Y-79142857D01*
X76987857Y-79285714D01*
X76987857Y-79392857D01*
X76952142Y-79535714D01*
X76916428Y-79607142D01*
X76845000Y-79678571D01*
X76737857Y-79714285D01*
X76559285Y-79714285D01*
X77702142Y-79714285D02*
X77273571Y-79714285D01*
X77487857Y-79714285D02*
X77487857Y-78964285D01*
X77416428Y-79071428D01*
X77345000Y-79142857D01*
X77273571Y-79178571D01*
X77987857Y-79035714D02*
X78023571Y-79000000D01*
X78095000Y-78964285D01*
X78273571Y-78964285D01*
X78345000Y-79000000D01*
X78380714Y-79035714D01*
X78416428Y-79107142D01*
X78416428Y-79178571D01*
X78380714Y-79285714D01*
X77952142Y-79714285D01*
X78416428Y-79714285D01*
X74019285Y-79714285D02*
X74019285Y-78964285D01*
X74197857Y-78964285D01*
X74305000Y-79000000D01*
X74376428Y-79071428D01*
X74412142Y-79142857D01*
X74447857Y-79285714D01*
X74447857Y-79392857D01*
X74412142Y-79535714D01*
X74376428Y-79607142D01*
X74305000Y-79678571D01*
X74197857Y-79714285D01*
X74019285Y-79714285D01*
X75162142Y-79714285D02*
X74733571Y-79714285D01*
X74947857Y-79714285D02*
X74947857Y-78964285D01*
X74876428Y-79071428D01*
X74805000Y-79142857D01*
X74733571Y-79178571D01*
X75412142Y-78964285D02*
X75876428Y-78964285D01*
X75626428Y-79250000D01*
X75733571Y-79250000D01*
X75805000Y-79285714D01*
X75840714Y-79321428D01*
X75876428Y-79392857D01*
X75876428Y-79571428D01*
X75840714Y-79642857D01*
X75805000Y-79678571D01*
X75733571Y-79714285D01*
X75519285Y-79714285D01*
X75447857Y-79678571D01*
X75412142Y-79642857D01*
X69296428Y-79321428D02*
X69546428Y-79321428D01*
X69653571Y-79714285D02*
X69296428Y-79714285D01*
X69296428Y-78964285D01*
X69653571Y-78964285D01*
X69975000Y-79714285D02*
X69975000Y-78964285D01*
X70403571Y-79714285D01*
X70403571Y-78964285D01*
D11*
X66488571Y-79101190D02*
X66655238Y-79601190D01*
X66821904Y-79101190D01*
X67155238Y-79339285D02*
X67226666Y-79363095D01*
X67250476Y-79386904D01*
X67274285Y-79434523D01*
X67274285Y-79505952D01*
X67250476Y-79553571D01*
X67226666Y-79577380D01*
X67179047Y-79601190D01*
X66988571Y-79601190D01*
X66988571Y-79101190D01*
X67155238Y-79101190D01*
X67202857Y-79125000D01*
X67226666Y-79148809D01*
X67250476Y-79196428D01*
X67250476Y-79244047D01*
X67226666Y-79291666D01*
X67202857Y-79315476D01*
X67155238Y-79339285D01*
X66988571Y-79339285D01*
X67464761Y-79458333D02*
X67702857Y-79458333D01*
X67417142Y-79601190D02*
X67583809Y-79101190D01*
X67750476Y-79601190D01*
X67845714Y-79101190D02*
X68131428Y-79101190D01*
X67988571Y-79601190D02*
X67988571Y-79101190D01*
X71473333Y-79101190D02*
X71640000Y-79601190D01*
X71806666Y-79101190D01*
X71973333Y-79101190D02*
X71973333Y-79505952D01*
X71997142Y-79553571D01*
X72020952Y-79577380D01*
X72068571Y-79601190D01*
X72163809Y-79601190D01*
X72211428Y-79577380D01*
X72235238Y-79553571D01*
X72259047Y-79505952D01*
X72259047Y-79101190D01*
X72473333Y-79577380D02*
X72544761Y-79601190D01*
X72663809Y-79601190D01*
X72711428Y-79577380D01*
X72735238Y-79553571D01*
X72759047Y-79505952D01*
X72759047Y-79458333D01*
X72735238Y-79410714D01*
X72711428Y-79386904D01*
X72663809Y-79363095D01*
X72568571Y-79339285D01*
X72520952Y-79315476D01*
X72497142Y-79291666D01*
X72473333Y-79244047D01*
X72473333Y-79196428D01*
X72497142Y-79148809D01*
X72520952Y-79125000D01*
X72568571Y-79101190D01*
X72687619Y-79101190D01*
X72759047Y-79125000D01*
X73140000Y-79339285D02*
X73211428Y-79363095D01*
X73235238Y-79386904D01*
X73259047Y-79434523D01*
X73259047Y-79505952D01*
X73235238Y-79553571D01*
X73211428Y-79577380D01*
X73163809Y-79601190D01*
X72973333Y-79601190D01*
X72973333Y-79101190D01*
X73140000Y-79101190D01*
X73187619Y-79125000D01*
X73211428Y-79148809D01*
X73235238Y-79196428D01*
X73235238Y-79244047D01*
X73211428Y-79291666D01*
X73187619Y-79315476D01*
X73140000Y-79339285D01*
X72973333Y-79339285D01*
D10*
X84197142Y-81226428D02*
X84447142Y-81226428D01*
X84554285Y-81619285D02*
X84197142Y-81619285D01*
X84197142Y-80869285D01*
X84554285Y-80869285D01*
X85304285Y-81547857D02*
X85268571Y-81583571D01*
X85161428Y-81619285D01*
X85090000Y-81619285D01*
X84982857Y-81583571D01*
X84911428Y-81512142D01*
X84875714Y-81440714D01*
X84840000Y-81297857D01*
X84840000Y-81190714D01*
X84875714Y-81047857D01*
X84911428Y-80976428D01*
X84982857Y-80905000D01*
X85090000Y-80869285D01*
X85161428Y-80869285D01*
X85268571Y-80905000D01*
X85304285Y-80940714D01*
X85590000Y-81583571D02*
X85697142Y-81619285D01*
X85875714Y-81619285D01*
X85947142Y-81583571D01*
X85982857Y-81547857D01*
X86018571Y-81476428D01*
X86018571Y-81405000D01*
X85982857Y-81333571D01*
X85947142Y-81297857D01*
X85875714Y-81262142D01*
X85732857Y-81226428D01*
X85661428Y-81190714D01*
X85625714Y-81155000D01*
X85590000Y-81083571D01*
X85590000Y-81012142D01*
X85625714Y-80940714D01*
X85661428Y-80905000D01*
X85732857Y-80869285D01*
X85911428Y-80869285D01*
X86018571Y-80905000D01*
X86719285Y-92541285D02*
X86719285Y-91791285D01*
X87005000Y-91791285D01*
X87076428Y-91827000D01*
X87112142Y-91862714D01*
X87147857Y-91934142D01*
X87147857Y-92041285D01*
X87112142Y-92112714D01*
X87076428Y-92148428D01*
X87005000Y-92184142D01*
X86719285Y-92184142D01*
X87862142Y-92541285D02*
X87433571Y-92541285D01*
X87647857Y-92541285D02*
X87647857Y-91791285D01*
X87576428Y-91898428D01*
X87505000Y-91969857D01*
X87433571Y-92005571D01*
X88505000Y-92041285D02*
X88505000Y-92541285D01*
X88326428Y-91755571D02*
X88147857Y-92291285D01*
X88612142Y-92291285D01*
X99101472Y-83498515D02*
X99101472Y-82998515D01*
X99101472Y-83069944D02*
X99137186Y-83034230D01*
X99208615Y-82998515D01*
X99315758Y-82998515D01*
X99387186Y-83034230D01*
X99422901Y-83105658D01*
X99422901Y-83498515D01*
X99422901Y-83105658D02*
X99458615Y-83034230D01*
X99530044Y-82998515D01*
X99637186Y-82998515D01*
X99708615Y-83034230D01*
X99744329Y-83105658D01*
X99744329Y-83498515D01*
X100101472Y-83498515D02*
X100101472Y-82998515D01*
X100101472Y-82748515D02*
X100065758Y-82784230D01*
X100101472Y-82819944D01*
X100137186Y-82784230D01*
X100101472Y-82748515D01*
X100101472Y-82819944D01*
X100780044Y-83462801D02*
X100708615Y-83498515D01*
X100565758Y-83498515D01*
X100494329Y-83462801D01*
X100458615Y-83427087D01*
X100422901Y-83355658D01*
X100422901Y-83141372D01*
X100458615Y-83069944D01*
X100494329Y-83034230D01*
X100565758Y-82998515D01*
X100708615Y-82998515D01*
X100780044Y-83034230D01*
X101101472Y-83498515D02*
X101101472Y-82998515D01*
X101101472Y-83141372D02*
X101137186Y-83069944D01*
X101172901Y-83034230D01*
X101244329Y-82998515D01*
X101315758Y-82998515D01*
X101672901Y-83498515D02*
X101601472Y-83462801D01*
X101565758Y-83427087D01*
X101530044Y-83355658D01*
X101530044Y-83141372D01*
X101565758Y-83069944D01*
X101601472Y-83034230D01*
X101672901Y-82998515D01*
X101780044Y-82998515D01*
X101851472Y-83034230D01*
X101887186Y-83069944D01*
X101922901Y-83141372D01*
X101922901Y-83355658D01*
X101887186Y-83427087D01*
X101851472Y-83462801D01*
X101780044Y-83498515D01*
X101672901Y-83498515D01*
X102244329Y-83427087D02*
X102280044Y-83462801D01*
X102244329Y-83498515D01*
X102208615Y-83462801D01*
X102244329Y-83427087D01*
X102244329Y-83498515D01*
X102244329Y-83034230D02*
X102280044Y-83069944D01*
X102244329Y-83105658D01*
X102208615Y-83069944D01*
X102244329Y-83034230D01*
X102244329Y-83105658D01*
X102601472Y-83498515D02*
X102601472Y-82748515D01*
X102601472Y-83034230D02*
X102672901Y-82998515D01*
X102815758Y-82998515D01*
X102887186Y-83034230D01*
X102922901Y-83069944D01*
X102958615Y-83141372D01*
X102958615Y-83355658D01*
X102922901Y-83427087D01*
X102887186Y-83462801D01*
X102815758Y-83498515D01*
X102672901Y-83498515D01*
X102601472Y-83462801D01*
X103280044Y-83498515D02*
X103280044Y-82998515D01*
X103280044Y-82748515D02*
X103244329Y-82784230D01*
X103280044Y-82819944D01*
X103315758Y-82784230D01*
X103280044Y-82748515D01*
X103280044Y-82819944D01*
X103530044Y-82998515D02*
X103815758Y-82998515D01*
X103637186Y-82748515D02*
X103637186Y-83391372D01*
X103672901Y-83462801D01*
X103744329Y-83498515D01*
X103815758Y-83498515D01*
X76916428Y-83524285D02*
X76916428Y-82774285D01*
X77202142Y-82774285D01*
X77273571Y-82810000D01*
X77309285Y-82845714D01*
X77345000Y-82917142D01*
X77345000Y-83024285D01*
X77309285Y-83095714D01*
X77273571Y-83131428D01*
X77202142Y-83167142D01*
X76916428Y-83167142D01*
X77809285Y-82774285D02*
X77880714Y-82774285D01*
X77952142Y-82810000D01*
X77987857Y-82845714D01*
X78023571Y-82917142D01*
X78059285Y-83060000D01*
X78059285Y-83238571D01*
X78023571Y-83381428D01*
X77987857Y-83452857D01*
X77952142Y-83488571D01*
X77880714Y-83524285D01*
X77809285Y-83524285D01*
X77737857Y-83488571D01*
X77702142Y-83452857D01*
X77666428Y-83381428D01*
X77630714Y-83238571D01*
X77630714Y-83060000D01*
X77666428Y-82917142D01*
X77702142Y-82845714D01*
X77737857Y-82810000D01*
X77809285Y-82774285D01*
X59118571Y-91791285D02*
X59582857Y-91791285D01*
X59332857Y-92077000D01*
X59440000Y-92077000D01*
X59511428Y-92112714D01*
X59547142Y-92148428D01*
X59582857Y-92219857D01*
X59582857Y-92398428D01*
X59547142Y-92469857D01*
X59511428Y-92505571D01*
X59440000Y-92541285D01*
X59225714Y-92541285D01*
X59154285Y-92505571D01*
X59118571Y-92469857D01*
X59797142Y-91791285D02*
X60047142Y-92541285D01*
X60297142Y-91791285D01*
X99152332Y-92514399D02*
X99152332Y-92014399D01*
X99152332Y-92085828D02*
X99188046Y-92050114D01*
X99259475Y-92014399D01*
X99366618Y-92014399D01*
X99438046Y-92050114D01*
X99473761Y-92121542D01*
X99473761Y-92514399D01*
X99473761Y-92121542D02*
X99509475Y-92050114D01*
X99580904Y-92014399D01*
X99688046Y-92014399D01*
X99759475Y-92050114D01*
X99795189Y-92121542D01*
X99795189Y-92514399D01*
X100152332Y-92514399D02*
X100152332Y-92014399D01*
X100152332Y-91764399D02*
X100116618Y-91800114D01*
X100152332Y-91835828D01*
X100188046Y-91800114D01*
X100152332Y-91764399D01*
X100152332Y-91835828D01*
X100830904Y-92478685D02*
X100759475Y-92514399D01*
X100616618Y-92514399D01*
X100545189Y-92478685D01*
X100509475Y-92442971D01*
X100473761Y-92371542D01*
X100473761Y-92157256D01*
X100509475Y-92085828D01*
X100545189Y-92050114D01*
X100616618Y-92014399D01*
X100759475Y-92014399D01*
X100830904Y-92050114D01*
X101152332Y-92514399D02*
X101152332Y-92014399D01*
X101152332Y-92157256D02*
X101188046Y-92085828D01*
X101223761Y-92050114D01*
X101295189Y-92014399D01*
X101366618Y-92014399D01*
X101723761Y-92514399D02*
X101652332Y-92478685D01*
X101616618Y-92442971D01*
X101580904Y-92371542D01*
X101580904Y-92157256D01*
X101616618Y-92085828D01*
X101652332Y-92050114D01*
X101723761Y-92014399D01*
X101830904Y-92014399D01*
X101902332Y-92050114D01*
X101938046Y-92085828D01*
X101973761Y-92157256D01*
X101973761Y-92371542D01*
X101938046Y-92442971D01*
X101902332Y-92478685D01*
X101830904Y-92514399D01*
X101723761Y-92514399D01*
X102295189Y-92442971D02*
X102330904Y-92478685D01*
X102295189Y-92514399D01*
X102259475Y-92478685D01*
X102295189Y-92442971D01*
X102295189Y-92514399D01*
X102295189Y-92050114D02*
X102330904Y-92085828D01*
X102295189Y-92121542D01*
X102259475Y-92085828D01*
X102295189Y-92050114D01*
X102295189Y-92121542D01*
X102652332Y-92514399D02*
X102652332Y-91764399D01*
X102652332Y-92050114D02*
X102723761Y-92014399D01*
X102866618Y-92014399D01*
X102938046Y-92050114D01*
X102973761Y-92085828D01*
X103009475Y-92157256D01*
X103009475Y-92371542D01*
X102973761Y-92442971D01*
X102938046Y-92478685D01*
X102866618Y-92514399D01*
X102723761Y-92514399D01*
X102652332Y-92478685D01*
X103330904Y-92514399D02*
X103330904Y-92014399D01*
X103330904Y-91764399D02*
X103295189Y-91800114D01*
X103330904Y-91835828D01*
X103366618Y-91800114D01*
X103330904Y-91764399D01*
X103330904Y-91835828D01*
X103580904Y-92014399D02*
X103866618Y-92014399D01*
X103688046Y-91764399D02*
X103688046Y-92407256D01*
X103723761Y-92478685D01*
X103795189Y-92514399D01*
X103866618Y-92514399D01*
X99464016Y-94284494D02*
X99392588Y-94320208D01*
X99249730Y-94320208D01*
X99178302Y-94284494D01*
X99142588Y-94213065D01*
X99142588Y-93927351D01*
X99178302Y-93855923D01*
X99249730Y-93820208D01*
X99392588Y-93820208D01*
X99464016Y-93855923D01*
X99499730Y-93927351D01*
X99499730Y-93998780D01*
X99142588Y-94070208D01*
X99821159Y-94320208D02*
X99821159Y-93570208D01*
X100178302Y-93820208D02*
X100178302Y-94320208D01*
X100178302Y-93891637D02*
X100214016Y-93855923D01*
X100285445Y-93820208D01*
X100392588Y-93820208D01*
X100464016Y-93855923D01*
X100499730Y-93927351D01*
X100499730Y-94320208D01*
X100856873Y-94320208D02*
X100856873Y-93570208D01*
X100928302Y-94034494D02*
X101142588Y-94320208D01*
X101142588Y-93820208D02*
X100856873Y-94105923D01*
D11*
X84290968Y-94299814D02*
X84290968Y-93799814D01*
X84457635Y-94156957D01*
X84624302Y-93799814D01*
X84624302Y-94299814D01*
X84957635Y-93799814D02*
X85052873Y-93799814D01*
X85100492Y-93823624D01*
X85148111Y-93871243D01*
X85171921Y-93966481D01*
X85171921Y-94133147D01*
X85148111Y-94228385D01*
X85100492Y-94276004D01*
X85052873Y-94299814D01*
X84957635Y-94299814D01*
X84910016Y-94276004D01*
X84862397Y-94228385D01*
X84838587Y-94133147D01*
X84838587Y-93966481D01*
X84862397Y-93871243D01*
X84910016Y-93823624D01*
X84957635Y-93799814D01*
X85362397Y-94276004D02*
X85433825Y-94299814D01*
X85552873Y-94299814D01*
X85600492Y-94276004D01*
X85624302Y-94252195D01*
X85648111Y-94204576D01*
X85648111Y-94156957D01*
X85624302Y-94109338D01*
X85600492Y-94085528D01*
X85552873Y-94061719D01*
X85457635Y-94037909D01*
X85410016Y-94014100D01*
X85386206Y-93990290D01*
X85362397Y-93942671D01*
X85362397Y-93895052D01*
X85386206Y-93847433D01*
X85410016Y-93823624D01*
X85457635Y-93799814D01*
X85576683Y-93799814D01*
X85648111Y-93823624D01*
X85862397Y-94299814D02*
X85862397Y-93799814D01*
D10*
X99401194Y-95831658D02*
X99151194Y-95831658D01*
X99151194Y-96224515D02*
X99151194Y-95474515D01*
X99508337Y-95474515D01*
X100079766Y-96188801D02*
X100008337Y-96224515D01*
X99865480Y-96224515D01*
X99794051Y-96188801D01*
X99758337Y-96117372D01*
X99758337Y-95831658D01*
X99794051Y-95760230D01*
X99865480Y-95724515D01*
X100008337Y-95724515D01*
X100079766Y-95760230D01*
X100115480Y-95831658D01*
X100115480Y-95903087D01*
X99758337Y-95974515D01*
X100758337Y-96224515D02*
X100758337Y-95831658D01*
X100722623Y-95760230D01*
X100651194Y-95724515D01*
X100508337Y-95724515D01*
X100436909Y-95760230D01*
X100758337Y-96188801D02*
X100686909Y-96224515D01*
X100508337Y-96224515D01*
X100436909Y-96188801D01*
X100401194Y-96117372D01*
X100401194Y-96045944D01*
X100436909Y-95974515D01*
X100508337Y-95938801D01*
X100686909Y-95938801D01*
X100758337Y-95903087D01*
X101008337Y-95724515D02*
X101294051Y-95724515D01*
X101115480Y-95474515D02*
X101115480Y-96117372D01*
X101151194Y-96188801D01*
X101222623Y-96224515D01*
X101294051Y-96224515D01*
X101544051Y-96224515D02*
X101544051Y-95474515D01*
X101865480Y-96224515D02*
X101865480Y-95831658D01*
X101829766Y-95760230D01*
X101758337Y-95724515D01*
X101651194Y-95724515D01*
X101579766Y-95760230D01*
X101544051Y-95795944D01*
X102508337Y-96188801D02*
X102436909Y-96224515D01*
X102294051Y-96224515D01*
X102222623Y-96188801D01*
X102186909Y-96117372D01*
X102186909Y-95831658D01*
X102222623Y-95760230D01*
X102294051Y-95724515D01*
X102436909Y-95724515D01*
X102508337Y-95760230D01*
X102544051Y-95831658D01*
X102544051Y-95903087D01*
X102186909Y-95974515D01*
X102865480Y-96224515D02*
X102865480Y-95724515D01*
X102865480Y-95867372D02*
X102901194Y-95795944D01*
X102936909Y-95760230D01*
X103008337Y-95724515D01*
X103079766Y-95724515D01*
X89259285Y-83524285D02*
X89259285Y-82774285D01*
X89545000Y-82774285D01*
X89616428Y-82810000D01*
X89652142Y-82845714D01*
X89687857Y-82917142D01*
X89687857Y-83024285D01*
X89652142Y-83095714D01*
X89616428Y-83131428D01*
X89545000Y-83167142D01*
X89259285Y-83167142D01*
X90402142Y-83524285D02*
X89973571Y-83524285D01*
X90187857Y-83524285D02*
X90187857Y-82774285D01*
X90116428Y-82881428D01*
X90045000Y-82952857D01*
X89973571Y-82988571D01*
X91045000Y-82774285D02*
X90902142Y-82774285D01*
X90830714Y-82810000D01*
X90795000Y-82845714D01*
X90723571Y-82952857D01*
X90687857Y-83095714D01*
X90687857Y-83381428D01*
X90723571Y-83452857D01*
X90759285Y-83488571D01*
X90830714Y-83524285D01*
X90973571Y-83524285D01*
X91045000Y-83488571D01*
X91080714Y-83452857D01*
X91116428Y-83381428D01*
X91116428Y-83202857D01*
X91080714Y-83131428D01*
X91045000Y-83095714D01*
X90973571Y-83060000D01*
X90830714Y-83060000D01*
X90759285Y-83095714D01*
X90723571Y-83131428D01*
X90687857Y-83202857D01*
D11*
X89289047Y-81482380D02*
X89360476Y-81506190D01*
X89479523Y-81506190D01*
X89527142Y-81482380D01*
X89550952Y-81458571D01*
X89574761Y-81410952D01*
X89574761Y-81363333D01*
X89550952Y-81315714D01*
X89527142Y-81291904D01*
X89479523Y-81268095D01*
X89384285Y-81244285D01*
X89336666Y-81220476D01*
X89312857Y-81196666D01*
X89289047Y-81149047D01*
X89289047Y-81101428D01*
X89312857Y-81053809D01*
X89336666Y-81030000D01*
X89384285Y-81006190D01*
X89503333Y-81006190D01*
X89574761Y-81030000D01*
X89789047Y-81506190D02*
X89789047Y-81006190D01*
X89908095Y-81006190D01*
X89979523Y-81030000D01*
X90027142Y-81077619D01*
X90050952Y-81125238D01*
X90074761Y-81220476D01*
X90074761Y-81291904D01*
X90050952Y-81387142D01*
X90027142Y-81434761D01*
X89979523Y-81482380D01*
X89908095Y-81506190D01*
X89789047Y-81506190D01*
X90574761Y-81458571D02*
X90550952Y-81482380D01*
X90479523Y-81506190D01*
X90431904Y-81506190D01*
X90360476Y-81482380D01*
X90312857Y-81434761D01*
X90289047Y-81387142D01*
X90265238Y-81291904D01*
X90265238Y-81220476D01*
X90289047Y-81125238D01*
X90312857Y-81077619D01*
X90360476Y-81030000D01*
X90431904Y-81006190D01*
X90479523Y-81006190D01*
X90550952Y-81030000D01*
X90574761Y-81053809D01*
X90765238Y-81482380D02*
X90836666Y-81506190D01*
X90955714Y-81506190D01*
X91003333Y-81482380D01*
X91027142Y-81458571D01*
X91050952Y-81410952D01*
X91050952Y-81363333D01*
X91027142Y-81315714D01*
X91003333Y-81291904D01*
X90955714Y-81268095D01*
X90860476Y-81244285D01*
X90812857Y-81220476D01*
X90789047Y-81196666D01*
X90765238Y-81149047D01*
X90765238Y-81101428D01*
X90789047Y-81053809D01*
X90812857Y-81030000D01*
X90860476Y-81006190D01*
X90979523Y-81006190D01*
X91050952Y-81030000D01*
D10*
X87076428Y-83524285D02*
X87076428Y-82774285D01*
X87362142Y-82774285D01*
X87433571Y-82810000D01*
X87469285Y-82845714D01*
X87505000Y-82917142D01*
X87505000Y-83024285D01*
X87469285Y-83095714D01*
X87433571Y-83131428D01*
X87362142Y-83167142D01*
X87076428Y-83167142D01*
X87933571Y-83095714D02*
X87862142Y-83060000D01*
X87826428Y-83024285D01*
X87790714Y-82952857D01*
X87790714Y-82917142D01*
X87826428Y-82845714D01*
X87862142Y-82810000D01*
X87933571Y-82774285D01*
X88076428Y-82774285D01*
X88147857Y-82810000D01*
X88183571Y-82845714D01*
X88219285Y-82917142D01*
X88219285Y-82952857D01*
X88183571Y-83024285D01*
X88147857Y-83060000D01*
X88076428Y-83095714D01*
X87933571Y-83095714D01*
X87862142Y-83131428D01*
X87826428Y-83167142D01*
X87790714Y-83238571D01*
X87790714Y-83381428D01*
X87826428Y-83452857D01*
X87862142Y-83488571D01*
X87933571Y-83524285D01*
X88076428Y-83524285D01*
X88147857Y-83488571D01*
X88183571Y-83452857D01*
X88219285Y-83381428D01*
X88219285Y-83238571D01*
X88183571Y-83167142D01*
X88147857Y-83131428D01*
X88076428Y-83095714D01*
X64198571Y-91827000D02*
X64127142Y-91791285D01*
X64020000Y-91791285D01*
X63912857Y-91827000D01*
X63841428Y-91898428D01*
X63805714Y-91969857D01*
X63770000Y-92112714D01*
X63770000Y-92219857D01*
X63805714Y-92362714D01*
X63841428Y-92434142D01*
X63912857Y-92505571D01*
X64020000Y-92541285D01*
X64091428Y-92541285D01*
X64198571Y-92505571D01*
X64234285Y-92469857D01*
X64234285Y-92219857D01*
X64091428Y-92219857D01*
X64555714Y-92541285D02*
X64555714Y-91791285D01*
X64984285Y-92541285D01*
X64984285Y-91791285D01*
X65341428Y-92541285D02*
X65341428Y-91791285D01*
X65520000Y-91791285D01*
X65627142Y-91827000D01*
X65698571Y-91898428D01*
X65734285Y-91969857D01*
X65770000Y-92112714D01*
X65770000Y-92219857D01*
X65734285Y-92362714D01*
X65698571Y-92434142D01*
X65627142Y-92505571D01*
X65520000Y-92541285D01*
X65341428Y-92541285D01*
X79742142Y-81226428D02*
X79849285Y-81262142D01*
X79885000Y-81297857D01*
X79920714Y-81369285D01*
X79920714Y-81476428D01*
X79885000Y-81547857D01*
X79849285Y-81583571D01*
X79777857Y-81619285D01*
X79492142Y-81619285D01*
X79492142Y-80869285D01*
X79742142Y-80869285D01*
X79813571Y-80905000D01*
X79849285Y-80940714D01*
X79885000Y-81012142D01*
X79885000Y-81083571D01*
X79849285Y-81155000D01*
X79813571Y-81190714D01*
X79742142Y-81226428D01*
X79492142Y-81226428D01*
X80206428Y-81405000D02*
X80563571Y-81405000D01*
X80135000Y-81619285D02*
X80385000Y-80869285D01*
X80635000Y-81619285D01*
X74608571Y-81226428D02*
X74715714Y-81262142D01*
X74751428Y-81297857D01*
X74787142Y-81369285D01*
X74787142Y-81476428D01*
X74751428Y-81547857D01*
X74715714Y-81583571D01*
X74644285Y-81619285D01*
X74358571Y-81619285D01*
X74358571Y-80869285D01*
X74608571Y-80869285D01*
X74680000Y-80905000D01*
X74715714Y-80940714D01*
X74751428Y-81012142D01*
X74751428Y-81083571D01*
X74715714Y-81155000D01*
X74680000Y-81190714D01*
X74608571Y-81226428D01*
X74358571Y-81226428D01*
X75537142Y-81547857D02*
X75501428Y-81583571D01*
X75394285Y-81619285D01*
X75322857Y-81619285D01*
X75215714Y-81583571D01*
X75144285Y-81512142D01*
X75108571Y-81440714D01*
X75072857Y-81297857D01*
X75072857Y-81190714D01*
X75108571Y-81047857D01*
X75144285Y-80976428D01*
X75215714Y-80905000D01*
X75322857Y-80869285D01*
X75394285Y-80869285D01*
X75501428Y-80905000D01*
X75537142Y-80940714D01*
X84179285Y-92541285D02*
X84179285Y-91791285D01*
X84465000Y-91791285D01*
X84536428Y-91827000D01*
X84572142Y-91862714D01*
X84607857Y-91934142D01*
X84607857Y-92041285D01*
X84572142Y-92112714D01*
X84536428Y-92148428D01*
X84465000Y-92184142D01*
X84179285Y-92184142D01*
X85322142Y-92541285D02*
X84893571Y-92541285D01*
X85107857Y-92541285D02*
X85107857Y-91791285D01*
X85036428Y-91898428D01*
X84965000Y-91969857D01*
X84893571Y-92005571D01*
X86000714Y-91791285D02*
X85643571Y-91791285D01*
X85607857Y-92148428D01*
X85643571Y-92112714D01*
X85715000Y-92077000D01*
X85893571Y-92077000D01*
X85965000Y-92112714D01*
X86000714Y-92148428D01*
X86036428Y-92219857D01*
X86036428Y-92398428D01*
X86000714Y-92469857D01*
X85965000Y-92505571D01*
X85893571Y-92541285D01*
X85715000Y-92541285D01*
X85643571Y-92505571D01*
X85607857Y-92469857D01*
X56815254Y-94020052D02*
X56922397Y-94055766D01*
X56958111Y-94091481D01*
X56993825Y-94162909D01*
X56993825Y-94270052D01*
X56958111Y-94341481D01*
X56922397Y-94377195D01*
X56850968Y-94412909D01*
X56565254Y-94412909D01*
X56565254Y-93662909D01*
X56815254Y-93662909D01*
X56886683Y-93698624D01*
X56922397Y-93734338D01*
X56958111Y-93805766D01*
X56958111Y-93877195D01*
X56922397Y-93948624D01*
X56886683Y-93984338D01*
X56815254Y-94020052D01*
X56565254Y-94020052D01*
X57743825Y-94412909D02*
X57493825Y-94055766D01*
X57315254Y-94412909D02*
X57315254Y-93662909D01*
X57600968Y-93662909D01*
X57672397Y-93698624D01*
X57708111Y-93734338D01*
X57743825Y-93805766D01*
X57743825Y-93912909D01*
X57708111Y-93984338D01*
X57672397Y-94020052D01*
X57600968Y-94055766D01*
X57315254Y-94055766D01*
D11*
X86749047Y-81482380D02*
X86820476Y-81506190D01*
X86939523Y-81506190D01*
X86987142Y-81482380D01*
X87010952Y-81458571D01*
X87034761Y-81410952D01*
X87034761Y-81363333D01*
X87010952Y-81315714D01*
X86987142Y-81291904D01*
X86939523Y-81268095D01*
X86844285Y-81244285D01*
X86796666Y-81220476D01*
X86772857Y-81196666D01*
X86749047Y-81149047D01*
X86749047Y-81101428D01*
X86772857Y-81053809D01*
X86796666Y-81030000D01*
X86844285Y-81006190D01*
X86963333Y-81006190D01*
X87034761Y-81030000D01*
X87534761Y-81506190D02*
X87368095Y-81268095D01*
X87249047Y-81506190D02*
X87249047Y-81006190D01*
X87439523Y-81006190D01*
X87487142Y-81030000D01*
X87510952Y-81053809D01*
X87534761Y-81101428D01*
X87534761Y-81172857D01*
X87510952Y-81220476D01*
X87487142Y-81244285D01*
X87439523Y-81268095D01*
X87249047Y-81268095D01*
X88034761Y-81458571D02*
X88010952Y-81482380D01*
X87939523Y-81506190D01*
X87891904Y-81506190D01*
X87820476Y-81482380D01*
X87772857Y-81434761D01*
X87749047Y-81387142D01*
X87725238Y-81291904D01*
X87725238Y-81220476D01*
X87749047Y-81125238D01*
X87772857Y-81077619D01*
X87820476Y-81030000D01*
X87891904Y-81006190D01*
X87939523Y-81006190D01*
X88010952Y-81030000D01*
X88034761Y-81053809D01*
X88225238Y-81482380D02*
X88296666Y-81506190D01*
X88415714Y-81506190D01*
X88463333Y-81482380D01*
X88487142Y-81458571D01*
X88510952Y-81410952D01*
X88510952Y-81363333D01*
X88487142Y-81315714D01*
X88463333Y-81291904D01*
X88415714Y-81268095D01*
X88320476Y-81244285D01*
X88272857Y-81220476D01*
X88249047Y-81196666D01*
X88225238Y-81149047D01*
X88225238Y-81101428D01*
X88249047Y-81053809D01*
X88272857Y-81030000D01*
X88320476Y-81006190D01*
X88439523Y-81006190D01*
X88510952Y-81030000D01*
D10*
X77148571Y-81226428D02*
X77255714Y-81262142D01*
X77291428Y-81297857D01*
X77327142Y-81369285D01*
X77327142Y-81476428D01*
X77291428Y-81547857D01*
X77255714Y-81583571D01*
X77184285Y-81619285D01*
X76898571Y-81619285D01*
X76898571Y-80869285D01*
X77148571Y-80869285D01*
X77220000Y-80905000D01*
X77255714Y-80940714D01*
X77291428Y-81012142D01*
X77291428Y-81083571D01*
X77255714Y-81155000D01*
X77220000Y-81190714D01*
X77148571Y-81226428D01*
X76898571Y-81226428D01*
X77898571Y-81226428D02*
X78005714Y-81262142D01*
X78041428Y-81297857D01*
X78077142Y-81369285D01*
X78077142Y-81476428D01*
X78041428Y-81547857D01*
X78005714Y-81583571D01*
X77934285Y-81619285D01*
X77648571Y-81619285D01*
X77648571Y-80869285D01*
X77898571Y-80869285D01*
X77970000Y-80905000D01*
X78005714Y-80940714D01*
X78041428Y-81012142D01*
X78041428Y-81083571D01*
X78005714Y-81155000D01*
X77970000Y-81190714D01*
X77898571Y-81226428D01*
X77648571Y-81226428D01*
X99453970Y-81592443D02*
X99382542Y-81628157D01*
X99239684Y-81628157D01*
X99168256Y-81592443D01*
X99132542Y-81521014D01*
X99132542Y-81235300D01*
X99168256Y-81163872D01*
X99239684Y-81128157D01*
X99382542Y-81128157D01*
X99453970Y-81163872D01*
X99489684Y-81235300D01*
X99489684Y-81306729D01*
X99132542Y-81378157D01*
X99811113Y-81628157D02*
X99811113Y-80878157D01*
X100168256Y-81128157D02*
X100168256Y-81628157D01*
X100168256Y-81199586D02*
X100203970Y-81163872D01*
X100275399Y-81128157D01*
X100382542Y-81128157D01*
X100453970Y-81163872D01*
X100489684Y-81235300D01*
X100489684Y-81628157D01*
X100846827Y-81628157D02*
X100846827Y-80878157D01*
X100918256Y-81342443D02*
X101132542Y-81628157D01*
X101132542Y-81128157D02*
X100846827Y-81413872D01*
X81639285Y-92541285D02*
X81639285Y-91791285D01*
X81925000Y-91791285D01*
X81996428Y-91827000D01*
X82032142Y-91862714D01*
X82067857Y-91934142D01*
X82067857Y-92041285D01*
X82032142Y-92112714D01*
X81996428Y-92148428D01*
X81925000Y-92184142D01*
X81639285Y-92184142D01*
X82782142Y-92541285D02*
X82353571Y-92541285D01*
X82567857Y-92541285D02*
X82567857Y-91791285D01*
X82496428Y-91898428D01*
X82425000Y-91969857D01*
X82353571Y-92005571D01*
X83032142Y-91791285D02*
X83496428Y-91791285D01*
X83246428Y-92077000D01*
X83353571Y-92077000D01*
X83425000Y-92112714D01*
X83460714Y-92148428D01*
X83496428Y-92219857D01*
X83496428Y-92398428D01*
X83460714Y-92469857D01*
X83425000Y-92505571D01*
X83353571Y-92541285D01*
X83139285Y-92541285D01*
X83067857Y-92505571D01*
X83032142Y-92469857D01*
X58748111Y-93662909D02*
X59212397Y-93662909D01*
X58962397Y-93948624D01*
X59069540Y-93948624D01*
X59140968Y-93984338D01*
X59176683Y-94020052D01*
X59212397Y-94091481D01*
X59212397Y-94270052D01*
X59176683Y-94341481D01*
X59140968Y-94377195D01*
X59069540Y-94412909D01*
X58855254Y-94412909D01*
X58783825Y-94377195D01*
X58748111Y-94341481D01*
X59426683Y-93662909D02*
X59676683Y-94412909D01*
X59926683Y-93662909D01*
X60105254Y-93662909D02*
X60569540Y-93662909D01*
X60319540Y-93948624D01*
X60426683Y-93948624D01*
X60498111Y-93984338D01*
X60533825Y-94020052D01*
X60569540Y-94091481D01*
X60569540Y-94270052D01*
X60533825Y-94341481D01*
X60498111Y-94377195D01*
X60426683Y-94412909D01*
X60212397Y-94412909D01*
X60140968Y-94377195D01*
X60105254Y-94341481D01*
X99390131Y-79333146D02*
X99140131Y-79333146D01*
X99140131Y-79726003D02*
X99140131Y-78976003D01*
X99497274Y-78976003D01*
X100068703Y-79690289D02*
X99997274Y-79726003D01*
X99854417Y-79726003D01*
X99782988Y-79690289D01*
X99747274Y-79618860D01*
X99747274Y-79333146D01*
X99782988Y-79261718D01*
X99854417Y-79226003D01*
X99997274Y-79226003D01*
X100068703Y-79261718D01*
X100104417Y-79333146D01*
X100104417Y-79404575D01*
X99747274Y-79476003D01*
X100747274Y-79726003D02*
X100747274Y-79333146D01*
X100711560Y-79261718D01*
X100640131Y-79226003D01*
X100497274Y-79226003D01*
X100425846Y-79261718D01*
X100747274Y-79690289D02*
X100675846Y-79726003D01*
X100497274Y-79726003D01*
X100425846Y-79690289D01*
X100390131Y-79618860D01*
X100390131Y-79547432D01*
X100425846Y-79476003D01*
X100497274Y-79440289D01*
X100675846Y-79440289D01*
X100747274Y-79404575D01*
X100997274Y-79226003D02*
X101282988Y-79226003D01*
X101104417Y-78976003D02*
X101104417Y-79618860D01*
X101140131Y-79690289D01*
X101211560Y-79726003D01*
X101282988Y-79726003D01*
X101532988Y-79726003D02*
X101532988Y-78976003D01*
X101854417Y-79726003D02*
X101854417Y-79333146D01*
X101818703Y-79261718D01*
X101747274Y-79226003D01*
X101640131Y-79226003D01*
X101568703Y-79261718D01*
X101532988Y-79297432D01*
X102497274Y-79690289D02*
X102425846Y-79726003D01*
X102282988Y-79726003D01*
X102211560Y-79690289D01*
X102175846Y-79618860D01*
X102175846Y-79333146D01*
X102211560Y-79261718D01*
X102282988Y-79226003D01*
X102425846Y-79226003D01*
X102497274Y-79261718D01*
X102532988Y-79333146D01*
X102532988Y-79404575D01*
X102175846Y-79476003D01*
X102854417Y-79726003D02*
X102854417Y-79226003D01*
X102854417Y-79368860D02*
X102890131Y-79297432D01*
X102925846Y-79261718D01*
X102997274Y-79226003D01*
X103068703Y-79226003D01*
X56132142Y-95262500D02*
X56882142Y-95262500D01*
X56739285Y-96224285D02*
X56489285Y-95867142D01*
X56310714Y-96224285D02*
X56310714Y-95474285D01*
X56596428Y-95474285D01*
X56667857Y-95510000D01*
X56703571Y-95545714D01*
X56739285Y-95617142D01*
X56739285Y-95724285D01*
X56703571Y-95795714D01*
X56667857Y-95831428D01*
X56596428Y-95867142D01*
X56310714Y-95867142D01*
X56882142Y-95262500D02*
X57596428Y-95262500D01*
X57025000Y-96188571D02*
X57132142Y-96224285D01*
X57310714Y-96224285D01*
X57382142Y-96188571D01*
X57417857Y-96152857D01*
X57453571Y-96081428D01*
X57453571Y-96010000D01*
X57417857Y-95938571D01*
X57382142Y-95902857D01*
X57310714Y-95867142D01*
X57167857Y-95831428D01*
X57096428Y-95795714D01*
X57060714Y-95760000D01*
X57025000Y-95688571D01*
X57025000Y-95617142D01*
X57060714Y-95545714D01*
X57096428Y-95510000D01*
X57167857Y-95474285D01*
X57346428Y-95474285D01*
X57453571Y-95510000D01*
X57596428Y-95262500D02*
X58167857Y-95262500D01*
X57667857Y-95474285D02*
X58096428Y-95474285D01*
X57882142Y-96224285D02*
X57882142Y-95474285D01*
X81585714Y-81619285D02*
X81585714Y-80869285D01*
X81764285Y-80869285D01*
X81871428Y-80905000D01*
X81942857Y-80976428D01*
X81978571Y-81047857D01*
X82014285Y-81190714D01*
X82014285Y-81297857D01*
X81978571Y-81440714D01*
X81942857Y-81512142D01*
X81871428Y-81583571D01*
X81764285Y-81619285D01*
X81585714Y-81619285D01*
X82871428Y-80833571D02*
X82228571Y-81797857D01*
X83550000Y-81547857D02*
X83514285Y-81583571D01*
X83407142Y-81619285D01*
X83335714Y-81619285D01*
X83228571Y-81583571D01*
X83157142Y-81512142D01*
X83121428Y-81440714D01*
X83085714Y-81297857D01*
X83085714Y-81190714D01*
X83121428Y-81047857D01*
X83157142Y-80976428D01*
X83228571Y-80905000D01*
X83335714Y-80869285D01*
X83407142Y-80869285D01*
X83514285Y-80905000D01*
X83550000Y-80940714D01*
X79456428Y-83524285D02*
X79456428Y-82774285D01*
X79742142Y-82774285D01*
X79813571Y-82810000D01*
X79849285Y-82845714D01*
X79885000Y-82917142D01*
X79885000Y-83024285D01*
X79849285Y-83095714D01*
X79813571Y-83131428D01*
X79742142Y-83167142D01*
X79456428Y-83167142D01*
X80599285Y-83524285D02*
X80170714Y-83524285D01*
X80385000Y-83524285D02*
X80385000Y-82774285D01*
X80313571Y-82881428D01*
X80242142Y-82952857D01*
X80170714Y-82988571D01*
X74376428Y-83524285D02*
X74376428Y-82774285D01*
X74662142Y-82774285D01*
X74733571Y-82810000D01*
X74769285Y-82845714D01*
X74805000Y-82917142D01*
X74805000Y-83024285D01*
X74769285Y-83095714D01*
X74733571Y-83131428D01*
X74662142Y-83167142D01*
X74376428Y-83167142D01*
X75090714Y-82845714D02*
X75126428Y-82810000D01*
X75197857Y-82774285D01*
X75376428Y-82774285D01*
X75447857Y-82810000D01*
X75483571Y-82845714D01*
X75519285Y-82917142D01*
X75519285Y-82988571D01*
X75483571Y-83095714D01*
X75055000Y-83524285D01*
X75519285Y-83524285D01*
X64185254Y-93698624D02*
X64113825Y-93662909D01*
X64006683Y-93662909D01*
X63899540Y-93698624D01*
X63828111Y-93770052D01*
X63792397Y-93841481D01*
X63756683Y-93984338D01*
X63756683Y-94091481D01*
X63792397Y-94234338D01*
X63828111Y-94305766D01*
X63899540Y-94377195D01*
X64006683Y-94412909D01*
X64078111Y-94412909D01*
X64185254Y-94377195D01*
X64220968Y-94341481D01*
X64220968Y-94091481D01*
X64078111Y-94091481D01*
X64542397Y-94412909D02*
X64542397Y-93662909D01*
X64970968Y-94412909D01*
X64970968Y-93662909D01*
X65328111Y-94412909D02*
X65328111Y-93662909D01*
X65506683Y-93662909D01*
X65613825Y-93698624D01*
X65685254Y-93770052D01*
X65720968Y-93841481D01*
X65756683Y-93984338D01*
X65756683Y-94091481D01*
X65720968Y-94234338D01*
X65685254Y-94305766D01*
X65613825Y-94377195D01*
X65506683Y-94412909D01*
X65328111Y-94412909D01*
X81572397Y-94377195D02*
X81679540Y-94412909D01*
X81858111Y-94412909D01*
X81929540Y-94377195D01*
X81965254Y-94341481D01*
X82000968Y-94270052D01*
X82000968Y-94198624D01*
X81965254Y-94127195D01*
X81929540Y-94091481D01*
X81858111Y-94055766D01*
X81715254Y-94020052D01*
X81643825Y-93984338D01*
X81608111Y-93948624D01*
X81572397Y-93877195D01*
X81572397Y-93805766D01*
X81608111Y-93734338D01*
X81643825Y-93698624D01*
X81715254Y-93662909D01*
X81893825Y-93662909D01*
X82000968Y-93698624D01*
X82750968Y-94341481D02*
X82715254Y-94377195D01*
X82608111Y-94412909D01*
X82536683Y-94412909D01*
X82429540Y-94377195D01*
X82358111Y-94305766D01*
X82322397Y-94234338D01*
X82286683Y-94091481D01*
X82286683Y-93984338D01*
X82322397Y-93841481D01*
X82358111Y-93770052D01*
X82429540Y-93698624D01*
X82536683Y-93662909D01*
X82608111Y-93662909D01*
X82715254Y-93698624D01*
X82750968Y-93734338D01*
X83072397Y-94412909D02*
X83072397Y-93662909D01*
X83500968Y-94412909D02*
X83179540Y-93984338D01*
X83500968Y-93662909D02*
X83072397Y-94091481D01*
D11*
X86830968Y-94299814D02*
X86830968Y-93799814D01*
X86997635Y-94156957D01*
X87164302Y-93799814D01*
X87164302Y-94299814D01*
X87402397Y-94299814D02*
X87402397Y-93799814D01*
X87616683Y-94276004D02*
X87688111Y-94299814D01*
X87807159Y-94299814D01*
X87854778Y-94276004D01*
X87878587Y-94252195D01*
X87902397Y-94204576D01*
X87902397Y-94156957D01*
X87878587Y-94109338D01*
X87854778Y-94085528D01*
X87807159Y-94061719D01*
X87711921Y-94037909D01*
X87664302Y-94014100D01*
X87640492Y-93990290D01*
X87616683Y-93942671D01*
X87616683Y-93895052D01*
X87640492Y-93847433D01*
X87664302Y-93823624D01*
X87711921Y-93799814D01*
X87830968Y-93799814D01*
X87902397Y-93823624D01*
X88211921Y-93799814D02*
X88307159Y-93799814D01*
X88354778Y-93823624D01*
X88402397Y-93871243D01*
X88426206Y-93966481D01*
X88426206Y-94133147D01*
X88402397Y-94228385D01*
X88354778Y-94276004D01*
X88307159Y-94299814D01*
X88211921Y-94299814D01*
X88164302Y-94276004D01*
X88116683Y-94228385D01*
X88092873Y-94133147D01*
X88092873Y-93966481D01*
X88116683Y-93871243D01*
X88164302Y-93823624D01*
X88211921Y-93799814D01*
D10*
X84536428Y-83524285D02*
X84536428Y-82774285D01*
X84822142Y-82774285D01*
X84893571Y-82810000D01*
X84929285Y-82845714D01*
X84965000Y-82917142D01*
X84965000Y-83024285D01*
X84929285Y-83095714D01*
X84893571Y-83131428D01*
X84822142Y-83167142D01*
X84536428Y-83167142D01*
X85322142Y-83524285D02*
X85465000Y-83524285D01*
X85536428Y-83488571D01*
X85572142Y-83452857D01*
X85643571Y-83345714D01*
X85679285Y-83202857D01*
X85679285Y-82917142D01*
X85643571Y-82845714D01*
X85607857Y-82810000D01*
X85536428Y-82774285D01*
X85393571Y-82774285D01*
X85322142Y-82810000D01*
X85286428Y-82845714D01*
X85250714Y-82917142D01*
X85250714Y-83095714D01*
X85286428Y-83167142D01*
X85322142Y-83202857D01*
X85393571Y-83238571D01*
X85536428Y-83238571D01*
X85607857Y-83202857D01*
X85643571Y-83167142D01*
X85679285Y-83095714D01*
X81632824Y-83484395D02*
X81632824Y-82734395D01*
X81918539Y-82734395D01*
X81989967Y-82770110D01*
X82025681Y-82805824D01*
X82061396Y-82877252D01*
X82061396Y-82984395D01*
X82025681Y-83055824D01*
X81989967Y-83091538D01*
X81918539Y-83127252D01*
X81632824Y-83127252D01*
X82775681Y-83484395D02*
X82347110Y-83484395D01*
X82561396Y-83484395D02*
X82561396Y-82734395D01*
X82489967Y-82841538D01*
X82418539Y-82912967D01*
X82347110Y-82948681D01*
X83061396Y-82805824D02*
X83097110Y-82770110D01*
X83168539Y-82734395D01*
X83347110Y-82734395D01*
X83418539Y-82770110D01*
X83454253Y-82805824D01*
X83489967Y-82877252D01*
X83489967Y-82948681D01*
X83454253Y-83055824D01*
X83025681Y-83484395D01*
X83489967Y-83484395D01*
X90038095Y-42632380D02*
X90038095Y-41632380D01*
X90038095Y-42108571D02*
X90609523Y-42108571D01*
X90609523Y-42632380D02*
X90609523Y-41632380D01*
X91609523Y-42632380D02*
X91038095Y-42632380D01*
X91323809Y-42632380D02*
X91323809Y-41632380D01*
X91228571Y-41775238D01*
X91133333Y-41870476D01*
X91038095Y-41918095D01*
G36*
X105631219Y-58856086D02*
G01*
X105716388Y-58866365D01*
X105716388Y-59183548D01*
X105619471Y-59190890D01*
X105504933Y-59192358D01*
X105322847Y-59152711D01*
X105252362Y-59019083D01*
X105275857Y-58933913D01*
X105339000Y-58883987D01*
X105431511Y-58859023D01*
X105540176Y-58851681D01*
X105631219Y-58856086D01*
G37*
G36*
X76262836Y-58377743D02*
G01*
X76349107Y-58462545D01*
X76398666Y-58593603D01*
X76415186Y-58760638D01*
X76397198Y-58928040D01*
X76343233Y-59060199D01*
X76254025Y-59146103D01*
X76130309Y-59174737D01*
X76003657Y-59146103D01*
X75917386Y-59060199D01*
X75867826Y-58928040D01*
X75851306Y-58760638D01*
X75869295Y-58593603D01*
X75923260Y-58462545D01*
X76012467Y-58377743D01*
X76136183Y-58349475D01*
X76262836Y-58377743D01*
G37*
G36*
X83613467Y-58362691D02*
G01*
X83695699Y-58428771D01*
X83742689Y-58521282D01*
X83757374Y-58628478D01*
X83205241Y-58628478D01*
X83230205Y-58519814D01*
X83283068Y-58425834D01*
X83368238Y-58361223D01*
X83490118Y-58337728D01*
X83613467Y-58362691D01*
G37*
G36*
X102616517Y-58180605D02*
G01*
X102663507Y-58362691D01*
X102703154Y-58543309D01*
X102738397Y-58731269D01*
X102383035Y-58731269D01*
X102419746Y-58543309D01*
X102460862Y-58362691D01*
X102507852Y-58180605D01*
X102562184Y-57985303D01*
X102616517Y-58180605D01*
G37*
G36*
X107080567Y-58379211D02*
G01*
X107173078Y-58468419D01*
X107228145Y-58603882D01*
X107246500Y-58772385D01*
X107231081Y-58941623D01*
X107184826Y-59067541D01*
X107106264Y-59145736D01*
X106993929Y-59171800D01*
X106876454Y-59157116D01*
X106782474Y-59118937D01*
X106782474Y-58361223D01*
X106861769Y-58353881D01*
X106949876Y-58349475D01*
X107080567Y-58379211D01*
G37*
G36*
X104106981Y-58368565D02*
G01*
X104200961Y-58408213D01*
X104200961Y-59160053D01*
X104121665Y-59168863D01*
X104039433Y-59171800D01*
X103907640Y-59142432D01*
X103817698Y-59054325D01*
X103765936Y-58919963D01*
X103748682Y-58751827D01*
X103763366Y-58580754D01*
X103807419Y-58455203D01*
X103883778Y-58378110D01*
X103995379Y-58352412D01*
X104106981Y-58368565D01*
G37*
G36*
X77737881Y-58378110D02*
G01*
X77817544Y-58455203D01*
X77864901Y-58580754D01*
X77880687Y-58751827D01*
X77860129Y-58947496D01*
X77798454Y-59076352D01*
X77701538Y-59147938D01*
X77575252Y-59171800D01*
X77497425Y-59168863D01*
X77410787Y-59157116D01*
X77410787Y-58408213D01*
X77509172Y-58368565D01*
X77625179Y-58352412D01*
X77737881Y-58378110D01*
G37*
G36*
X67163051Y-58674000D02*
G01*
X66496380Y-57673994D01*
X71372572Y-57673994D01*
X71438652Y-57841396D01*
X71598711Y-57903070D01*
X71760239Y-57841396D01*
X71827788Y-57673994D01*
X71760239Y-57503655D01*
X71598711Y-57441981D01*
X71438652Y-57503655D01*
X71372572Y-57673994D01*
X66496380Y-57673994D01*
X65506327Y-56188914D01*
X116093673Y-56188914D01*
X114436949Y-58674000D01*
X116093673Y-61159086D01*
X65506327Y-61159086D01*
X66322125Y-59935388D01*
X106421238Y-59935388D01*
X106782474Y-59935388D01*
X106782474Y-59415561D01*
X106927115Y-59466222D01*
X107067351Y-59483109D01*
X107194370Y-59469893D01*
X107305238Y-59430245D01*
X107475576Y-59281933D01*
X107535048Y-59176940D01*
X107578367Y-59052857D01*
X107604799Y-58912988D01*
X107613609Y-58760638D01*
X107594683Y-58554730D01*
X107537903Y-58379497D01*
X107531708Y-58370033D01*
X107810380Y-58370033D01*
X108124626Y-58370033D01*
X108124626Y-58936850D01*
X108133436Y-59093606D01*
X108159868Y-59217322D01*
X108262659Y-59383255D01*
X108427124Y-59462551D01*
X108650326Y-59483109D01*
X108874997Y-59465488D01*
X109090858Y-59406750D01*
X109040931Y-59095442D01*
X108948419Y-59133621D01*
X108866187Y-59155648D01*
X108783954Y-59165927D01*
X108691443Y-59168863D01*
X108606273Y-59160053D01*
X108541662Y-59124810D01*
X108500546Y-59051388D01*
X108485861Y-58928040D01*
X108485861Y-58757701D01*
X109258259Y-58757701D01*
X109270007Y-58914457D01*
X109305249Y-59055794D01*
X109362151Y-59180244D01*
X109438877Y-59286338D01*
X109533591Y-59372242D01*
X109644458Y-59436119D01*
X109770377Y-59475767D01*
X109910246Y-59488983D01*
X110050114Y-59475767D01*
X110129398Y-59450803D01*
X110902909Y-59450803D01*
X111267082Y-59450803D01*
X111267082Y-58425834D01*
X111416863Y-58397934D01*
X111566643Y-58390592D01*
X111645939Y-58393528D01*
X111742856Y-58403807D01*
X111841241Y-58419960D01*
X111924942Y-58437582D01*
X111989553Y-58102778D01*
X111876483Y-58074877D01*
X111751666Y-58057256D01*
X111635660Y-58046977D01*
X111551959Y-58044040D01*
X111362163Y-58052117D01*
X111198065Y-58076346D01*
X111048652Y-58113791D01*
X110902909Y-58161515D01*
X110902909Y-59450803D01*
X110129398Y-59450803D01*
X110176033Y-59436119D01*
X110286533Y-59372242D01*
X110380146Y-59286338D01*
X110455770Y-59180244D01*
X110512305Y-59055794D01*
X110547548Y-58914457D01*
X110559295Y-58757701D01*
X110547548Y-58603148D01*
X110512305Y-58462545D01*
X110455403Y-58338462D01*
X110378677Y-58233469D01*
X110283963Y-58149034D01*
X110173096Y-58086625D01*
X110047912Y-58048079D01*
X109910246Y-58035230D01*
X109774415Y-58048079D01*
X109648864Y-58086625D01*
X109536895Y-58149034D01*
X109441814Y-58233469D01*
X109364721Y-58338462D01*
X109306718Y-58462545D01*
X109270374Y-58603148D01*
X109258259Y-58757701D01*
X108485861Y-58757701D01*
X108485861Y-58370033D01*
X109064426Y-58370033D01*
X109064426Y-58070472D01*
X108485861Y-58070472D01*
X108485861Y-57665183D01*
X108124626Y-57723921D01*
X108124626Y-58070472D01*
X107810380Y-58070472D01*
X107810380Y-58370033D01*
X107531708Y-58370033D01*
X107443271Y-58234937D01*
X107313069Y-58127252D01*
X107149583Y-58062641D01*
X106952813Y-58041103D01*
X106810741Y-58046243D01*
X106666467Y-58061662D01*
X106532472Y-58085157D01*
X106421238Y-58114525D01*
X106421238Y-59935388D01*
X66322125Y-59935388D01*
X66645182Y-59450803D01*
X69610447Y-59450803D01*
X69904134Y-59450803D01*
X69904134Y-58367097D01*
X69952593Y-58358286D01*
X69995178Y-58355349D01*
X70084752Y-58411150D01*
X70112653Y-58607920D01*
X70112653Y-58925103D01*
X70406340Y-58925103D01*
X70406340Y-58649037D01*
X70400466Y-58499256D01*
X70385782Y-58375907D01*
X70438646Y-58359754D01*
X70494446Y-58355349D01*
X70539968Y-58364160D01*
X70578147Y-58399402D01*
X70604579Y-58475761D01*
X70614858Y-58607920D01*
X70614858Y-59450803D01*
X70908546Y-59450803D01*
X70908546Y-58625542D01*
X70904875Y-58490812D01*
X70893861Y-58374439D01*
X70836592Y-58196758D01*
X70720586Y-58091030D01*
X70610942Y-58070472D01*
X71099443Y-58070472D01*
X71099443Y-58370033D01*
X71481236Y-58370033D01*
X71481236Y-58878113D01*
X71487110Y-59013943D01*
X71504731Y-59133621D01*
X71585495Y-59323049D01*
X71738213Y-59441993D01*
X71845042Y-59472830D01*
X71974631Y-59483109D01*
X72155249Y-59464019D01*
X72365236Y-59392066D01*
X72318246Y-59101315D01*
X72159654Y-59155648D01*
X72039243Y-59168863D01*
X71887993Y-59108658D01*
X71842472Y-58925103D01*
X71842472Y-58760638D01*
X72591375Y-58760638D01*
X72602755Y-58908216D01*
X72636897Y-59045515D01*
X72695267Y-59168863D01*
X72779335Y-59274591D01*
X72889835Y-59361229D01*
X73027501Y-59427308D01*
X73193801Y-59469159D01*
X73390205Y-59483109D01*
X73527504Y-59478337D01*
X73645713Y-59464019D01*
X73696175Y-59450803D01*
X74191972Y-59450803D01*
X74556144Y-59450803D01*
X74556144Y-58757701D01*
X75484197Y-58757701D01*
X75495944Y-58914457D01*
X75531187Y-59055794D01*
X75588089Y-59180244D01*
X75664815Y-59286338D01*
X75759529Y-59372242D01*
X75870396Y-59436119D01*
X75996314Y-59475767D01*
X76136183Y-59488983D01*
X76276052Y-59475767D01*
X76401970Y-59436119D01*
X76447694Y-59409687D01*
X77049551Y-59409687D01*
X77161153Y-59439056D01*
X77296249Y-59462551D01*
X77441624Y-59477970D01*
X77584063Y-59483109D01*
X77733843Y-59470260D01*
X77866003Y-59431714D01*
X77979806Y-59369672D01*
X78074521Y-59286338D01*
X78149411Y-59182446D01*
X78203743Y-59058731D01*
X78236783Y-58917394D01*
X78247796Y-58760638D01*
X78238986Y-58606452D01*
X78212554Y-58466950D01*
X78168868Y-58343969D01*
X78108295Y-58239342D01*
X77936488Y-58092499D01*
X77873134Y-58070472D01*
X78441630Y-58070472D01*
X78441630Y-58370033D01*
X78823424Y-58370033D01*
X78823424Y-58878113D01*
X78829298Y-59013943D01*
X78846919Y-59133621D01*
X78927683Y-59323049D01*
X79080400Y-59441993D01*
X79187229Y-59472830D01*
X79316819Y-59483109D01*
X79497437Y-59464019D01*
X79707423Y-59392066D01*
X79660433Y-59101315D01*
X79501842Y-59155648D01*
X79381430Y-59168863D01*
X79230181Y-59108658D01*
X79184659Y-58925103D01*
X79184659Y-58370033D01*
X79910068Y-58370033D01*
X80224313Y-58370033D01*
X80224313Y-58936850D01*
X80233124Y-59093606D01*
X80259556Y-59217322D01*
X80362346Y-59383255D01*
X80526811Y-59462551D01*
X80750014Y-59483109D01*
X80974685Y-59465488D01*
X81190545Y-59406750D01*
X81140618Y-59095442D01*
X81048107Y-59133621D01*
X80965874Y-59155648D01*
X80883642Y-59165927D01*
X80791130Y-59168863D01*
X80705961Y-59160053D01*
X80641349Y-59124810D01*
X80600233Y-59051388D01*
X80585549Y-58928040D01*
X80585549Y-58772385D01*
X82832258Y-58772385D01*
X82845474Y-58937585D01*
X82885122Y-59080757D01*
X82949366Y-59202270D01*
X83036371Y-59302491D01*
X83145035Y-59381053D01*
X83274258Y-59437587D01*
X83422937Y-59471729D01*
X83589972Y-59483109D01*
X83827859Y-59461082D01*
X83865641Y-59450803D01*
X84368244Y-59450803D01*
X85522436Y-59450803D01*
X85863113Y-59450803D01*
X86224349Y-59450803D01*
X86224349Y-58367097D01*
X86308050Y-58358286D01*
X86388814Y-58355349D01*
X86567963Y-58440518D01*
X86601003Y-58552854D01*
X86612016Y-58719522D01*
X86612016Y-59450803D01*
X86973252Y-59450803D01*
X87331551Y-59450803D01*
X87695723Y-59450803D01*
X87695723Y-58798817D01*
X87817603Y-58932445D01*
X87948294Y-59102784D01*
X88070175Y-59284870D01*
X88162686Y-59450803D01*
X88576786Y-59450803D01*
X90268426Y-59450803D01*
X90629661Y-59450803D01*
X90629661Y-58772385D01*
X91642883Y-58772385D01*
X91656099Y-58937585D01*
X91695747Y-59080757D01*
X91759991Y-59202270D01*
X91846996Y-59302491D01*
X91955660Y-59381053D01*
X92084883Y-59437587D01*
X92233562Y-59471729D01*
X92400597Y-59483109D01*
X92638484Y-59461082D01*
X92838191Y-59406750D01*
X92788264Y-59098378D01*
X92622331Y-59145368D01*
X92415281Y-59168863D01*
X92255222Y-59149407D01*
X92127468Y-59091036D01*
X92070111Y-59027893D01*
X93149500Y-59027893D01*
X93190616Y-59240817D01*
X93308091Y-59381787D01*
X93491646Y-59459614D01*
X93731001Y-59483109D01*
X93915290Y-59477235D01*
X94080489Y-59459614D01*
X94315439Y-59418498D01*
X94315439Y-58596173D01*
X94286994Y-58370033D01*
X94594443Y-58370033D01*
X94908688Y-58370033D01*
X94908688Y-58936850D01*
X94917499Y-59093606D01*
X94943931Y-59217322D01*
X95046721Y-59383255D01*
X95211186Y-59462551D01*
X95434389Y-59483109D01*
X95659060Y-59465488D01*
X95713027Y-59450803D01*
X96142176Y-59450803D01*
X96503411Y-59450803D01*
X96503411Y-58387655D01*
X96581238Y-58367097D01*
X96679624Y-58355349D01*
X96847026Y-58440518D01*
X96880065Y-58552854D01*
X96891079Y-58719522D01*
X96891079Y-59450803D01*
X97252314Y-59450803D01*
X97252314Y-58772385D01*
X97516633Y-58772385D01*
X97529849Y-58937585D01*
X97569497Y-59080757D01*
X97633741Y-59202270D01*
X97720746Y-59302491D01*
X97829410Y-59381053D01*
X97958633Y-59437587D01*
X98107312Y-59471729D01*
X98274347Y-59483109D01*
X98512234Y-59461082D01*
X98550016Y-59450803D01*
X99155409Y-59450803D01*
X99519582Y-59450803D01*
X101857334Y-59450803D01*
X102233254Y-59450803D01*
X102315487Y-59030830D01*
X102800071Y-59030830D01*
X102885241Y-59450803D01*
X103272908Y-59450803D01*
X103224450Y-59244694D01*
X103175404Y-59044575D01*
X103125771Y-58850447D01*
X103104149Y-58769448D01*
X103381573Y-58769448D01*
X103400010Y-58975030D01*
X103455321Y-59149284D01*
X103547506Y-59292212D01*
X103675586Y-59398266D01*
X103838583Y-59461898D01*
X104036496Y-59483109D01*
X104175997Y-59477970D01*
X104318436Y-59462551D01*
X104451329Y-59439056D01*
X104562196Y-59409687D01*
X104562196Y-59027893D01*
X104897000Y-59027893D01*
X104938116Y-59240817D01*
X105055591Y-59381787D01*
X105239146Y-59459614D01*
X105478501Y-59483109D01*
X105662790Y-59477235D01*
X105827989Y-59459614D01*
X106062939Y-59418498D01*
X106062939Y-58596173D01*
X106033571Y-58362691D01*
X105936654Y-58186479D01*
X105756036Y-58074877D01*
X105628649Y-58045142D01*
X105472628Y-58035230D01*
X105342671Y-58040002D01*
X105217119Y-58054319D01*
X105026223Y-58096904D01*
X105076149Y-58387655D01*
X105230335Y-58352412D01*
X105428574Y-58337728D01*
X105563671Y-58354982D01*
X105651777Y-58406744D01*
X105716388Y-58578552D01*
X105716388Y-58622605D01*
X105599647Y-58604983D01*
X105466754Y-58599110D01*
X105252362Y-58621136D01*
X105070276Y-58693090D01*
X104943990Y-58825249D01*
X104897000Y-59027893D01*
X104562196Y-59027893D01*
X104562196Y-57412612D01*
X104200961Y-57474287D01*
X104200961Y-58102778D01*
X104077612Y-58057256D01*
X103933705Y-58041103D01*
X103766466Y-58062804D01*
X103628923Y-58127904D01*
X103521074Y-58236406D01*
X103443573Y-58382434D01*
X103397073Y-58560115D01*
X103381573Y-58769448D01*
X103104149Y-58769448D01*
X103075550Y-58662311D01*
X103024742Y-58480166D01*
X102960773Y-58259258D01*
X102896621Y-58044407D01*
X102832285Y-57835614D01*
X102767766Y-57632878D01*
X102374224Y-57632878D01*
X102311999Y-57833962D01*
X102248673Y-58040736D01*
X102184245Y-58253201D01*
X102118716Y-58471356D01*
X102065970Y-58651973D01*
X102013459Y-58840227D01*
X101961182Y-59036117D01*
X101909141Y-59239642D01*
X101857334Y-59450803D01*
X99519582Y-59450803D01*
X99519582Y-58425834D01*
X99669363Y-58397934D01*
X99819143Y-58390592D01*
X99898439Y-58393528D01*
X99995356Y-58403807D01*
X100093741Y-58419960D01*
X100177442Y-58437582D01*
X100242053Y-58102778D01*
X100128983Y-58074877D01*
X100004166Y-58057256D01*
X99888160Y-58046977D01*
X99804459Y-58044040D01*
X99614663Y-58052117D01*
X99450565Y-58076346D01*
X99301152Y-58113791D01*
X99155409Y-58161515D01*
X99155409Y-59450803D01*
X98550016Y-59450803D01*
X98711941Y-59406750D01*
X98662014Y-59098378D01*
X98496081Y-59145368D01*
X98289031Y-59168863D01*
X98128972Y-59149407D01*
X98001218Y-59091036D01*
X97917517Y-58998892D01*
X97889616Y-58878113D01*
X98785363Y-58878113D01*
X98789768Y-58816438D01*
X98791237Y-58743017D01*
X98773616Y-58530419D01*
X98720752Y-58354696D01*
X98632646Y-58215847D01*
X98510602Y-58115504D01*
X98355927Y-58055298D01*
X98168619Y-58035230D01*
X98046739Y-58046977D01*
X97927796Y-58082220D01*
X97816929Y-58140590D01*
X97719278Y-58221721D01*
X97637045Y-58325613D01*
X97572434Y-58452266D01*
X97530583Y-58601312D01*
X97516633Y-58772385D01*
X97252314Y-58772385D01*
X97252314Y-58672532D01*
X97245706Y-58537802D01*
X97225883Y-58415555D01*
X97137776Y-58215847D01*
X96973311Y-58086625D01*
X96858039Y-58052484D01*
X96717803Y-58041103D01*
X96609139Y-58054319D01*
X96503411Y-58082220D01*
X96503411Y-57412612D01*
X96142176Y-57474287D01*
X96142176Y-59450803D01*
X95713027Y-59450803D01*
X95874920Y-59406750D01*
X95824993Y-59095442D01*
X95732482Y-59133621D01*
X95650249Y-59155648D01*
X95568017Y-59165927D01*
X95475505Y-59168863D01*
X95390336Y-59160053D01*
X95325724Y-59124810D01*
X95284608Y-59051388D01*
X95269924Y-58928040D01*
X95269924Y-58370033D01*
X95848488Y-58370033D01*
X95848488Y-58070472D01*
X95269924Y-58070472D01*
X95269924Y-57665183D01*
X94908688Y-57723921D01*
X94908688Y-58070472D01*
X94594443Y-58070472D01*
X94594443Y-58370033D01*
X94286994Y-58370033D01*
X94286071Y-58362691D01*
X94189154Y-58186479D01*
X94008536Y-58074877D01*
X93881149Y-58045142D01*
X93725128Y-58035230D01*
X93595171Y-58040002D01*
X93469619Y-58054319D01*
X93278723Y-58096904D01*
X93328649Y-58387655D01*
X93482835Y-58352412D01*
X93681074Y-58337728D01*
X93816171Y-58354982D01*
X93904277Y-58406744D01*
X93968888Y-58578552D01*
X93968888Y-58622605D01*
X93852147Y-58604983D01*
X93719254Y-58599110D01*
X93504862Y-58621136D01*
X93322776Y-58693090D01*
X93196490Y-58825249D01*
X93149500Y-59027893D01*
X92070111Y-59027893D01*
X92043767Y-58998892D01*
X92015866Y-58878113D01*
X92911613Y-58878113D01*
X92916018Y-58816438D01*
X92917487Y-58743017D01*
X92899866Y-58530419D01*
X92847002Y-58354696D01*
X92758896Y-58215847D01*
X92636852Y-58115504D01*
X92482177Y-58055298D01*
X92294869Y-58035230D01*
X92172989Y-58046977D01*
X92054046Y-58082220D01*
X91943179Y-58140590D01*
X91845528Y-58221721D01*
X91763295Y-58325613D01*
X91698684Y-58452266D01*
X91656833Y-58601312D01*
X91642883Y-58772385D01*
X90629661Y-58772385D01*
X90629661Y-58672532D01*
X91287521Y-58672532D01*
X91287521Y-58372970D01*
X90629661Y-58372970D01*
X90629661Y-57932439D01*
X91381501Y-57932439D01*
X91381501Y-57632878D01*
X90268426Y-57632878D01*
X90268426Y-59450803D01*
X88576786Y-59450803D01*
X88466653Y-59262843D01*
X88394332Y-59157116D01*
X88315404Y-59051388D01*
X88232437Y-58947496D01*
X88148002Y-58847276D01*
X87989411Y-58678405D01*
X88120102Y-58537435D01*
X88264008Y-58378844D01*
X88403510Y-58217316D01*
X88523922Y-58070472D01*
X88089264Y-58070472D01*
X88007032Y-58201163D01*
X87908647Y-58343602D01*
X87802919Y-58486040D01*
X87695723Y-58616731D01*
X87695723Y-57412612D01*
X87331551Y-57474287D01*
X87331551Y-59450803D01*
X86973252Y-59450803D01*
X86973252Y-58672532D01*
X86966644Y-58537802D01*
X86946820Y-58415555D01*
X86857245Y-58215847D01*
X86685438Y-58086625D01*
X86562824Y-58052484D01*
X86412309Y-58041103D01*
X86251148Y-58046977D01*
X86102468Y-58064598D01*
X85971410Y-58088828D01*
X85863113Y-58114525D01*
X85863113Y-59450803D01*
X85522436Y-59450803D01*
X85522436Y-59151242D01*
X85128894Y-59151242D01*
X85128894Y-57932439D01*
X85522436Y-57932439D01*
X85522436Y-57632878D01*
X84368244Y-57632878D01*
X84368244Y-57932439D01*
X84764722Y-57932439D01*
X84764722Y-59151242D01*
X84368244Y-59151242D01*
X84368244Y-59450803D01*
X83865641Y-59450803D01*
X84027566Y-59406750D01*
X83977639Y-59098378D01*
X83811706Y-59145368D01*
X83604656Y-59168863D01*
X83444597Y-59149407D01*
X83316843Y-59091036D01*
X83233142Y-58998892D01*
X83205241Y-58878113D01*
X84100988Y-58878113D01*
X84105393Y-58816438D01*
X84106862Y-58743017D01*
X84089241Y-58530419D01*
X84036377Y-58354696D01*
X83948271Y-58215847D01*
X83826227Y-58115504D01*
X83671552Y-58055298D01*
X83484244Y-58035230D01*
X83362364Y-58046977D01*
X83243421Y-58082220D01*
X83132554Y-58140590D01*
X83034903Y-58221721D01*
X82952670Y-58325613D01*
X82888059Y-58452266D01*
X82846208Y-58601312D01*
X82832258Y-58772385D01*
X80585549Y-58772385D01*
X80585549Y-58370033D01*
X81164113Y-58370033D01*
X81164113Y-58070472D01*
X80585549Y-58070472D01*
X80585549Y-57665183D01*
X80224313Y-57723921D01*
X80224313Y-58070472D01*
X79910068Y-58070472D01*
X79910068Y-58370033D01*
X79184659Y-58370033D01*
X79184659Y-58070472D01*
X78441630Y-58070472D01*
X77873134Y-58070472D01*
X77825620Y-58053952D01*
X77698601Y-58041103D01*
X77557631Y-58054319D01*
X77410787Y-58102778D01*
X77410787Y-57673994D01*
X78714759Y-57673994D01*
X78780839Y-57841396D01*
X78940899Y-57903070D01*
X79102427Y-57841396D01*
X79169975Y-57673994D01*
X79102427Y-57503655D01*
X78940899Y-57441981D01*
X78780839Y-57503655D01*
X78714759Y-57673994D01*
X77410787Y-57673994D01*
X77410787Y-57412612D01*
X77049551Y-57474287D01*
X77049551Y-59409687D01*
X76447694Y-59409687D01*
X76512470Y-59372242D01*
X76606083Y-59286338D01*
X76681708Y-59180244D01*
X76738243Y-59055794D01*
X76773485Y-58914457D01*
X76785233Y-58757701D01*
X76773485Y-58603148D01*
X76738243Y-58462545D01*
X76681341Y-58338462D01*
X76604615Y-58233469D01*
X76509900Y-58149034D01*
X76399033Y-58086625D01*
X76273849Y-58048079D01*
X76136183Y-58035230D01*
X76000353Y-58048079D01*
X75874801Y-58086625D01*
X75762833Y-58149034D01*
X75667752Y-58233469D01*
X75590659Y-58338462D01*
X75532655Y-58462545D01*
X75496311Y-58603148D01*
X75484197Y-58757701D01*
X74556144Y-58757701D01*
X74556144Y-58425834D01*
X74705925Y-58397934D01*
X74855706Y-58390592D01*
X74935001Y-58393528D01*
X75031918Y-58403807D01*
X75130303Y-58419960D01*
X75214004Y-58437582D01*
X75278616Y-58102778D01*
X75165546Y-58074877D01*
X75040729Y-58057256D01*
X74924722Y-58046977D01*
X74841021Y-58044040D01*
X74651226Y-58052117D01*
X74487128Y-58076346D01*
X74337714Y-58113791D01*
X74191972Y-58161515D01*
X74191972Y-59450803D01*
X73696175Y-59450803D01*
X73830736Y-59415561D01*
X73777873Y-59118937D01*
X73609002Y-59157116D01*
X73431321Y-59168863D01*
X73210689Y-59141697D01*
X73065680Y-59060199D01*
X72985283Y-58930977D01*
X72958484Y-58760638D01*
X72981979Y-58596173D01*
X73058338Y-58465482D01*
X73197840Y-58380312D01*
X73413700Y-58349475D01*
X73597255Y-58365628D01*
X73727946Y-58402339D01*
X73807241Y-58111588D01*
X73604597Y-58052851D01*
X73381394Y-58035230D01*
X73190130Y-58049547D01*
X73027501Y-58092499D01*
X72892038Y-58160047D01*
X72782272Y-58248153D01*
X72697837Y-58354982D01*
X72638365Y-58478698D01*
X72603123Y-58615262D01*
X72591375Y-58760638D01*
X71842472Y-58760638D01*
X71842472Y-58070472D01*
X71099443Y-58070472D01*
X70610942Y-58070472D01*
X70532626Y-58055788D01*
X70391656Y-58080751D01*
X70274181Y-58138020D01*
X70169922Y-58074877D01*
X70033357Y-58055788D01*
X69836586Y-58073409D01*
X69610447Y-58123336D01*
X69610447Y-59450803D01*
X66645182Y-59450803D01*
X67163051Y-58674000D01*
G37*
G36*
X98297842Y-58362691D02*
G01*
X98380074Y-58428771D01*
X98427064Y-58521282D01*
X98441749Y-58628478D01*
X97889616Y-58628478D01*
X97914580Y-58519814D01*
X97967443Y-58425834D01*
X98052613Y-58361223D01*
X98174493Y-58337728D01*
X98297842Y-58362691D01*
G37*
G36*
X110036898Y-58377743D02*
G01*
X110123169Y-58462545D01*
X110172729Y-58593603D01*
X110189249Y-58760638D01*
X110171260Y-58928040D01*
X110117295Y-59060199D01*
X110028088Y-59146103D01*
X109904372Y-59174737D01*
X109777719Y-59146103D01*
X109691448Y-59060199D01*
X109641889Y-58928040D01*
X109625369Y-58760638D01*
X109643357Y-58593603D01*
X109697322Y-58462545D01*
X109786530Y-58377743D01*
X109910246Y-58349475D01*
X110036898Y-58377743D01*
G37*
G36*
X93883719Y-58856086D02*
G01*
X93968888Y-58866365D01*
X93968888Y-59183548D01*
X93871971Y-59190890D01*
X93757433Y-59192358D01*
X93575347Y-59152711D01*
X93504862Y-59019083D01*
X93528357Y-58933913D01*
X93591500Y-58883987D01*
X93684011Y-58859023D01*
X93792676Y-58851681D01*
X93883719Y-58856086D01*
G37*
G36*
X92424092Y-58362691D02*
G01*
X92506324Y-58428771D01*
X92553314Y-58521282D01*
X92567999Y-58628478D01*
X92015866Y-58628478D01*
X92040830Y-58519814D01*
X92093693Y-58425834D01*
X92178863Y-58361223D01*
X92300743Y-58337728D01*
X92424092Y-58362691D01*
G37*
G36*
X124182371Y-98712893D02*
G01*
X124093325Y-98699685D01*
X124006002Y-98677811D01*
X123921244Y-98647484D01*
X123839866Y-98608996D01*
X123762653Y-98562716D01*
X123690348Y-98509091D01*
X123623647Y-98448636D01*
X123563193Y-98381936D01*
X123509568Y-98309630D01*
X123463288Y-98232417D01*
X123424799Y-98151039D01*
X123394472Y-98066281D01*
X123372599Y-97978958D01*
X123359390Y-97889912D01*
X123354973Y-97800000D01*
X123359390Y-97710088D01*
X123365716Y-97667444D01*
X124603012Y-97667444D01*
X124634762Y-97753169D01*
X124964962Y-98318319D01*
X124979250Y-98335781D01*
X125022906Y-98369912D01*
X125087994Y-98386581D01*
X125157050Y-98365150D01*
X125207850Y-98316731D01*
X125536462Y-97753169D01*
X125568212Y-97665856D01*
X125547575Y-97611881D01*
X125516619Y-97586481D01*
X125615837Y-97586481D01*
X125665844Y-97684906D01*
X125761888Y-97740469D01*
X125873013Y-97691256D01*
X125893650Y-97672206D01*
X125893650Y-98238944D01*
X125896031Y-98296887D01*
X125911113Y-98340544D01*
X125953578Y-98371500D01*
X126033350Y-98381819D01*
X126115106Y-98371103D01*
X126157175Y-98338956D01*
X126172256Y-98296887D01*
X126174638Y-98242119D01*
X126174638Y-98235769D01*
X126277825Y-98235769D01*
X126308781Y-98350069D01*
X126356009Y-98372691D01*
X126435781Y-98380231D01*
X126513767Y-98368722D01*
X126555638Y-98334194D01*
X126572306Y-98290537D01*
X126574688Y-98234181D01*
X126574688Y-98227831D01*
X126547700Y-98116706D01*
X126496305Y-98091703D01*
X126415144Y-98083369D01*
X126337158Y-98095275D01*
X126295288Y-98130994D01*
X126280206Y-98173856D01*
X126277825Y-98229419D01*
X126277825Y-98235769D01*
X126174638Y-98235769D01*
X126174638Y-97586481D01*
X126638188Y-97586481D01*
X126688194Y-97684906D01*
X126784237Y-97740469D01*
X126895362Y-97691256D01*
X126916000Y-97672206D01*
X126916000Y-98238944D01*
X126918381Y-98296887D01*
X126933463Y-98340544D01*
X126975928Y-98371500D01*
X127055700Y-98381819D01*
X127137456Y-98371103D01*
X127179525Y-98338956D01*
X127194606Y-98296887D01*
X127196988Y-98242119D01*
X127196988Y-97357881D01*
X127189050Y-97273744D01*
X127166825Y-97239613D01*
X127125550Y-97221356D01*
X127050144Y-97213419D01*
X126960450Y-97254694D01*
X126955688Y-97257869D01*
X126695338Y-97492819D01*
X126638188Y-97586481D01*
X126174638Y-97586481D01*
X126174638Y-97357881D01*
X126166700Y-97273744D01*
X126144475Y-97239613D01*
X126103200Y-97221356D01*
X126027794Y-97213419D01*
X125938100Y-97254694D01*
X125933338Y-97257869D01*
X125672988Y-97492819D01*
X125615837Y-97586481D01*
X125516619Y-97586481D01*
X125485663Y-97561081D01*
X125398350Y-97527744D01*
X125347550Y-97541237D01*
X125319769Y-97568225D01*
X125293575Y-97611881D01*
X125085613Y-98011931D01*
X124877650Y-97611881D01*
X124835581Y-97547587D01*
X124780812Y-97526156D01*
X124685562Y-97561081D01*
X124623650Y-97612278D01*
X124603012Y-97667444D01*
X123365716Y-97667444D01*
X123372599Y-97621042D01*
X123394472Y-97533719D01*
X123424799Y-97448961D01*
X123463288Y-97367583D01*
X123509568Y-97290370D01*
X123563193Y-97218064D01*
X123623647Y-97151364D01*
X123690348Y-97090909D01*
X123762653Y-97037284D01*
X123839866Y-96991004D01*
X123921244Y-96952516D01*
X124006002Y-96922189D01*
X124093325Y-96900315D01*
X124182371Y-96887107D01*
X124272283Y-96882690D01*
X127527717Y-96882690D01*
X127617629Y-96887107D01*
X127706675Y-96900315D01*
X127793998Y-96922189D01*
X127878756Y-96952516D01*
X127960134Y-96991004D01*
X128037347Y-97037284D01*
X128109652Y-97090909D01*
X128176353Y-97151364D01*
X128236807Y-97218064D01*
X128290432Y-97290370D01*
X128336712Y-97367583D01*
X128375201Y-97448961D01*
X128405528Y-97533719D01*
X128427401Y-97621042D01*
X128440610Y-97710088D01*
X128445027Y-97800000D01*
X128440610Y-97889912D01*
X128427401Y-97978958D01*
X128405528Y-98066281D01*
X128375201Y-98151039D01*
X128336712Y-98232417D01*
X128290432Y-98309630D01*
X128236807Y-98381936D01*
X128176353Y-98448636D01*
X128109652Y-98509091D01*
X128037347Y-98562716D01*
X127960134Y-98608996D01*
X127878756Y-98647484D01*
X127793998Y-98677811D01*
X127706675Y-98699685D01*
X127617629Y-98712893D01*
X127527717Y-98717310D01*
X124272283Y-98717310D01*
X124182371Y-98712893D01*
G37*
%LPC*%
D12*
X120620000Y-97800000D03*
X118080000Y-97800000D03*
X115540000Y-97800000D03*
D13*
X113000000Y-97800000D03*
D14*
X90800000Y-49800000D03*
D15*
X90800000Y-47800000D03*
D16*
X53975000Y-66675000D03*
X127635000Y-66675000D03*
D13*
X95250000Y-97790000D03*
D12*
X92710000Y-97790000D03*
X90170000Y-97790000D03*
X87630000Y-97790000D03*
X85090000Y-97790000D03*
X82550000Y-97790000D03*
X80010000Y-97790000D03*
X77470000Y-97790000D03*
X74930000Y-97790000D03*
X72390000Y-97790000D03*
X69850000Y-97790000D03*
X67310000Y-97790000D03*
X64770000Y-97790000D03*
X62230000Y-97790000D03*
X59690000Y-97790000D03*
X57150000Y-97790000D03*
D13*
X95250000Y-77470000D03*
D12*
X92710000Y-77470000D03*
X90170000Y-77470000D03*
X87630000Y-77470000D03*
X85090000Y-77470000D03*
X82550000Y-77470000D03*
X80010000Y-77470000D03*
X77470000Y-77470000D03*
X74930000Y-77470000D03*
X72390000Y-77470000D03*
X69850000Y-77470000D03*
X67310000Y-77470000D03*
D17*
X66040000Y-72390000D03*
D18*
X66040000Y-68590000D03*
X67310000Y-70490000D03*
X67310000Y-66690000D03*
X68580000Y-72390000D03*
X68580000Y-68590000D03*
X69850000Y-70490000D03*
X69850000Y-66690000D03*
X71120000Y-72390000D03*
X71120000Y-68590000D03*
X72390000Y-70490000D03*
X72390000Y-66690000D03*
X73660000Y-72390000D03*
X73660000Y-68590000D03*
X74930000Y-70490000D03*
X74930000Y-66690000D03*
X76200000Y-72390000D03*
X76200000Y-68590000D03*
X77470000Y-70490000D03*
X77470000Y-66690000D03*
X78740000Y-72390000D03*
X78740000Y-68590000D03*
X80010000Y-70490000D03*
X80010000Y-66690000D03*
X81280000Y-72390000D03*
X81280000Y-68590000D03*
X82550000Y-70490000D03*
X82550000Y-66690000D03*
X83820000Y-72390000D03*
X83820000Y-68590000D03*
X85090000Y-70490000D03*
X85090000Y-66690000D03*
X86360000Y-72390000D03*
X86360000Y-68590000D03*
X87630000Y-70490000D03*
X87630000Y-66690000D03*
X88900000Y-72390000D03*
X88900000Y-68590000D03*
X90170000Y-70490000D03*
X90170000Y-66690000D03*
X91440000Y-72390000D03*
X91440000Y-68590000D03*
X92710000Y-70490000D03*
X92710000Y-66690000D03*
X93980000Y-72390000D03*
X93980000Y-68590000D03*
X95250000Y-70490000D03*
X95250000Y-66690000D03*
X96520000Y-72390000D03*
X96520000Y-68590000D03*
X97790000Y-70490000D03*
X97790000Y-66690000D03*
X99060000Y-72390000D03*
X99060000Y-68590000D03*
X100330000Y-70490000D03*
X100330000Y-66690000D03*
X101600000Y-72390000D03*
X101600000Y-68590000D03*
X102870000Y-70490000D03*
X102870000Y-66690000D03*
X104140000Y-72390000D03*
X104140000Y-68590000D03*
X105410000Y-70490000D03*
X105410000Y-66690000D03*
X106680000Y-72390000D03*
X106680000Y-68590000D03*
X107950000Y-70490000D03*
X107950000Y-66690000D03*
X109220000Y-72390000D03*
X109220000Y-68590000D03*
X110490000Y-70490000D03*
X110490000Y-66690000D03*
X111760000Y-72390000D03*
X111760000Y-68590000D03*
X113030000Y-70490000D03*
X113030000Y-66690000D03*
X114300000Y-72390000D03*
X114300000Y-68590000D03*
X115570000Y-70490000D03*
X115570000Y-66690000D03*
M02*
