G04 #@! TF.GenerationSoftware,KiCad,Pcbnew,(6.0.5-0)*
G04 #@! TF.CreationDate,2022-06-27T15:48:44+01:00*
G04 #@! TF.ProjectId,microbit_eink_feather_adaptor,6d696372-6f62-4697-945f-65696e6b5f66,rev?*
G04 #@! TF.SameCoordinates,Original*
G04 #@! TF.FileFunction,Profile,NP*
%FSLAX46Y46*%
G04 Gerber Fmt 4.6, Leading zero omitted, Abs format (unit mm)*
G04 Created by KiCad (PCBNEW (6.0.5-0)) date 2022-06-27 15:48:44*
%MOMM*%
%LPD*%
G01*
G04 APERTURE LIST*
G04 #@! TA.AperFunction,Profile*
%ADD10C,0.150000*%
G04 #@! TD*
G04 #@! TA.AperFunction,Profile*
%ADD11C,0.200000*%
G04 #@! TD*
G04 APERTURE END LIST*
D10*
X59763384Y-64135970D02*
G75*
G03*
X62303384Y-61704922I106546J2431120D01*
G01*
X77722454Y-44450000D02*
X77725546Y-50965798D01*
X78992454Y-43180000D02*
X102615011Y-43180000D01*
X127635002Y-99694964D02*
G75*
G03*
X130175000Y-97263949I106598J2431064D01*
G01*
X103885000Y-44450000D02*
G75*
G03*
X102615011Y-43180000I-1270000J0D01*
G01*
X53975000Y-64135000D02*
G75*
G03*
X51435000Y-66675000I0J-2540000D01*
G01*
X76479702Y-52201807D02*
G75*
G03*
X77725546Y-50965798I9798J1236007D01*
G01*
D11*
X130175000Y-66675000D02*
X130175000Y-97263949D01*
D10*
X62300000Y-54610000D02*
X62303384Y-61704922D01*
X103885011Y-44450000D02*
X103886989Y-50906871D01*
X119299970Y-54696050D02*
G75*
G03*
X116800000Y-52200000I-2453270J42850D01*
G01*
X76479702Y-52201759D02*
X64770000Y-52200000D01*
X64770000Y-52199992D02*
G75*
G03*
X62300000Y-54610000I-91140J-2377338D01*
G01*
X103887009Y-50906871D02*
G75*
G03*
X105182405Y-52206699I1295391J-4429D01*
G01*
X127635000Y-64135000D02*
X121728786Y-64134015D01*
X116800000Y-52200000D02*
X105182405Y-52206699D01*
X130175000Y-66675000D02*
G75*
G03*
X127635000Y-64135000I-2540000J0D01*
G01*
X119297735Y-61594015D02*
X119300000Y-54696051D01*
X78992454Y-43179954D02*
G75*
G03*
X77722454Y-44450000I46J-1270046D01*
G01*
D11*
X127635000Y-99695000D02*
X53866051Y-99695000D01*
D10*
X51435036Y-97155002D02*
G75*
G03*
X53866051Y-99695000I2431064J-106598D01*
G01*
D11*
X53975000Y-64135000D02*
X59763384Y-64135973D01*
X51435000Y-97155000D02*
X51435000Y-66675000D01*
D10*
X119297820Y-61594019D02*
G75*
G03*
X121728786Y-64134015I2431080J-106581D01*
G01*
M02*
