G04 #@! TF.GenerationSoftware,KiCad,Pcbnew,(6.0.5-0)*
G04 #@! TF.CreationDate,2022-06-27T15:48:44+01:00*
G04 #@! TF.ProjectId,microbit_eink_feather_adaptor,6d696372-6f62-4697-945f-65696e6b5f66,rev?*
G04 #@! TF.SameCoordinates,Original*
G04 #@! TF.FileFunction,Legend,Bot*
G04 #@! TF.FilePolarity,Positive*
%FSLAX46Y46*%
G04 Gerber Fmt 4.6, Leading zero omitted, Abs format (unit mm)*
G04 Created by KiCad (PCBNEW (6.0.5-0)) date 2022-06-27 15:48:44*
%MOMM*%
%LPD*%
G01*
G04 APERTURE LIST*
%ADD10C,0.200000*%
%ADD11C,0.150000*%
%ADD12C,0.120000*%
%ADD13O,1.700000X1.700000*%
%ADD14R,1.700000X1.700000*%
%ADD15O,17.600000X5.100000*%
%ADD16C,6.600000*%
%ADD17C,2.700000*%
%ADD18R,1.500000X1.500000*%
%ADD19C,1.500000*%
G04 APERTURE END LIST*
D10*
X108719047Y-97252380D02*
X108719047Y-97966666D01*
X108766666Y-98109523D01*
X108861904Y-98204761D01*
X109004761Y-98252380D01*
X109100000Y-98252380D01*
X107766666Y-98252380D02*
X108242857Y-98252380D01*
X108242857Y-97252380D01*
X106861904Y-98157142D02*
X106909523Y-98204761D01*
X107052380Y-98252380D01*
X107147619Y-98252380D01*
X107290476Y-98204761D01*
X107385714Y-98109523D01*
X107433333Y-98014285D01*
X107480952Y-97823809D01*
X107480952Y-97680952D01*
X107433333Y-97490476D01*
X107385714Y-97395238D01*
X107290476Y-97300000D01*
X107147619Y-97252380D01*
X107052380Y-97252380D01*
X106909523Y-97300000D01*
X106861904Y-97347619D01*
X106147619Y-97252380D02*
X106147619Y-97966666D01*
X106195238Y-98109523D01*
X106290476Y-98204761D01*
X106433333Y-98252380D01*
X106528571Y-98252380D01*
X105195238Y-98252380D02*
X105671428Y-98252380D01*
X105671428Y-97252380D01*
X104290476Y-98157142D02*
X104338095Y-98204761D01*
X104480952Y-98252380D01*
X104576190Y-98252380D01*
X104719047Y-98204761D01*
X104814285Y-98109523D01*
X104861904Y-98014285D01*
X104909523Y-97823809D01*
X104909523Y-97680952D01*
X104861904Y-97490476D01*
X104814285Y-97395238D01*
X104719047Y-97300000D01*
X104576190Y-97252380D01*
X104480952Y-97252380D01*
X104338095Y-97300000D01*
X104290476Y-97347619D01*
X103576190Y-97252380D02*
X103576190Y-97966666D01*
X103623809Y-98109523D01*
X103719047Y-98204761D01*
X103861904Y-98252380D01*
X103957142Y-98252380D01*
X102623809Y-98252380D02*
X103100000Y-98252380D01*
X103100000Y-97252380D01*
X101719047Y-98157142D02*
X101766666Y-98204761D01*
X101909523Y-98252380D01*
X102004761Y-98252380D01*
X102147619Y-98204761D01*
X102242857Y-98109523D01*
X102290476Y-98014285D01*
X102338095Y-97823809D01*
X102338095Y-97680952D01*
X102290476Y-97490476D01*
X102242857Y-97395238D01*
X102147619Y-97300000D01*
X102004761Y-97252380D01*
X101909523Y-97252380D01*
X101766666Y-97300000D01*
X101719047Y-97347619D01*
X101004761Y-97252380D02*
X101004761Y-97966666D01*
X101052380Y-98109523D01*
X101147619Y-98204761D01*
X101290476Y-98252380D01*
X101385714Y-98252380D01*
X100052380Y-98252380D02*
X100528571Y-98252380D01*
X100528571Y-97252380D01*
X99147619Y-98157142D02*
X99195238Y-98204761D01*
X99338095Y-98252380D01*
X99433333Y-98252380D01*
X99576190Y-98204761D01*
X99671428Y-98109523D01*
X99719047Y-98014285D01*
X99766666Y-97823809D01*
X99766666Y-97680952D01*
X99719047Y-97490476D01*
X99671428Y-97395238D01*
X99576190Y-97300000D01*
X99433333Y-97252380D01*
X99338095Y-97252380D01*
X99195238Y-97300000D01*
X99147619Y-97347619D01*
D11*
X123733333Y-97252380D02*
X123733333Y-97966666D01*
X123780952Y-98109523D01*
X123876190Y-98204761D01*
X124019047Y-98252380D01*
X124114285Y-98252380D01*
X122828571Y-97585714D02*
X122828571Y-98252380D01*
X123066666Y-97204761D02*
X123304761Y-97919047D01*
X122685714Y-97919047D01*
X63833333Y-71842380D02*
X63833333Y-72556666D01*
X63880952Y-72699523D01*
X63976190Y-72794761D01*
X64119047Y-72842380D01*
X64214285Y-72842380D01*
X63452380Y-71842380D02*
X62833333Y-71842380D01*
X63166666Y-72223333D01*
X63023809Y-72223333D01*
X62928571Y-72270952D01*
X62880952Y-72318571D01*
X62833333Y-72413809D01*
X62833333Y-72651904D01*
X62880952Y-72747142D01*
X62928571Y-72794761D01*
X63023809Y-72842380D01*
X63309523Y-72842380D01*
X63404761Y-72794761D01*
X63452380Y-72747142D01*
D12*
X114270000Y-96470000D02*
X121950000Y-96470000D01*
X111670000Y-96470000D02*
X111670000Y-97800000D01*
X114270000Y-96470000D02*
X114270000Y-99130000D01*
X121950000Y-96470000D02*
X121950000Y-99130000D01*
X113000000Y-96470000D02*
X111670000Y-96470000D01*
X114270000Y-99130000D02*
X121950000Y-99130000D01*
X93980000Y-99120000D02*
X93980000Y-96460000D01*
X96580000Y-99120000D02*
X96580000Y-97790000D01*
X93980000Y-99120000D02*
X55820000Y-99120000D01*
X55820000Y-99120000D02*
X55820000Y-96460000D01*
X95250000Y-99120000D02*
X96580000Y-99120000D01*
X93980000Y-96460000D02*
X55820000Y-96460000D01*
X65980000Y-78800000D02*
X65980000Y-76140000D01*
X95250000Y-78800000D02*
X96580000Y-78800000D01*
X96580000Y-78800000D02*
X96580000Y-77470000D01*
X93980000Y-78800000D02*
X93980000Y-76140000D01*
X93980000Y-78800000D02*
X65980000Y-78800000D01*
X93980000Y-76140000D02*
X65980000Y-76140000D01*
X96210000Y-66190000D02*
X96831000Y-66190000D01*
X78430000Y-66190000D02*
X79051000Y-66190000D01*
X116530000Y-66190000D02*
X119370000Y-66190000D01*
X119370000Y-52070000D02*
X119370000Y-73680000D01*
X91130000Y-66190000D02*
X91751000Y-66190000D01*
X98750000Y-66190000D02*
X99371000Y-66190000D01*
X62240000Y-66190000D02*
X66351000Y-66190000D01*
X83510000Y-66190000D02*
X84131000Y-66190000D01*
X93670000Y-66190000D02*
X94291000Y-66190000D01*
X86050000Y-66190000D02*
X86671000Y-66190000D01*
X101290000Y-66190000D02*
X101911000Y-66190000D01*
X62240000Y-52070000D02*
X119370000Y-52070000D01*
X113990000Y-66190000D02*
X114611000Y-66190000D01*
X111450000Y-66190000D02*
X112071000Y-66190000D01*
X68270000Y-66190000D02*
X68891000Y-66190000D01*
X73350000Y-66190000D02*
X73971000Y-66190000D01*
X108910000Y-66190000D02*
X109531000Y-66190000D01*
X80970000Y-66190000D02*
X81591000Y-66190000D01*
X119370000Y-73680000D02*
X62240000Y-73680000D01*
X75890000Y-66190000D02*
X76511000Y-66190000D01*
X88590000Y-66190000D02*
X89211000Y-66190000D01*
X70810000Y-66190000D02*
X71431000Y-66190000D01*
X106370000Y-66190000D02*
X106991000Y-66190000D01*
X62240000Y-73680000D02*
X62240000Y-52070000D01*
X66040000Y-73920000D02*
X65540000Y-74420000D01*
X103830000Y-66190000D02*
X104451000Y-66190000D01*
X66540000Y-74420000D02*
X66040000Y-73920000D01*
X65540000Y-74420000D02*
X66540000Y-74420000D01*
%LPC*%
D13*
X120620000Y-97800000D03*
X118080000Y-97800000D03*
X115540000Y-97800000D03*
D14*
X113000000Y-97800000D03*
D15*
X90800000Y-49800000D03*
D16*
X90800000Y-47800000D03*
D17*
X53975000Y-66675000D03*
X127635000Y-66675000D03*
D14*
X95250000Y-97790000D03*
D13*
X92710000Y-97790000D03*
X90170000Y-97790000D03*
X87630000Y-97790000D03*
X85090000Y-97790000D03*
X82550000Y-97790000D03*
X80010000Y-97790000D03*
X77470000Y-97790000D03*
X74930000Y-97790000D03*
X72390000Y-97790000D03*
X69850000Y-97790000D03*
X67310000Y-97790000D03*
X64770000Y-97790000D03*
X62230000Y-97790000D03*
X59690000Y-97790000D03*
X57150000Y-97790000D03*
D14*
X95250000Y-77470000D03*
D13*
X92710000Y-77470000D03*
X90170000Y-77470000D03*
X87630000Y-77470000D03*
X85090000Y-77470000D03*
X82550000Y-77470000D03*
X80010000Y-77470000D03*
X77470000Y-77470000D03*
X74930000Y-77470000D03*
X72390000Y-77470000D03*
X69850000Y-77470000D03*
X67310000Y-77470000D03*
D18*
X66040000Y-72390000D03*
D19*
X66040000Y-68590000D03*
X67310000Y-70490000D03*
X67310000Y-66690000D03*
X68580000Y-72390000D03*
X68580000Y-68590000D03*
X69850000Y-70490000D03*
X69850000Y-66690000D03*
X71120000Y-72390000D03*
X71120000Y-68590000D03*
X72390000Y-70490000D03*
X72390000Y-66690000D03*
X73660000Y-72390000D03*
X73660000Y-68590000D03*
X74930000Y-70490000D03*
X74930000Y-66690000D03*
X76200000Y-72390000D03*
X76200000Y-68590000D03*
X77470000Y-70490000D03*
X77470000Y-66690000D03*
X78740000Y-72390000D03*
X78740000Y-68590000D03*
X80010000Y-70490000D03*
X80010000Y-66690000D03*
X81280000Y-72390000D03*
X81280000Y-68590000D03*
X82550000Y-70490000D03*
X82550000Y-66690000D03*
X83820000Y-72390000D03*
X83820000Y-68590000D03*
X85090000Y-70490000D03*
X85090000Y-66690000D03*
X86360000Y-72390000D03*
X86360000Y-68590000D03*
X87630000Y-70490000D03*
X87630000Y-66690000D03*
X88900000Y-72390000D03*
X88900000Y-68590000D03*
X90170000Y-70490000D03*
X90170000Y-66690000D03*
X91440000Y-72390000D03*
X91440000Y-68590000D03*
X92710000Y-70490000D03*
X92710000Y-66690000D03*
X93980000Y-72390000D03*
X93980000Y-68590000D03*
X95250000Y-70490000D03*
X95250000Y-66690000D03*
X96520000Y-72390000D03*
X96520000Y-68590000D03*
X97790000Y-70490000D03*
X97790000Y-66690000D03*
X99060000Y-72390000D03*
X99060000Y-68590000D03*
X100330000Y-70490000D03*
X100330000Y-66690000D03*
X101600000Y-72390000D03*
X101600000Y-68590000D03*
X102870000Y-70490000D03*
X102870000Y-66690000D03*
X104140000Y-72390000D03*
X104140000Y-68590000D03*
X105410000Y-70490000D03*
X105410000Y-66690000D03*
X106680000Y-72390000D03*
X106680000Y-68590000D03*
X107950000Y-70490000D03*
X107950000Y-66690000D03*
X109220000Y-72390000D03*
X109220000Y-68590000D03*
X110490000Y-70490000D03*
X110490000Y-66690000D03*
X111760000Y-72390000D03*
X111760000Y-68590000D03*
X113030000Y-70490000D03*
X113030000Y-66690000D03*
X114300000Y-72390000D03*
X114300000Y-68590000D03*
X115570000Y-70490000D03*
X115570000Y-66690000D03*
M02*
