G04 #@! TF.GenerationSoftware,KiCad,Pcbnew,(6.0.5-0)*
G04 #@! TF.CreationDate,2022-06-27T15:48:44+01:00*
G04 #@! TF.ProjectId,microbit_eink_feather_adaptor,6d696372-6f62-4697-945f-65696e6b5f66,rev?*
G04 #@! TF.SameCoordinates,Original*
G04 #@! TF.FileFunction,Soldermask,Bot*
G04 #@! TF.FilePolarity,Negative*
%FSLAX46Y46*%
G04 Gerber Fmt 4.6, Leading zero omitted, Abs format (unit mm)*
G04 Created by KiCad (PCBNEW (6.0.5-0)) date 2022-06-27 15:48:44*
%MOMM*%
%LPD*%
G01*
G04 APERTURE LIST*
%ADD10O,1.700000X1.700000*%
%ADD11R,1.700000X1.700000*%
%ADD12O,17.600000X5.100000*%
%ADD13C,6.600000*%
%ADD14C,2.700000*%
%ADD15R,1.500000X1.500000*%
%ADD16C,1.500000*%
G04 APERTURE END LIST*
D10*
X120620000Y-97800000D03*
X118080000Y-97800000D03*
X115540000Y-97800000D03*
D11*
X113000000Y-97800000D03*
D12*
X90800000Y-49800000D03*
D13*
X90800000Y-47800000D03*
D14*
X53975000Y-66675000D03*
X127635000Y-66675000D03*
D11*
X95250000Y-97790000D03*
D10*
X92710000Y-97790000D03*
X90170000Y-97790000D03*
X87630000Y-97790000D03*
X85090000Y-97790000D03*
X82550000Y-97790000D03*
X80010000Y-97790000D03*
X77470000Y-97790000D03*
X74930000Y-97790000D03*
X72390000Y-97790000D03*
X69850000Y-97790000D03*
X67310000Y-97790000D03*
X64770000Y-97790000D03*
X62230000Y-97790000D03*
X59690000Y-97790000D03*
X57150000Y-97790000D03*
D11*
X95250000Y-77470000D03*
D10*
X92710000Y-77470000D03*
X90170000Y-77470000D03*
X87630000Y-77470000D03*
X85090000Y-77470000D03*
X82550000Y-77470000D03*
X80010000Y-77470000D03*
X77470000Y-77470000D03*
X74930000Y-77470000D03*
X72390000Y-77470000D03*
X69850000Y-77470000D03*
X67310000Y-77470000D03*
D15*
X66040000Y-72390000D03*
D16*
X66040000Y-68590000D03*
X67310000Y-70490000D03*
X67310000Y-66690000D03*
X68580000Y-72390000D03*
X68580000Y-68590000D03*
X69850000Y-70490000D03*
X69850000Y-66690000D03*
X71120000Y-72390000D03*
X71120000Y-68590000D03*
X72390000Y-70490000D03*
X72390000Y-66690000D03*
X73660000Y-72390000D03*
X73660000Y-68590000D03*
X74930000Y-70490000D03*
X74930000Y-66690000D03*
X76200000Y-72390000D03*
X76200000Y-68590000D03*
X77470000Y-70490000D03*
X77470000Y-66690000D03*
X78740000Y-72390000D03*
X78740000Y-68590000D03*
X80010000Y-70490000D03*
X80010000Y-66690000D03*
X81280000Y-72390000D03*
X81280000Y-68590000D03*
X82550000Y-70490000D03*
X82550000Y-66690000D03*
X83820000Y-72390000D03*
X83820000Y-68590000D03*
X85090000Y-70490000D03*
X85090000Y-66690000D03*
X86360000Y-72390000D03*
X86360000Y-68590000D03*
X87630000Y-70490000D03*
X87630000Y-66690000D03*
X88900000Y-72390000D03*
X88900000Y-68590000D03*
X90170000Y-70490000D03*
X90170000Y-66690000D03*
X91440000Y-72390000D03*
X91440000Y-68590000D03*
X92710000Y-70490000D03*
X92710000Y-66690000D03*
X93980000Y-72390000D03*
X93980000Y-68590000D03*
X95250000Y-70490000D03*
X95250000Y-66690000D03*
X96520000Y-72390000D03*
X96520000Y-68590000D03*
X97790000Y-70490000D03*
X97790000Y-66690000D03*
X99060000Y-72390000D03*
X99060000Y-68590000D03*
X100330000Y-70490000D03*
X100330000Y-66690000D03*
X101600000Y-72390000D03*
X101600000Y-68590000D03*
X102870000Y-70490000D03*
X102870000Y-66690000D03*
X104140000Y-72390000D03*
X104140000Y-68590000D03*
X105410000Y-70490000D03*
X105410000Y-66690000D03*
X106680000Y-72390000D03*
X106680000Y-68590000D03*
X107950000Y-70490000D03*
X107950000Y-66690000D03*
X109220000Y-72390000D03*
X109220000Y-68590000D03*
X110490000Y-70490000D03*
X110490000Y-66690000D03*
X111760000Y-72390000D03*
X111760000Y-68590000D03*
X113030000Y-70490000D03*
X113030000Y-66690000D03*
X114300000Y-72390000D03*
X114300000Y-68590000D03*
X115570000Y-70490000D03*
X115570000Y-66690000D03*
M02*
